<svg width="64" height="91" viewBox="0 0 64 91" fill="none" xmlns="http://www.w3.org/2000/svg">
<g clip-path="url(#clip0_1124_931)">
<path d="M19.9506 91L13.5144 77.2037L0 83.995L15.4897 39.9832L35.4403 46.9882L19.9506 91Z" fill="#C0EAF4"/>
<path d="M44.041 91L50.4773 77.2037L63.9999 83.995L48.5102 39.9832L28.5596 46.9882L44.041 91Z" fill="#C0EAF4"/>
<path d="M32 0L40.6748 6.08421L51.2674 6.25687L54.7078 16.2629L63.1769 22.6267L60.0658 32.7478L63.1769 42.869L54.7078 49.2245L51.2674 59.2388L40.6748 59.4115L32 65.4957L23.3251 59.4115L12.7325 59.2388L9.29213 49.2245L0.822998 42.869L3.93411 32.7478L0.822998 22.6267L9.29213 16.2629L12.7325 6.25687L23.3251 6.08421L32 0Z" fill="#C0EAF4"/>
<path d="M55.712 32.7478C55.712 45.8289 45.0947 56.4434 32 56.4434C18.9054 56.4434 8.28809 45.8371 8.28809 32.7478C8.28809 19.6586 18.9054 9.06055 32 9.06055C45.0947 9.06055 55.712 19.6668 55.712 32.7478Z" fill="white"/>
<path d="M35.3397 47.7994H30.6327V25.1432L23.3475 27.819V23.6979L35.0467 19.3619H35.3397V47.7994Z" fill="#F37B74"/>
<path d="M32 53.6397C20.4691 53.6397 11.0864 44.2667 11.0864 32.7396C11.0864 21.2125 20.4691 11.8478 32 11.8478C43.5309 11.8478 52.9218 21.2207 52.9218 32.7396C52.9218 44.2585 43.5391 53.6397 32 53.6397ZM32 12.3082C20.7161 12.3082 11.5391 21.4756 11.5391 32.7479C11.5391 44.0201 20.7161 53.1875 32 53.1875C43.284 53.1875 52.4609 44.0201 52.4609 32.7479C52.4609 21.4756 43.284 12.3082 32 12.3082Z" fill="#F37B74"/>
</g>
<defs>
<clipPath id="clip0_1124_931">
<rect width="64" height="91" fill="white"/>
</clipPath>
</defs>
</svg>
