<svg width="84" height="101" viewBox="0 0 84 101" fill="none" xmlns="http://www.w3.org/2000/svg">
<g id="Object" clip-path="url(#clip0_1124_852)">
<path id="Vector" d="M1.97468 26.5684C1.97468 12.7322 13.222 1.47602 27.0443 1.47602C35.91 1.47602 43.6997 6.11785 48.1562 13.0934L49.4295 12.3521C44.7162 4.94082 36.4534 0 27.0443 0C12.4097 0 0.5 11.9191 0.5 26.5684C0.5 41.2177 12.4097 53.1382 27.0443 53.1382C28.4622 53.1382 29.8423 52.9934 31.1994 52.7797C33.0309 62.4692 41.5181 69.8006 51.7328 69.8006C63.2843 69.8006 72.6474 60.4317 72.6474 48.8711C72.6474 37.9125 64.2277 28.9333 53.517 28.0268C53.544 27.5412 53.59 27.0622 53.59 26.5698C53.59 22.1823 52.5032 18.0491 50.6109 14.399L49.3363 15.1404C51.1002 18.5754 52.114 22.4529 52.114 26.5684C52.114 27.0379 52.0667 27.4924 52.0423 27.9511C51.9396 27.9511 51.8382 27.9348 51.7328 27.9348C51.3665 27.9348 51.011 27.9727 50.6528 27.9903C50.6812 27.5195 50.7244 27.0514 50.7244 26.5684C50.7244 22.7018 49.7783 19.0638 48.1373 15.8385L43.0117 18.8271C44.1485 21.1717 44.8054 23.7895 44.8054 26.5684C44.8054 27.4722 44.7149 28.3515 44.5864 29.2174C38.1295 31.5728 33.1688 37.0115 31.4738 43.7652C30.0572 44.1292 28.5771 44.3456 27.0443 44.3456C17.2338 44.3456 9.28323 36.3865 9.28323 26.5684C9.28323 16.7504 17.2352 8.7939 27.0443 8.7939C33.2323 8.7939 38.6742 11.9624 41.852 16.7666L46.9641 13.7875C42.7536 7.22588 35.4139 2.86817 27.0443 2.86817C13.9695 2.86817 3.36421 13.4804 3.36421 26.5684C3.36421 39.6564 13.9695 50.27 27.0457 50.27C28.3541 50.27 29.626 50.1388 30.8763 49.9331C30.9007 50.3985 30.9263 50.8639 30.9804 51.3212C29.695 51.5269 28.3865 51.6608 27.0457 51.6608C13.222 51.6608 1.97604 40.4046 1.97604 26.5684H1.97468Z" fill="#C0EAF4"/>
<path id="Vector_2" d="M27.0443 20.6454C28.8624 20.6454 30.4682 21.4814 31.5508 22.7708L36.7224 19.7578C34.58 16.7124 31.0453 14.7183 27.0443 14.7183C20.5049 14.7183 15.2036 20.023 15.2036 26.5684C15.2036 33.1138 20.5049 38.4199 27.0443 38.4199C33.5838 38.4199 38.8837 33.1151 38.8837 26.5684C38.8837 24.8759 38.5228 23.2713 37.8848 21.8143L32.6782 24.8488C32.8458 25.3968 32.962 25.965 32.962 26.5684C32.962 29.8411 30.3154 32.4955 27.0443 32.4955C23.7733 32.4955 21.1226 29.8411 21.1226 26.5684C21.1226 23.2957 23.7746 20.6454 27.0443 20.6454Z" fill="#C0EAF4"/>
<path id="Vector_3" d="M61.2635 12.1572C61.4974 12.283 61.7826 12.2803 62.011 12.1437L62.799 11.6864C62.9166 11.6174 62.9869 11.4888 62.9869 11.3522C62.9842 11.2129 62.9112 11.087 62.7869 11.0207L59.2103 9.06308L59.6185 8.82226L59.7956 8.58686L59.7551 8.29598L59.2603 7.47206C59.1509 7.29348 58.917 7.23395 58.7359 7.33812L58.3142 7.5857L58.2925 3.54592C58.2898 3.40928 58.2195 3.28616 58.0979 3.21716H57.7181L56.9354 3.67445C56.7003 3.81109 56.557 4.06408 56.557 4.33467L56.5813 8.59633L56.3745 8.71944L56.3502 4.67695C56.3502 4.54301 56.2772 4.41313 56.1582 4.34819L55.7757 4.3509L54.9917 4.80548C54.7565 4.94212 54.6133 5.19376 54.6133 5.4657L54.6416 9.72736L54.4308 9.85047L54.4065 5.80798C54.4065 5.67404 54.3335 5.54822 54.2145 5.47923L53.8347 5.48193L53.0521 5.93651C52.8169 6.07315 52.6722 6.32479 52.6763 6.59673L52.6966 10.2279C52.6966 10.3619 52.629 10.485 52.5114 10.5567L49.4282 12.3534L48.1549 13.0947L46.9627 13.7888L41.8507 16.7679L36.7211 19.7592L31.5495 22.7721L27.8527 24.9273C27.2593 25.2723 27.07 26.0448 27.4377 26.6252L27.4931 26.7131C27.7945 27.1866 28.4136 27.3368 28.8948 27.0554L32.6768 24.8502L37.8835 21.8156L43.0104 18.8284L48.136 15.8398L49.3336 15.1417L50.6082 14.4003L53.6887 12.6063L54.0564 12.6009L57.3788 14.4219C57.6113 14.5478 57.8951 14.5451 58.1236 14.4152L58.9116 13.9552C59.0333 13.8848 59.1035 13.7577 59.0995 13.6183C59.0995 13.4817 59.0238 13.3559 58.9035 13.2896L55.3256 11.3292L55.5256 11.2142L59.3212 13.2896C59.5537 13.4208 59.8348 13.4154 60.0646 13.2814L60.8526 12.8242C60.9743 12.7525 61.0446 12.6239 61.0446 12.4873C61.0419 12.3506 60.9648 12.2208 60.8459 12.1558L57.268 10.1982L57.468 10.0805L61.2595 12.1612L61.2635 12.1572Z" fill="#F37B74"/>
<path id="Vector_4" d="M49.3566 81.6885L46.979 77.3119H46.9763L49.3566 81.6885Z" fill="#C0EAF4"/>
<path id="Vector_5" d="M39.6286 71.7772C28.7719 71.7772 19.9724 80.5847 19.9724 91.4526V101H83.5001V91.4526C83.5001 80.5847 74.6979 71.7772 63.8385 71.7772H39.6286ZM59.524 97.6232H43.9431L39.4339 73.9216C39.8773 73.8891 40.3206 73.8566 40.7694 73.8566H62.6977C63.1492 73.8566 63.5925 73.8891 64.0332 73.9216L59.524 97.6232Z" fill="#C0EAF4"/>
<path id="Vector_6" d="M46.8479 97.6231H56.6206L54.201 81.6885H54.1145L56.4935 77.3119H46.979L49.3566 81.6885H49.2715L46.8479 97.6231Z" fill="#F37B74"/>
</g>
<defs>
<clipPath id="clip0_1124_852">
<rect width="83" height="101" fill="white" transform="translate(0.5)"/>
</clipPath>
</defs>
</svg>
