<svg width="124" height="92" viewBox="0 0 124 92" fill="none" xmlns="http://www.w3.org/2000/svg">
<g id="Isolation_Mode" clip-path="url(#clip0_1124_914)">
<path id="Vector" d="M3.29028 75.9713L3.34342 76.2227L15.9824 76.2005C16.1727 76.2108 16.3681 76.2176 16.5635 76.2176C22.6362 76.2074 27.5057 71.0971 27.1149 64.9518C26.7755 59.691 22.4819 55.4122 17.208 55.0957C11.0496 54.7244 5.9487 59.602 5.95898 65.6635L5.96241 65.8619H5.95898L5.96926 71.5094C5.97269 73.571 4.85174 75.3228 3.29028 75.9695V75.9713Z" fill="#C0EAF4"/>
<path id="Vector_2" d="M22.698 77.2047L10.4378 77.2253C4.93927 77.2338 0.493152 81.6905 0.500008 87.1772L0.50515 92L32.6786 91.9453L32.6718 87.1224C32.6615 81.6358 28.1965 77.1945 22.698 77.203V77.2047Z" fill="#C0EAF4"/>
<path id="Vector_3" d="M32.7883 67.282C32.7952 71.6258 36.3295 75.1398 40.683 75.133C45.0314 75.1261 48.552 71.6001 48.5451 67.2563C48.5383 62.9125 45.004 59.3967 40.6539 59.4036C36.302 59.4121 32.7815 62.9382 32.7883 67.2837V67.282Z" fill="#C0EAF4"/>
<path id="Vector_4" d="M51.2498 65.3983C51.2601 71.2784 56.0438 76.0362 61.9348 76.0259C67.8276 76.0157 72.5976 71.2425 72.5873 65.364C72.5771 59.4822 67.7984 54.7227 61.9006 54.7329C56.0113 54.7432 51.2395 59.5181 51.2498 65.4V65.3983Z" fill="#C0EAF4"/>
<path id="Vector_5" d="M68.1104 77.0233L55.761 77.0439C50.2282 77.0524 45.741 81.5416 45.7512 87.0693L45.7598 91.9264L78.1647 91.8716L78.1578 87.0146C78.1458 81.4869 73.6483 77.0131 68.1086 77.0233H68.1104Z" fill="#C0EAF4"/>
<path id="Vector_6" d="M96.5867 65.3212C96.597 71.2014 101.381 75.9592 107.272 75.9489C113.161 75.9387 117.933 71.1671 117.923 65.287C117.916 59.4052 113.128 54.6456 107.237 54.6559C101.348 54.6662 96.5764 59.4411 96.5867 65.3229V65.3212Z" fill="#C0EAF4"/>
<path id="Vector_7" d="M113.449 76.9464L101.098 76.967C95.5602 76.9755 91.0781 81.4647 91.0884 86.9924L91.0952 91.8495L123.498 91.7947L123.492 86.9394C123.483 81.4117 118.985 76.9379 113.448 76.9464H113.449Z" fill="#C0EAF4"/>
<path id="Vector_8" d="M78.6293 75.8122C76.9101 75.8156 75.3367 76.4058 74.0803 77.3895C77.2581 79.3484 79.4023 82.8163 79.4863 86.7923L89.9074 86.7735C89.964 83.5605 91.3849 80.6795 93.6165 78.6692C92.259 76.9225 90.1388 75.7933 87.7495 75.7968L78.6293 75.8122Z" fill="#C0EAF4"/>
<path id="Vector_9" d="M30.2688 78.7753C32.5056 80.7769 33.935 83.6545 34.0019 86.8675L44.4521 86.8487C44.5224 82.8795 46.6443 79.4083 49.8135 77.4408C48.5503 76.4554 46.9649 75.8651 45.2406 75.8685L36.117 75.8839C33.7311 75.8874 31.6194 77.0234 30.2688 78.777V78.7753Z" fill="#C0EAF4"/>
<path id="Vector_10" d="M82.5817 59.3625C78.6498 59.6157 75.4566 62.8115 75.2201 66.7379C74.9459 71.3212 78.5847 75.1175 83.1148 75.1107L83.5484 75.097L92.9737 75.0816L93.0097 74.8934C91.8459 74.4144 91.006 73.1107 91.0026 71.5744L90.9958 67.3641H90.9906L90.9958 67.2135C90.9889 62.6952 87.1701 59.0699 82.5817 59.3625Z" fill="#C0EAF4"/>
<path id="Vector_11" d="M23.8291 3.59618L101.37 3.46444C102.454 3.46444 103.338 4.44646 103.338 5.65602L103.419 52.8699C104.469 52.3737 105.626 52.0093 106.89 51.7852L106.811 5.64918C106.807 2.53033 104.363 -0.00512472 101.369 7.77853e-06L23.8274 0.130031C20.8313 0.135164 18.394 2.67746 18.3992 5.79802L18.478 52.5379C19.7224 52.6338 20.8879 52.8493 21.9523 53.1949L21.87 5.79289C21.87 4.58333 22.7459 3.59789 23.8291 3.59618Z" fill="#C0EAF4"/>
<path id="Vector_12" d="M54.8561 22.299L43.0741 38.6665L38.2269 34.1328L27.175 49.2805L30.4608 51.9152L37.3733 42.7554L43.5866 47.7784L55.3566 31.3647L69.8416 43.1386L87.6449 23.0039L98.1517 31.0448L96.6177 4.50635L71.0397 9.89889L79.9354 16.9167L68.1928 32.487L54.8561 22.299Z" fill="#F37B74"/>
</g>
<defs>
<clipPath id="clip0_1124_914">
<rect width="123" height="92" fill="white" transform="translate(0.5)"/>
</clipPath>
</defs>
</svg>
