<svg width="120" height="92" viewBox="0 0 120 92" fill="none" xmlns="http://www.w3.org/2000/svg">
<g id="Frame" clip-path="url(#clip0_1124_868)">
<g id="Group">
<g id="Isolation Mode">
<g id="Layer 1">
<g id="Group_2">
<path id="Vector" d="M55.4027 91.0872C48.7626 91.0872 42.3838 90.9885 37.3322 89.7994C34.63 89.1629 32.5021 88.2635 30.8265 87.0487C29.1454 85.83 27.9191 84.2679 27.174 82.3979H18.4479C16.3269 82.3979 14.6015 80.668 14.6015 78.5414C14.6015 76.4149 16.3269 74.6845 18.4479 74.6845H30.9608C32.0779 74.6845 32.9864 73.7732 32.9864 72.6537C32.9864 71.5341 32.0774 70.6228 30.9608 70.6228H13.6586C11.5376 70.6228 9.81226 68.8929 9.81226 66.7664C9.81226 64.6398 11.5376 62.9099 13.6586 62.9099H34.5129C35.63 62.9099 36.5385 61.9986 36.5385 60.8791C36.5385 59.7596 35.6295 58.8482 34.5129 58.8482H23.7745C21.6535 58.8482 19.9281 57.1184 19.9281 54.9918C19.9281 52.8652 21.6535 51.1354 23.7745 51.1354H34.7728C37.6605 46.1377 40.9375 42.0276 44.2706 39.2276L44.5245 39.0144H64.2174L64.4477 39.5848C66.9319 45.7439 71.5312 50.8536 77.3977 53.9729L77.6516 54.1081L77.782 54.3652C79.8076 58.3529 81.5152 62.645 82.7199 66.7772C83.9 70.8241 84.5235 74.4511 84.5235 77.2655C84.5235 83.3107 81.6166 87.2125 75.6359 89.1945C70.3575 90.9441 63.0531 91.0887 55.4022 91.0887L55.4027 91.0872Z" fill="#C0EAF4"/>
<g id="Vector_2" style="mix-blend-mode:multiply">
<path d="M63.9478 40.276C63.9399 40.2567 63.9316 40.238 63.9237 40.2188H63.7239C63.9005 40.6436 64.0871 41.0635 64.2834 41.4784H64.4876C64.2982 41.0812 64.1181 40.6806 63.9478 40.276Z" fill="#DDDDDD"/>
</g>
<path id="Vector_3" d="M58.1035 79.5583V83.1809H52.8536V79.5598C47.7297 78.7881 44.783 75.6516 44.4365 71.2844H50.65C51.1524 73.6809 52.9417 75.1433 55.6218 75.1433C58.9076 75.1433 59.9849 73.558 59.9849 71.7142C59.9849 69.4924 58.824 68.3901 54.6597 67.1675C47.2873 64.9916 45.0517 62.2774 45.0517 58.0454C45.0517 53.5229 48.3223 50.7001 52.5756 49.9215V46.5077H57.7905V49.8969C63.2353 50.7302 65.25 54.112 65.5561 57.6423H59.3382C59.0208 56.3161 58.4121 54.3104 55.0184 54.3099C52.2168 54.3094 51.331 55.9638 51.331 57.4203C51.331 59.4018 52.3797 60.2919 57.1291 61.669C63.7377 63.5612 66.2352 66.2557 66.2352 70.9687C66.2352 76.032 62.9882 78.8399 58.1035 79.5578V79.5583Z" fill="#FF6050"/>
<path id="Vector_4" d="M5.25725 82.3978C3.13624 82.3978 1.41089 80.6679 1.41089 78.5414C1.41089 76.4148 3.13624 74.6844 5.25725 74.6844H7.81427C9.93528 74.6844 11.6606 76.4143 11.6606 78.5414C11.6606 80.6684 9.93528 82.3978 7.81427 82.3978H5.25725Z" fill="#C0EAF4"/>
<path id="Vector_5" d="M12.9977 58.8443C11.9963 58.8122 11.0598 58.3978 10.361 57.6759C9.66072 56.9526 9.2749 55.9989 9.2749 54.9903C9.2749 53.9818 9.66072 53.0281 10.361 52.3047C11.0598 51.5834 11.9963 51.1684 12.9977 51.1364L13.0268 51.1354L13.0558 51.1364C14.0573 51.1684 14.9938 51.5829 15.6926 52.3047C16.3933 53.0281 16.7791 53.9818 16.7791 54.9903C16.7791 55.9989 16.3933 56.9526 15.6926 57.6759C14.9938 58.3973 14.0573 58.8122 13.0558 58.8443L13.0268 58.8453L12.9977 58.8443Z" fill="#C0EAF4"/>
<path id="Vector_6" d="M64.207 39.0124L63.897 38.0996C63.6593 37.3995 63.4472 36.6831 63.2651 35.9632C63.2228 35.7959 63.182 35.6287 63.1426 35.4609L63.1278 35.3973L62.9777 34.7568H46.2242C45.8527 34.7568 45.5013 34.8471 45.1913 35.0065C45.1238 35.0415 45.0584 35.0795 44.9954 35.1205C44.7897 35.2537 44.6071 35.4195 44.4546 35.6104C44.1421 35.9997 43.9556 36.4941 43.9556 37.0314C43.9556 37.4173 44.052 37.7809 44.2218 38.0996C44.2469 38.147 44.274 38.1929 44.302 38.2383C44.5028 38.559 44.7808 38.8254 45.1106 39.0124C45.4398 39.1994 45.8197 39.306 46.2242 39.306H64.3064L64.207 39.0124ZM46.1263 38.3893C45.8463 38.3695 45.5894 38.2644 45.3822 38.0996C45.0677 37.8505 44.866 37.4646 44.866 37.0314C44.866 36.5982 45.0677 36.2124 45.3822 35.9632H62.3262C62.43 36.3856 62.5427 36.8054 62.6652 37.2229C62.7509 37.5164 62.8414 37.809 62.9369 38.0996C62.9689 38.1978 63.0014 38.2955 63.0348 38.3932H46.2242C46.1912 38.3932 46.1588 38.3922 46.1263 38.3893Z" fill="#FF6050"/>
<path id="Vector_7" d="M63.0348 38.3931H46.2242C45.9063 38.3931 45.6135 38.2836 45.3822 38.0996C45.0677 37.8504 44.866 37.4646 44.866 37.0314C44.866 36.5981 45.0677 36.2123 45.3822 35.9631H62.3262C62.5028 36.6825 62.7061 37.3955 62.9369 38.0996C62.9689 38.1978 63.0013 38.2955 63.0348 38.3931Z" fill="#FF6050"/>
<path id="Vector_8" d="M65.0989 15.2945L64.7367 15.1924C64.374 15.0902 64.0394 14.8949 63.7682 14.6279L59.2954 10.2204C58.7865 9.71955 58.1955 9.33174 57.5533 9.07073C56.92 8.81268 56.2379 8.67798 55.5356 8.67798C54.0652 8.67798 52.643 9.29276 51.6337 10.3649L47.6785 14.5667C47.3242 14.9432 46.8671 15.1805 46.3661 15.2531C46.2578 15.2689 46.1476 15.2768 46.0359 15.2768C45.4414 15.2768 44.8799 15.0468 44.4552 14.6289L42.3155 12.5241C42.094 12.3065 41.8475 12.1259 41.5847 11.9862C41.1561 11.7578 40.6822 11.6369 40.1955 11.6369C39.2393 11.6369 38.3171 12.0948 37.7295 12.8611C37.1503 13.6165 36.9697 14.5534 37.2206 15.4998L37.2359 15.557L37.4623 16.1106L44.8454 34.1598L45.1914 35.0065L45.2096 35.0504H63.0276L62.9754 34.7568L62.8366 33.9772C62.8288 33.9328 62.8209 33.8884 62.814 33.844C61.8327 28.1645 62.6221 22.2254 65.0384 17.0338C65.1255 16.8468 65.215 16.6608 65.3061 16.4757L65.7928 15.4899L65.0989 15.2945ZM38.1005 15.2654C37.699 13.7516 38.9056 12.5497 40.1955 12.5497C40.7082 12.5497 41.2343 12.7397 41.6777 13.1758L43.8174 15.2807C44.435 15.8881 45.2362 16.1896 46.0359 16.1896C46.8769 16.1896 47.7164 15.856 48.3404 15.1934L52.2956 10.9915C53.173 10.0595 54.3536 9.59077 55.5356 9.59077C56.7177 9.59077 57.789 10.0161 58.6571 10.8716L63.1299 15.2787C63.5241 15.6675 63.9936 15.931 64.4901 16.0711C64.4272 16.1994 64.3647 16.3277 64.3031 16.4565C61.6649 22.0107 60.9312 28.1087 61.8898 33.844C61.906 33.9417 61.9233 34.0399 61.9405 34.1376H45.8198L45.7165 33.885L38.1005 15.2654Z" fill="#C0EAF4"/>
<path id="Vector_9" d="M61.8897 33.8441C61.906 33.9418 61.9232 34.0399 61.9404 34.1376H45.8197L45.7164 33.885L38.1004 15.2655C37.6989 13.7517 38.9055 12.5498 40.1954 12.5498C40.7082 12.5498 41.2342 12.7397 41.6776 13.1759L43.8173 15.2807C44.4349 15.8881 45.2361 16.1896 46.0358 16.1896C46.8768 16.1896 47.7163 15.8561 48.3403 15.1934L52.2955 10.9916C53.1729 10.0596 54.3535 9.59082 55.5355 9.59082C56.7176 9.59082 57.7889 10.0161 58.657 10.8717L63.1298 15.2788C63.524 15.6676 63.9935 15.9311 64.49 16.0712C61.6998 21.7281 60.9089 27.9755 61.8897 33.8441Z" fill="#C0EAF4"/>
<path id="Subtract" fill-rule="evenodd" clip-rule="evenodd" d="M79.6894 54.8591C83.1415 56.3225 86.8078 57.0646 90.5867 57.0646C94.3617 57.0646 98.026 56.3235 101.477 54.8611C104.812 53.4485 107.807 51.426 110.379 48.8499C112.953 46.2719 114.974 43.27 116.386 39.9267C117.848 36.4631 118.59 32.7788 118.59 28.989C118.59 25.1991 117.849 21.5223 116.389 18.0601C114.978 14.7163 112.959 11.7139 110.387 9.1359C107.816 6.55787 104.821 4.53344 101.487 3.11934C98.0339 1.65541 94.3672 0.912842 90.5872 0.912842C86.8073 0.912842 83.1401 1.65541 79.6869 3.11984C76.3523 4.53393 73.3573 6.55836 70.786 9.13689C68.2147 11.7154 66.1956 14.7178 64.7852 18.0611C63.3251 21.5228 62.5845 25.1977 62.5845 28.989C62.5845 32.7803 63.3251 36.4581 64.7862 39.9208C66.1971 43.2641 68.2167 46.2665 70.7885 48.8445C73.3598 51.4216 76.3548 53.4455 79.6894 54.8591ZM81.7213 49.2787C84.5199 50.5097 87.5027 51.1339 90.5867 51.1339C93.5689 51.1339 96.4616 50.5487 99.184 49.3941C101.814 48.279 104.176 46.6824 106.205 44.6481C108.233 42.6138 109.826 40.2454 110.939 37.6087C112.09 34.8792 112.674 31.979 112.674 28.9889C112.674 25.9989 112.09 23.0987 110.939 20.3692C109.826 17.7324 108.234 15.3641 106.205 13.3298C104.176 11.296 101.814 9.69932 99.184 8.58373C96.4616 7.42917 93.5689 6.84399 90.5867 6.84399C84.8861 6.84399 79.4753 9.01497 75.3504 12.9573C71.2403 16.8848 68.8181 22.1701 68.5287 27.8388C68.3703 30.9393 68.8402 33.9659 69.9248 36.834C70.9691 39.5961 72.533 42.0883 74.5733 44.241C76.6151 46.3957 79.0201 48.0905 81.7213 49.2787Z" fill="#C0EAF4"/>
<path id="Vector_10" d="M90.5012 32.7886C89.4638 32.7886 88.4579 32.348 87.7419 31.5802C87.1563 30.9521 86.8103 30.1691 86.739 29.3303L79.2795 24.9583C78.7928 24.6731 78.4459 24.2147 78.3026 23.6675C78.1594 23.1203 78.2377 22.5505 78.5221 22.0625L78.6014 21.9268C78.9788 21.28 79.6776 20.8783 80.4251 20.8783C80.7982 20.8783 81.1663 20.9785 81.4896 21.168L88.95 25.541C89.3816 25.3456 89.8462 25.2331 90.3225 25.2094L97.0251 13.7062C97.4114 13.0441 98.1265 12.6326 98.8917 12.6326C99.2736 12.6326 99.6501 12.7352 99.9812 12.9291C101.055 13.5587 101.418 14.8731 100.806 15.9221L94.0149 27.5778C94.3859 28.493 94.3854 29.5114 94.0006 30.4444C93.5439 31.5511 92.6202 32.3603 91.4657 32.6638C91.1488 32.7471 90.824 32.7891 90.5012 32.7891V32.7886Z" fill="#FF6050"/>
</g>
</g>
</g>
</g>
</g>
<defs>
<clipPath id="clip0_1124_868">
<rect width="119" height="92" fill="white" transform="translate(0.5)"/>
</clipPath>
</defs>
</svg>
