<svg width="21" height="15" viewBox="0 0 21 15" fill="none" xmlns="http://www.w3.org/2000/svg">
<g clip-path="url(#clip0_849_904)">
<path d="M20.4307 6.34543C20.1749 6.34543 19.9675 6.58214 19.9675 6.87407C19.9675 7.03612 20.0315 7.18088 20.1321 7.27787C19.6611 7.90566 19.1352 8.55626 18.5502 9.20878C17.8015 10.0438 17.0791 10.7457 16.4107 11.3341C16.1891 10.0245 15.9844 8.61556 15.8105 7.11342C15.6997 6.15577 15.6097 5.22909 15.5368 4.33626C15.7913 4.33458 15.9973 4.09883 15.9973 3.80786C15.9973 3.51689 15.7899 3.27922 15.5341 3.27922C15.2783 3.27922 15.0709 3.51593 15.0709 3.80786C15.0709 3.97135 15.136 4.11731 15.2382 4.2143C14.872 4.99718 14.4564 5.81823 13.984 6.66017C13.4928 7.53547 13.0053 8.31835 12.5375 9.01384C12.1827 7.7693 11.8328 6.44626 11.497 5.04639C11.2273 3.92261 10.8436 2.10766 10.6399 1.13681C10.8273 1.06911 10.963 0.869125 10.963 0.632893C10.963 0.340964 10.7556 0.104492 10.4998 0.104492C10.244 0.104492 10.0366 0.341204 10.0366 0.632893C10.0366 0.869125 10.1725 1.06911 10.3598 1.13681C10.156 2.10766 9.7723 3.92237 9.50265 5.04639C9.16661 6.44626 8.81671 7.76954 8.46219 9.01384C7.99436 8.31835 7.50684 7.53547 7.01567 6.66017C6.55562 5.84008 6.14931 5.03967 5.79017 4.27528C5.93728 4.18669 6.0377 4.01072 6.0377 3.80786C6.0377 3.51593 5.83029 3.27922 5.57449 3.27922C5.31869 3.27922 5.11128 3.51593 5.11128 3.80786C5.11128 4.05633 5.2618 4.26424 5.46434 4.32065C5.39115 5.21829 5.30094 6.15001 5.18934 7.11318C5.01548 8.61508 4.81074 10.0243 4.58923 11.3339C3.9208 10.7455 3.19839 10.0435 2.44972 9.20854C1.86566 8.55722 1.34094 7.90806 0.870433 7.28147C0.969397 7.18448 1.03237 7.04116 1.03237 6.88055C1.03237 6.58862 0.824964 6.35191 0.569165 6.35191C0.313367 6.35191 0.105957 6.58862 0.105957 6.88055C0.105957 7.17248 0.313367 7.40919 0.569165 7.40919C0.605639 7.40919 0.641139 7.40391 0.675181 7.39479C0.843686 8.24129 1.00417 9.14852 1.14787 10.1148C1.31443 11.2348 1.4382 12.2964 1.52987 13.2874H19.4698C19.5614 12.2964 19.6852 11.2348 19.8518 10.1148C19.9957 9.14612 20.1567 8.23672 20.3259 7.38831C20.3597 7.39719 20.3945 7.40247 20.4307 7.40247C20.6865 7.40247 20.8939 7.16576 20.8939 6.87407C20.8939 6.58238 20.6865 6.34543 20.4307 6.34543Z" fill="url(#paint0_linear_849_904)"/>
<path d="M19.2938 14.8953H1.75727L1.56323 13.6704H19.4878L19.2938 14.8953Z" fill="url(#paint1_linear_849_904)"/>
<path d="M19.5669 13.392H1.43315L1.4244 13.2967C1.32641 12.2387 1.19826 11.1732 1.04313 10.1299C0.913531 9.25842 0.761559 8.37879 0.590865 7.51357C0.267957 7.52869 0.000244141 7.23772 0.000244141 6.88074C0.000244141 6.52375 0.255556 6.24742 0.569468 6.24742C0.88338 6.24742 1.13869 6.53143 1.13869 6.88074C1.13869 7.02982 1.09128 7.17314 1.00642 7.28622C1.49661 7.93538 2.0087 8.55861 2.52929 9.13934C3.16514 9.84876 3.83308 10.5171 4.51634 11.1286C4.73761 9.80026 4.92849 8.44649 5.08411 7.10184C5.18721 6.20997 5.27742 5.29842 5.35231 4.39094C5.14441 4.29323 5.00533 4.06588 5.00533 3.80828C5.00533 3.45898 5.26064 3.17497 5.57455 3.17497C5.88846 3.17497 6.14377 3.45898 6.14377 3.80828C6.14377 4.00634 6.06086 4.19048 5.92299 4.30907C6.29696 5.10036 6.69573 5.87387 7.10861 6.60993C7.5244 7.3508 7.96573 8.07486 8.42286 8.76483C8.77032 7.53397 9.09858 6.27599 9.39961 5.02281C9.67802 3.86278 10.0841 1.93547 10.2392 1.19677C10.0515 1.0897 9.93065 0.87435 9.93065 0.633557C9.93065 0.28425 10.186 0.000244141 10.4999 0.000244141C10.8138 0.000244141 11.0691 0.28425 11.0691 0.633557C11.0691 0.87435 10.9483 1.0897 10.7605 1.19677C10.9157 1.93523 11.3217 3.86278 11.6002 5.02281C11.9012 6.27647 12.2294 7.53421 12.5769 8.76483C13.034 8.07462 13.4754 7.3508 13.8911 6.60993C14.3172 5.85058 14.7278 5.05138 15.1123 4.23393C15.0177 4.11798 14.9647 3.96697 14.9647 3.80828C14.9647 3.45898 15.22 3.17497 15.5339 3.17497C15.8478 3.17497 16.1031 3.45898 16.1031 3.80828C16.1031 4.11221 15.9084 4.36789 15.6506 4.42791C15.7248 5.32314 15.814 6.22222 15.9156 7.10184C16.0713 8.44697 16.2621 9.80074 16.4834 11.1286C17.1669 10.5169 17.8346 9.84852 18.4705 9.13934C18.9918 8.55789 19.5048 7.9337 19.9958 7.2831C19.9095 7.16954 19.8611 7.02502 19.8611 6.87401C19.8611 6.52471 20.1164 6.2407 20.4303 6.2407C20.7442 6.2407 20.9995 6.52471 20.9995 6.87401C20.9995 7.22332 20.7442 7.50733 20.4303 7.50733C20.4237 7.50733 20.4169 7.50733 20.4104 7.50685C20.2392 8.37327 20.0867 9.2553 19.9566 10.1301C19.8015 11.1735 19.6731 12.2389 19.5754 13.2969L19.5666 13.3922L19.5669 13.392ZM1.62694 13.1824H19.3733C19.4703 12.152 19.596 11.1151 19.747 10.0994C19.8825 9.18832 20.0422 8.26932 20.2219 7.36808L20.2311 7.32223L20.2175 7.34024C19.7074 8.02012 19.1732 8.67216 18.6297 9.27835C17.9438 10.0432 17.2211 10.7613 16.4815 11.4126L16.3378 11.5391L16.3062 11.3516C16.0708 9.95991 15.8687 8.53796 15.7053 7.12561C15.5995 6.21093 15.5071 5.27537 15.4313 4.34509L15.422 4.23249L15.5363 4.23177C15.7321 4.23057 15.8913 4.04043 15.8913 3.80828C15.8913 3.57613 15.7311 3.38455 15.5344 3.38455C15.3377 3.38455 15.1774 3.57469 15.1774 3.80828C15.1774 3.93744 15.2265 4.05796 15.3121 4.13934L15.3666 4.1912L15.335 4.2589C14.9401 5.103 14.5168 5.92837 14.0774 6.71172C13.6205 7.52629 13.1323 8.32045 12.6265 9.0726L12.4986 9.26274L12.4359 9.04283C12.0643 7.73924 11.7137 6.40299 11.3942 5.07107C11.1044 3.86302 10.6769 1.82768 10.5364 1.1586L10.5179 1.07001L10.6039 1.0388C10.7532 0.984784 10.8576 0.818173 10.8576 0.633317C10.8576 0.399726 10.6973 0.209588 10.5006 0.209588C10.3039 0.209588 10.1437 0.399726 10.1437 0.633317C10.1437 0.817933 10.248 0.984784 10.3973 1.0388L10.4833 1.07001L10.4649 1.1586C10.3243 1.82744 9.89686 3.86302 9.60702 5.07107C9.28751 6.40251 8.93713 7.73876 8.56534 9.04283L8.50261 9.26274L8.37471 9.0726C7.86895 8.32069 7.38094 7.52653 6.92381 6.71172C6.49489 5.94733 6.08153 5.14261 5.69467 4.32012L5.65479 4.23537L5.73576 4.18664C5.8571 4.11366 5.93247 3.96889 5.93247 3.80852C5.93247 3.57493 5.77223 3.38479 5.57552 3.38479C5.37881 3.38479 5.21857 3.57493 5.21857 3.80852C5.21857 4.00586 5.33188 4.17535 5.49431 4.22049L5.5782 4.24401L5.57115 4.32996C5.4948 5.26553 5.40215 6.20613 5.2959 7.12609C5.1325 8.5382 4.93044 9.95991 4.69506 11.3521L4.66345 11.5396L4.51975 11.4131C3.78032 10.762 3.05742 10.0439 2.37148 9.27882C1.82876 8.6736 1.29553 8.02276 0.786604 7.34456L0.770313 7.32271L0.780769 7.37505C0.959973 8.27532 1.11948 9.19216 1.25443 10.1001C1.40543 11.1159 1.53114 12.1525 1.62816 13.1831L1.62694 13.1824ZM0.569225 6.45701C0.37227 6.45701 0.212274 6.64714 0.212274 6.88074C0.212274 7.11433 0.372513 7.30447 0.569225 7.30447C0.594513 7.30447 0.620287 7.30086 0.64752 7.29366L0.730922 7.27134L0.796087 7.20724C0.879003 7.12609 0.926418 7.00701 0.926418 6.88074C0.926418 6.64714 0.766179 6.45701 0.569468 6.45701H0.569225ZM20.2713 7.26533L20.3535 7.28718C20.3797 7.29414 20.4057 7.29774 20.4305 7.29774C20.6275 7.29774 20.7875 7.1076 20.7875 6.87401C20.7875 6.64042 20.6272 6.45028 20.4305 6.45028C20.2338 6.45028 20.0736 6.64042 20.0736 6.87401C20.0736 7.00173 20.122 7.12153 20.2063 7.20291L20.2713 7.26557V7.26533Z" fill="url(#paint2_linear_849_904)"/>
<path d="M19.3847 14.9999H1.66656L1.43945 13.5652H19.6121L19.385 14.9999H19.3847ZM1.8482 14.7903H19.2031L19.364 13.7748H1.68723L1.8482 14.7903Z" fill="url(#paint3_linear_849_904)"/>
</g>
<defs>
<linearGradient id="paint0_linear_849_904" x1="0.1062" y1="6.69618" x2="20.8939" y2="6.69618" gradientUnits="userSpaceOnUse">
<stop stop-color="#BA973B"/>
<stop offset="0.12" stop-color="#A57D24"/>
<stop offset="0.33" stop-color="#F1DD80"/>
<stop offset="0.61" stop-color="#F1DD80"/>
<stop offset="0.67" stop-color="#D9BF63"/>
<stop offset="0.75" stop-color="#C2A247"/>
<stop offset="0.82" stop-color="#B28D33"/>
<stop offset="0.9" stop-color="#A88128"/>
<stop offset="0.97" stop-color="#A57D24"/>
</linearGradient>
<linearGradient id="paint1_linear_849_904" x1="1.56323" y1="14.2828" x2="19.4878" y2="14.2828" gradientUnits="userSpaceOnUse">
<stop stop-color="#BA973B"/>
<stop offset="0.12" stop-color="#A57D24"/>
<stop offset="0.26" stop-color="#F1DD80"/>
<stop offset="0.37" stop-color="#F1DD80"/>
<stop offset="0.47" stop-color="#D9BF63"/>
<stop offset="0.6" stop-color="#C2A247"/>
<stop offset="0.73" stop-color="#B28D33"/>
<stop offset="0.85" stop-color="#A88128"/>
<stop offset="0.97" stop-color="#A57D24"/>
</linearGradient>
<linearGradient id="paint2_linear_849_904" x1="9.86583e-07" y1="6.69612" x2="21" y2="6.69612" gradientUnits="userSpaceOnUse">
<stop offset="0.03" stop-color="#A57D24"/>
<stop offset="0.13" stop-color="#A88128"/>
<stop offset="0.23" stop-color="#B28D33"/>
<stop offset="0.34" stop-color="#C2A247"/>
<stop offset="0.44" stop-color="#D9BF63"/>
<stop offset="0.53" stop-color="#F1DD80"/>
<stop offset="0.74" stop-color="#F1DD80"/>
<stop offset="0.88" stop-color="#A57D24"/>
<stop offset="1" stop-color="#BA973B"/>
</linearGradient>
<linearGradient id="paint3_linear_849_904" x1="1.43921" y1="14.2825" x2="19.6118" y2="14.2825" gradientUnits="userSpaceOnUse">
<stop offset="0.03" stop-color="#A57D24"/>
<stop offset="0.13" stop-color="#A88128"/>
<stop offset="0.23" stop-color="#B28D33"/>
<stop offset="0.34" stop-color="#C2A247"/>
<stop offset="0.44" stop-color="#D9BF63"/>
<stop offset="0.53" stop-color="#F1DD80"/>
<stop offset="0.74" stop-color="#F1DD80"/>
<stop offset="0.88" stop-color="#A57D24"/>
<stop offset="1" stop-color="#BA973B"/>
</linearGradient>
<clipPath id="clip0_849_904">
<rect width="21" height="15" fill="white"/>
</clipPath>
</defs>
</svg>
