<svg width="40" height="40" viewBox="0 0 40 40" fill="none" xmlns="http://www.w3.org/2000/svg">
<path d="M31.2155 28.3606L36.4539 22.9688C36.8521 22.559 37.0494 21.987 36.9895 21.4111L36.1504 13.1081C36.1336 12.5544 35.9162 12.0374 35.5325 11.6427C35.1308 11.2293 34.5987 11.0043 34.0345 11.0067C33.4762 11.0055 32.9456 11.2317 32.5463 11.6427C32.172 12.028 31.9549 12.5316 31.9295 13.0707C31.9281 13.1032 31.9272 13.136 31.9269 13.1685L31.8812 15.887L31.8467 17.9437C31.329 17.9719 30.815 18.1911 30.4242 18.5934L26.9707 22.1479C26.7292 22.3965 26.446 22.5772 26.1505 22.6746C25.2288 22.9761 24.4148 23.4843 23.7335 24.1855C23.4005 24.5282 23.1085 24.9089 22.8607 25.3178C22.6543 25.6588 22.4788 26.0191 22.3366 26.394C22.032 27.1961 21.8792 28.0631 21.8984 28.9413C21.9104 29.468 21.9857 29.9762 22.116 30.4622C21.8591 30.5618 21.6223 30.7169 21.4214 30.9236C21.0475 31.3086 20.8416 31.8207 20.8416 32.3644V36.2058C20.8416 36.6439 21.187 36.9994 21.6137 37.0006H30.6846C31.1114 36.9994 31.4568 36.6439 31.4568 36.2058V32.3644C31.4568 31.5918 31.0394 30.9212 30.4239 30.5754L30.4251 30.3256C30.4239 29.5885 30.7085 28.8824 31.2152 28.3606H31.2155ZM30.2735 32.3644V35.7824H22.0249V32.3644C22.0249 32.2026 22.0712 32.052 22.1496 31.9251C22.1809 31.8744 22.2169 31.8271 22.2579 31.7849C22.3726 31.6668 22.5236 31.5851 22.692 31.5566C22.7342 31.5496 22.777 31.5448 22.8209 31.5448H29.4771C29.9172 31.5448 30.2732 31.9115 30.2732 32.3641L30.2735 32.3644ZM30.2543 27.6274C29.6051 28.2956 29.2418 29.2012 29.2418 30.1459L29.2412 30.2357L29.2406 30.3268H23.3138C23.3135 30.3256 23.3132 30.3244 23.3126 30.3232C23.2922 30.2579 23.2734 30.1923 23.2557 30.1265C23.2501 30.1055 23.2448 30.0846 23.2394 30.0633C23.2271 30.0147 23.2156 29.9659 23.2046 29.917C23.1999 29.8954 23.1949 29.8739 23.1905 29.852C23.1778 29.7913 23.166 29.73 23.1557 29.6687C23.1545 29.6611 23.1527 29.6535 23.1516 29.6459C23.1403 29.5776 23.1306 29.5087 23.1221 29.4398C23.1194 29.4188 23.1173 29.3982 23.115 29.3772C23.1094 29.3268 23.1044 29.2761 23.1002 29.2255C23.0985 29.2033 23.0967 29.1808 23.0949 29.1587C23.0908 29.0995 23.0878 29.04 23.0855 28.9805C23.0852 28.9695 23.0843 28.9589 23.084 28.948C23.0819 28.8782 23.0817 28.8083 23.0822 28.7382C23.0822 28.7188 23.0831 28.6991 23.0834 28.6796C23.0846 28.6274 23.0864 28.5749 23.089 28.5227C23.0902 28.5008 23.0911 28.479 23.0926 28.4571C23.0961 28.3988 23.1008 28.3405 23.1061 28.2822C23.1073 28.2698 23.1082 28.2577 23.1094 28.2452C23.1165 28.1748 23.125 28.1044 23.1347 28.0342C23.1371 28.0172 23.14 28.0005 23.1424 27.9835C23.1507 27.9292 23.1595 27.8748 23.1692 27.8205C23.1728 27.8002 23.1766 27.7795 23.1805 27.7592C23.1914 27.7015 23.2035 27.6441 23.2161 27.5871C23.2191 27.5746 23.2215 27.5619 23.2244 27.5494C23.2406 27.4793 23.2583 27.4095 23.2772 27.34C23.2807 27.3269 23.2846 27.3138 23.2884 27.3008C23.3043 27.2443 23.3211 27.1879 23.3388 27.1317C23.3444 27.1135 23.3503 27.0953 23.3565 27.0771C23.3751 27.0203 23.3946 26.9638 23.4149 26.9077C23.4191 26.8961 23.4232 26.8843 23.4273 26.8727C23.453 26.8038 23.4798 26.7358 23.5081 26.6678C23.509 26.666 23.5096 26.6642 23.5102 26.6621C23.5117 26.6587 23.5134 26.6551 23.5149 26.6517C23.5538 26.5595 23.5948 26.4684 23.6388 26.3785C23.6403 26.3755 23.6417 26.3725 23.6429 26.3694C23.6857 26.2823 23.7311 26.1964 23.7786 26.1117C23.7854 26.0998 23.7919 26.0877 23.7984 26.0759C23.8444 25.9951 23.8927 25.9159 23.9429 25.8376C23.952 25.8236 23.9609 25.8093 23.9703 25.7954C24.021 25.7183 24.0735 25.6421 24.1284 25.5674C24.1319 25.5628 24.1349 25.5577 24.1384 25.5531C24.1437 25.5461 24.1496 25.5394 24.1546 25.5325C24.2142 25.4532 24.2756 25.3752 24.3399 25.2993C24.3455 25.2923 24.3517 25.286 24.3573 25.2793C24.4254 25.1994 24.4959 25.1214 24.569 25.0458C25.0902 24.5094 25.7394 24.0847 26.5091 23.834C26.5257 23.8285 26.5419 23.8218 26.5584 23.8161C26.7303 23.7563 26.8964 23.681 27.0548 23.5911C27.3356 23.4311 27.5933 23.2274 27.8216 22.9925L31.2597 19.4537C31.2857 19.427 31.3131 19.4027 31.3411 19.3793C31.3491 19.3726 31.3574 19.3666 31.3653 19.3605C31.3869 19.3438 31.409 19.328 31.4317 19.3131C31.4402 19.3074 31.4488 19.3019 31.4573 19.2964C31.4871 19.2782 31.5178 19.2612 31.5491 19.2464C31.5497 19.2464 31.5503 19.2457 31.5505 19.2454C31.5827 19.2303 31.6154 19.2175 31.6485 19.206C31.6579 19.2026 31.6673 19.1999 31.6768 19.1972C31.7016 19.1893 31.7266 19.1826 31.752 19.1768C31.762 19.1747 31.7717 19.1723 31.7818 19.1702C31.8136 19.1641 31.8455 19.1592 31.8779 19.1562C31.88 19.1562 31.8824 19.1556 31.8844 19.1553C31.9189 19.1525 31.9531 19.1519 31.9876 19.1529C31.9971 19.1529 32.0065 19.1541 32.016 19.1544C32.0419 19.1559 32.0679 19.1586 32.0935 19.1623C32.0994 19.1632 32.1053 19.1632 32.1109 19.1641C32.1148 19.1647 32.1186 19.1662 32.1224 19.1668C32.1546 19.1726 32.1867 19.1799 32.2183 19.1893C32.2204 19.1899 32.2227 19.1902 32.2248 19.1908C32.2578 19.2008 32.2903 19.2136 32.3224 19.2278C32.3318 19.2321 32.3413 19.2369 32.3507 19.2415C32.374 19.2527 32.397 19.2655 32.4194 19.2788C32.4289 19.2846 32.4383 19.2901 32.4475 19.2961C32.4769 19.3156 32.5059 19.3362 32.5333 19.3596C32.5339 19.3602 32.5345 19.3605 32.5351 19.3608C32.7766 19.5654 32.8896 19.8617 32.8742 20.1525C32.8621 20.3796 32.7719 20.6033 32.6032 20.777L29.2559 24.2222C29.155 24.3261 29.0981 24.4584 29.0857 24.5944C29.0846 24.6081 29.0843 24.6217 29.084 24.6354C29.084 24.6412 29.0831 24.6469 29.0831 24.653C29.0831 24.8087 29.1409 24.9648 29.2562 25.0835C29.2718 25.0996 29.2884 25.1144 29.3052 25.1284C29.3102 25.1327 29.3158 25.1363 29.3208 25.1402C29.3329 25.1494 29.345 25.1585 29.3574 25.1667C29.3639 25.1709 29.3706 25.1749 29.3774 25.1788C29.3892 25.1858 29.401 25.1925 29.4131 25.1985C29.4202 25.2022 29.4276 25.2055 29.4346 25.2089C29.4467 25.2143 29.4591 25.2195 29.4715 25.224C29.4789 25.2268 29.486 25.2295 29.4933 25.2319C29.5063 25.2362 29.5196 25.2398 29.5329 25.2432C29.5396 25.2447 29.5464 25.2468 29.5532 25.2483C29.5688 25.2517 29.5848 25.2541 29.6007 25.2562C29.6051 25.2568 29.6095 25.2577 29.614 25.2583C29.6349 25.2605 29.6559 25.2617 29.6768 25.2617C29.6777 25.2617 29.6786 25.2617 29.6794 25.2617C29.6992 25.2617 29.7187 25.2602 29.7384 25.258C29.742 25.2577 29.7452 25.2568 29.7488 25.2565C29.7768 25.2529 29.8048 25.2474 29.8325 25.2395C29.8349 25.2389 29.8372 25.2386 29.8396 25.2377C29.8673 25.2295 29.8945 25.2186 29.921 25.2061C29.926 25.204 29.9307 25.2016 29.9358 25.1991C29.9614 25.1861 29.9865 25.1712 30.0107 25.1542C30.0148 25.1512 30.0186 25.1481 30.0228 25.1451C30.0475 25.1266 30.0717 25.1066 30.0938 25.0835L30.6448 24.5164L31.1338 24.0131L33.4149 21.6652C33.4591 21.6197 33.5013 21.5723 33.5423 21.5235C33.6443 21.402 33.736 21.2709 33.8092 21.1288C33.8402 21.0687 33.8679 21.008 33.893 20.947C33.8997 20.93 33.905 20.9127 33.9115 20.8957C33.9283 20.8513 33.9455 20.8073 33.9593 20.7627C33.9664 20.7399 33.9711 20.7175 33.9773 20.6947C33.9882 20.6555 33.9997 20.6164 34.0083 20.5772C34.0139 20.5514 34.0174 20.5259 34.0221 20.5001C34.0289 20.4637 34.0363 20.4276 34.041 20.3911C34.0446 20.3638 34.046 20.3368 34.0487 20.3095C34.0519 20.2746 34.0561 20.24 34.0578 20.2053C34.0593 20.1771 34.0584 20.1492 34.0587 20.1213C34.059 20.0879 34.0602 20.0542 34.0587 20.0208C34.0575 19.9922 34.0546 19.9637 34.0525 19.9355C34.0502 19.903 34.0484 19.8705 34.0446 19.8383C34.041 19.8095 34.0357 19.7812 34.0313 19.7527C34.0263 19.7214 34.0221 19.6899 34.0156 19.6586C34.0098 19.6301 34.0021 19.6021 33.9953 19.5739C33.9879 19.5436 33.9811 19.5129 33.9726 19.4828C33.9643 19.4546 33.9546 19.4273 33.9452 19.3994C33.9354 19.3702 33.9263 19.3408 33.9154 19.3119C33.9048 19.2843 33.8927 19.2573 33.8812 19.2303C33.8694 19.2023 33.8579 19.1741 33.8449 19.1468C33.8322 19.1201 33.8177 19.0943 33.8042 19.0678C33.79 19.0411 33.7765 19.0141 33.7614 18.988C33.7467 18.9622 33.7301 18.9376 33.7142 18.9127C33.698 18.8872 33.6824 18.8614 33.6653 18.8365C33.6484 18.8122 33.6299 18.7889 33.6122 18.7652C33.5939 18.7412 33.5762 18.7169 33.557 18.6935C33.5381 18.6708 33.5181 18.6489 33.4983 18.6268C33.478 18.6043 33.4582 18.5812 33.437 18.5597C33.4163 18.5384 33.3945 18.5184 33.373 18.498C33.3458 18.4725 33.3193 18.4464 33.291 18.4221C33.2606 18.396 33.229 18.373 33.1978 18.3496C33.1417 18.3077 33.0848 18.2682 33.0255 18.2327L33.0651 15.8773L33.1105 13.1794C33.1105 13.0528 33.135 12.932 33.1786 12.8209C33.191 12.7899 33.2043 12.7593 33.2196 12.7301C33.2208 12.728 33.2214 12.7259 33.2226 12.7238C33.2656 12.6424 33.3196 12.568 33.3827 12.5027C33.5101 12.3719 33.6753 12.2787 33.8596 12.2417C33.9177 12.2298 33.9776 12.2235 34.0389 12.2235C34.2958 12.2222 34.528 12.3303 34.6952 12.5027C34.8639 12.6764 34.9689 12.915 34.9677 13.1794L35.813 21.5353C35.8345 21.7469 35.7614 21.9573 35.6157 22.1075L30.2543 27.6259V27.6274Z" fill="#FEF2F1"/>
<path d="M24.2965 33.7593C24.5605 33.4876 24.5605 33.0468 24.2965 32.7751C24.0325 32.5034 23.6043 32.5034 23.34 32.7751C23.076 33.0471 23.076 33.4876 23.34 33.7593C23.604 34.031 24.0322 34.031 24.2965 33.7593Z" fill="#FEF2F1"/>
<path d="M17.884 30.4618C18.0143 29.9758 18.0895 29.4676 18.1016 28.9409C18.1211 28.0627 17.968 27.1957 17.6633 26.3936C17.5212 26.019 17.3457 25.6584 17.1392 25.3175C16.8918 24.9086 16.5998 24.5279 16.2665 24.1851C15.5852 23.4839 14.7709 22.9757 13.8492 22.6743C13.554 22.5768 13.2705 22.3962 13.029 22.1475L9.57551 18.593C9.18442 18.1905 8.67064 17.9716 8.15302 17.9433L8.11851 15.8866L8.0728 13.1681C8.0728 13.1353 8.07191 13.1029 8.07044 13.0704C8.04507 12.5312 7.828 12.0279 7.45372 11.6424C7.05437 11.2313 6.52377 11.0048 5.96545 11.0064C5.40123 11.0039 4.86916 11.2289 4.46745 11.6424C4.08374 12.0373 3.86637 12.5543 3.84956 13.1077L3.01045 21.4108C2.95058 21.9867 3.14789 22.5589 3.54606 22.9684L8.78449 28.3602C9.29119 28.8817 9.57581 29.5882 9.57463 30.3252L9.57581 30.5751C8.96027 30.9209 8.54293 31.5914 8.54293 32.364V36.2055C8.54293 36.6435 8.8886 36.999 9.31508 37.0002H18.3859C18.8127 36.999 19.1581 36.6435 19.1581 36.2055V32.364C19.1581 31.8203 18.9525 31.3082 18.5782 30.9233C18.3774 30.7165 18.1409 30.5614 17.8837 30.4618H17.884ZM4.38399 22.1087C4.23829 21.9584 4.16514 21.748 4.18667 21.5365L5.03197 13.1806C5.03079 12.9159 5.13608 12.6772 5.30449 12.5039C5.47202 12.3315 5.70384 12.2234 5.96073 12.2246C6.02238 12.2246 6.08225 12.2313 6.14065 12.2428C6.23149 12.2613 6.31791 12.2932 6.39724 12.3366C6.39931 12.3375 6.40137 12.3385 6.40344 12.3397C6.48248 12.3837 6.55445 12.4392 6.61727 12.5036C6.66859 12.5564 6.71312 12.6159 6.75117 12.68C6.83847 12.826 6.88979 12.9972 6.88979 13.1803L6.93521 15.8781L6.97474 18.2336C6.91309 18.2706 6.85352 18.3122 6.79512 18.3562C6.76621 18.3781 6.73731 18.399 6.70929 18.423C6.68068 18.4473 6.65414 18.4734 6.627 18.4989C6.60547 18.5192 6.58365 18.5393 6.563 18.5605C6.54176 18.5821 6.522 18.6051 6.50165 18.6276C6.48189 18.6498 6.46184 18.6716 6.44296 18.6944C6.42379 18.7178 6.40609 18.7421 6.38781 18.766C6.36981 18.7897 6.35153 18.8131 6.33472 18.8374C6.31761 18.8623 6.30198 18.8881 6.28576 18.9133C6.26983 18.9385 6.25361 18.9631 6.23857 18.9886C6.22352 19.0147 6.20996 19.0417 6.1958 19.0684C6.18194 19.0945 6.16778 19.1206 6.1551 19.1473C6.14212 19.1749 6.13062 19.2032 6.11882 19.2311C6.10732 19.2581 6.09523 19.2851 6.08461 19.3125C6.07369 19.3413 6.06455 19.3708 6.05482 19.3999C6.04568 19.4278 6.03565 19.4551 6.02739 19.4834C6.01884 19.5131 6.01205 19.5438 6.00468 19.5741C5.9979 19.6024 5.98993 19.6303 5.98433 19.6592C5.97813 19.6901 5.97371 19.7217 5.9687 19.7533C5.96427 19.7818 5.95867 19.81 5.95542 19.8389C5.95159 19.871 5.95012 19.9035 5.94746 19.936C5.9454 19.9645 5.94215 19.9928 5.94127 20.0213C5.94009 20.0547 5.94127 20.0884 5.94127 20.1221C5.94127 20.15 5.94068 20.1777 5.94215 20.2059C5.94392 20.2408 5.94805 20.276 5.9513 20.3112C5.95395 20.3382 5.95513 20.365 5.95867 20.3917C5.96339 20.4284 5.97106 20.4654 5.97784 20.5022C5.98256 20.5274 5.9858 20.5529 5.99141 20.5781C5.99996 20.6175 6.01176 20.657 6.02267 20.6962C6.02886 20.7186 6.03358 20.7411 6.04066 20.7636C6.05482 20.8088 6.07193 20.8537 6.08903 20.8983C6.09523 20.9147 6.10024 20.9311 6.10673 20.9475C6.1318 21.0088 6.15952 21.0696 6.19049 21.1297C6.26305 21.2702 6.3533 21.4002 6.45417 21.5204C6.49634 21.5705 6.5394 21.6193 6.58483 21.6664L8.86589 24.0142L9.3549 24.5176L9.90585 25.0846C9.92826 25.1077 9.95215 25.1277 9.97693 25.1463C9.98105 25.1493 9.98489 25.1523 9.98902 25.1554C10.0132 25.1724 10.038 25.1872 10.0639 25.2003C10.0687 25.2027 10.0737 25.2048 10.0787 25.2073C10.1052 25.2197 10.1324 25.2307 10.1601 25.2388C10.1624 25.2395 10.1648 25.2401 10.1672 25.2407C10.1946 25.2486 10.2226 25.254 10.2509 25.2577C10.2545 25.258 10.2577 25.2589 10.2612 25.2592C10.2807 25.2613 10.3005 25.2625 10.3202 25.2628C10.3211 25.2628 10.322 25.2628 10.3229 25.2628C10.3438 25.2628 10.3648 25.2619 10.3857 25.2595C10.3901 25.2589 10.3946 25.258 10.399 25.2574C10.4149 25.2552 10.4308 25.2528 10.4465 25.2495C10.4533 25.248 10.46 25.2461 10.4665 25.2443C10.4798 25.241 10.4931 25.2373 10.5063 25.2331C10.5137 25.2307 10.5208 25.2279 10.5282 25.2252C10.5406 25.2206 10.5529 25.2155 10.565 25.21C10.5724 25.2067 10.5795 25.2033 10.5866 25.1997C10.5987 25.1936 10.6105 25.1869 10.6223 25.18C10.629 25.176 10.6355 25.1721 10.642 25.1678C10.6547 25.1596 10.6668 25.1505 10.6789 25.1414C10.6842 25.1375 10.6895 25.1338 10.6945 25.1296C10.7113 25.1156 10.7278 25.1007 10.7435 25.0846C10.8588 24.9659 10.9166 24.8099 10.9166 24.6542C10.9166 24.6484 10.916 24.6423 10.9157 24.6366C10.9154 24.6229 10.9151 24.6092 10.9139 24.5956C10.9013 24.4596 10.8446 24.3272 10.7435 24.2234L7.3962 20.7781C7.2275 20.6045 7.13725 20.3814 7.12515 20.1543C7.10952 19.8632 7.22249 19.5666 7.46434 19.3616C7.46493 19.3613 7.46552 19.3607 7.4661 19.3604C7.49383 19.3371 7.52273 19.3164 7.55193 19.2967C7.56108 19.2906 7.57051 19.2851 7.57995 19.2794C7.60237 19.2657 7.62537 19.2533 7.64867 19.2417C7.65811 19.2372 7.66725 19.2323 7.67669 19.2281C7.70884 19.2138 7.74128 19.2011 7.77432 19.191C7.77638 19.1904 7.77874 19.1901 7.78081 19.1895C7.81236 19.1801 7.84451 19.1728 7.87666 19.1671C7.8805 19.1664 7.88433 19.1649 7.88816 19.1643C7.89406 19.1634 7.89996 19.1634 7.90557 19.1625C7.93122 19.1586 7.95718 19.1561 7.98313 19.1546C7.99257 19.154 8.00201 19.1531 8.01145 19.1531C8.04596 19.1522 8.08017 19.1525 8.11468 19.1555C8.11674 19.1555 8.1191 19.1561 8.12117 19.1564C8.15331 19.1592 8.18546 19.1643 8.21732 19.1704C8.22734 19.1725 8.23737 19.1746 8.24711 19.1771C8.27247 19.1828 8.29725 19.1895 8.32231 19.1974C8.33175 19.2004 8.34119 19.2032 8.35063 19.2062C8.38366 19.2178 8.4167 19.2305 8.44855 19.2457C8.44914 19.2457 8.44973 19.2463 8.45032 19.2466C8.48158 19.2615 8.51196 19.2785 8.54175 19.2967C8.5506 19.3018 8.55886 19.3076 8.56741 19.3134C8.59012 19.3283 8.61195 19.3437 8.63348 19.3607C8.64144 19.3668 8.6497 19.3732 8.65766 19.3796C8.68568 19.4029 8.71311 19.4272 8.73906 19.4539L12.1772 22.9927C12.4063 23.2286 12.6653 23.4332 12.9473 23.5935C13.093 23.676 13.2452 23.7456 13.4026 23.8026C13.4316 23.8133 13.4605 23.8248 13.4897 23.8342C14.2594 24.0853 14.9086 24.5097 15.4298 25.0461C15.5032 25.1214 15.5734 25.1997 15.6415 25.2792C15.6474 25.2862 15.6533 25.2926 15.6592 25.2996C15.7235 25.3755 15.7849 25.4535 15.8442 25.5327C15.8495 25.5397 15.8554 25.5464 15.8604 25.5534C15.8639 25.5579 15.8669 25.5631 15.8704 25.5676C15.9253 25.6423 15.9778 25.7182 16.0285 25.7956C16.0376 25.8096 16.0468 25.8235 16.0559 25.8378C16.1061 25.9161 16.1544 25.9954 16.2004 26.0758C16.2072 26.0876 16.2137 26.0998 16.2205 26.1116C16.268 26.1963 16.3134 26.2819 16.3562 26.3691C16.3576 26.3721 16.3591 26.3751 16.3606 26.3782C16.4045 26.468 16.4455 26.5591 16.4845 26.6514C16.4859 26.655 16.4877 26.6584 16.4892 26.662C16.4901 26.6638 16.4907 26.666 16.4916 26.6678C16.5199 26.7355 16.5467 26.8038 16.5721 26.8724C16.5765 26.8839 16.5803 26.8958 16.5845 26.9073C16.6048 26.9635 16.6243 27.0199 16.6429 27.0764C16.6488 27.0946 16.6547 27.1131 16.6606 27.1313C16.6782 27.1875 16.6951 27.2437 16.711 27.3004C16.7145 27.3135 16.7187 27.3265 16.7222 27.3396C16.7411 27.4091 16.7588 27.4789 16.775 27.549C16.7779 27.5615 16.7803 27.5742 16.7832 27.5867C16.7962 27.6441 16.808 27.7014 16.8189 27.7588C16.8228 27.7792 16.8266 27.7998 16.8301 27.8201C16.8399 27.8742 16.8487 27.9285 16.857 27.9832C16.8596 28.0002 16.8623 28.0172 16.8646 28.0339C16.8744 28.104 16.8829 28.1744 16.89 28.2448C16.8912 28.2573 16.8921 28.2694 16.8933 28.2819C16.8989 28.3402 16.9033 28.3981 16.9068 28.4564C16.9083 28.4783 16.9092 28.5005 16.9104 28.5223C16.913 28.5745 16.9148 28.6267 16.916 28.6793C16.9163 28.6987 16.9171 28.7184 16.9171 28.7378C16.9177 28.8077 16.9171 28.8778 16.9154 28.9473C16.9151 28.9585 16.9142 28.9695 16.9139 28.9807C16.9118 29.0399 16.9086 29.0991 16.9048 29.1583C16.9033 29.1805 16.9012 29.2029 16.8995 29.2251C16.8953 29.2758 16.8903 29.3262 16.8847 29.3769C16.8823 29.3978 16.8803 29.4185 16.8776 29.4394C16.8691 29.5083 16.8596 29.5769 16.8481 29.6455C16.847 29.6531 16.8452 29.6607 16.844 29.6683C16.8337 29.7296 16.8219 29.7906 16.8092 29.8517C16.8048 29.8735 16.7998 29.8951 16.795 29.9166C16.7841 29.9655 16.7726 30.0144 16.7602 30.063C16.7549 30.0842 16.7496 30.1051 16.744 30.1264C16.7263 30.192 16.7077 30.2572 16.6874 30.3222C16.6868 30.3237 16.6865 30.3252 16.6862 30.3268H10.7594L10.7588 30.249L10.7579 30.1458C10.7579 29.2011 10.3946 28.2955 9.7454 27.6274L4.38399 22.109V22.1087ZM17.9748 35.7823H9.72623V32.364C9.72623 31.9111 10.0825 31.5447 10.5223 31.5447H17.1785C17.2242 31.5447 17.269 31.5496 17.3127 31.5571C17.479 31.5863 17.628 31.6676 17.7415 31.7845C17.8848 31.9321 17.9745 32.1376 17.9745 32.364V35.7823H17.9748Z" fill="#FEF2F1"/>
<path d="M16.6597 33.7593C16.9239 33.4876 16.9239 33.0468 16.6597 32.7751C16.3957 32.5034 15.9674 32.5034 15.7035 32.7751C15.4395 33.0471 15.4395 33.4876 15.7035 33.7593C15.9674 34.031 16.3957 34.031 16.6597 33.7593Z" fill="#FEF2F1"/>
<path d="M24.3443 21.0508C24.9082 20.4703 25.3512 19.7943 25.6606 19.0411C25.9815 18.2609 26.144 17.4325 26.144 16.5788C26.144 15.7252 25.9815 14.897 25.6606 14.1171C25.3515 13.3643 24.9085 12.6879 24.3443 12.1072C23.7801 11.5264 23.1229 11.0705 22.3915 10.7523C21.6332 10.4223 20.8283 10.2548 19.9998 10.2548C19.1713 10.2548 18.3665 10.422 17.6082 10.7523C16.8767 11.0708 16.2196 11.5264 15.6554 12.1072C15.0912 12.6879 14.6482 13.3643 14.3391 14.1171C14.0182 14.8973 13.8557 15.7255 13.8557 16.5791C13.8557 17.4328 14.0185 18.2609 14.3391 19.0411C14.6484 19.7946 15.0914 20.4706 15.6554 21.0508C16.2196 21.6315 16.8767 22.0875 17.6079 22.4056C18.3656 22.7359 19.1705 22.9032 19.9998 22.9032C20.8292 22.9032 21.6341 22.7356 22.3915 22.4056C23.1229 22.0872 23.7801 21.6315 24.3443 21.0508ZM19.9998 21.8024C19.3144 21.8024 18.6499 21.6643 18.0243 21.3917C17.4203 21.1288 16.8776 20.7524 16.411 20.2721C15.945 19.7928 15.579 19.2342 15.3233 18.6119C15.0587 17.968 14.9245 17.2837 14.9245 16.5785C14.9245 15.8733 15.0587 15.1891 15.3236 14.5452C15.579 13.9235 15.945 13.3649 16.4113 12.8849C16.8776 12.405 17.4203 12.0282 18.0246 11.7653C18.6505 11.493 19.3153 11.3549 20.0001 11.3549C20.685 11.3549 21.3495 11.493 21.9756 11.7653C22.5797 12.0282 23.1224 12.405 23.5887 12.8849C24.055 13.3649 24.421 13.9235 24.6764 14.5455C24.941 15.1891 25.0752 15.873 25.0752 16.5785C25.0752 17.284 24.941 17.968 24.6761 18.6119C24.4207 19.2339 24.0547 19.7925 23.5884 20.2721C23.1221 20.7521 22.5794 21.1288 21.975 21.3917C21.3498 21.664 20.6853 21.8021 19.9998 21.8021V21.8024Z" fill="#FEF2F1"/>
<path d="M19.4837 15.2859C19.4837 14.8897 19.7075 14.7185 20.1196 14.7185C20.3464 14.7185 20.5357 14.7801 20.723 14.8997C20.9301 15.0315 21.199 14.9914 21.3589 14.8029C21.5527 14.5743 21.512 14.2219 21.2692 14.0494C21.0262 13.8767 20.7463 13.7522 20.4119 13.7V13.2383C20.4119 13.0006 20.2246 12.8081 19.9939 12.8081C19.7633 12.8081 19.576 13.0006 19.576 13.2383V13.7185C18.7687 13.8837 18.2774 14.4829 18.2774 15.3472C18.2774 16.9388 20.5396 16.9225 20.5396 17.8298C20.5396 18.2312 20.326 18.4388 19.8403 18.4388C19.5636 18.4388 19.2982 18.3571 19.0192 18.1959C18.7823 18.0593 18.4832 18.1361 18.3361 18.3711C18.173 18.6313 18.2615 18.9783 18.5263 19.1252C18.8622 19.3113 19.2404 19.4269 19.5763 19.4679V19.9196C19.5763 20.1573 19.7636 20.3498 19.9942 20.3498C20.2249 20.3498 20.4122 20.1573 20.4122 19.9196V19.4272C21.2917 19.2354 21.7459 18.5857 21.7459 17.7403C21.7459 16.0542 19.4837 16.1277 19.4837 15.2865V15.2859Z" fill="#FEF2F1"/>
<path d="M16.3753 6.03707V9.27257C16.3753 9.57645 16.6148 9.82295 16.9101 9.82295C17.2053 9.82295 17.4445 9.57645 17.4445 9.27257V6.03707C17.4445 5.7332 17.205 5.48669 16.9101 5.48669C16.6151 5.48669 16.3753 5.7332 16.3753 6.03707Z" fill="#FEF2F1"/>
<path d="M19.9998 8.92049C20.2951 8.92049 20.5343 8.67399 20.5343 8.37011V3.55026C20.5343 3.24638 20.2948 2.99988 19.9998 2.99988C19.7049 2.99988 19.4651 3.24638 19.4651 3.55026V8.37041C19.4651 8.67429 19.7046 8.92079 19.9998 8.92079V8.92049Z" fill="#FEF2F1"/>
<path d="M23.0899 9.82305C23.3852 9.82305 23.6244 9.57655 23.6244 9.27267V6.3453C23.6244 6.04142 23.3849 5.79492 23.0899 5.79492C22.795 5.79492 22.5552 6.04142 22.5552 6.3453V9.27267C22.5552 9.57655 22.7947 9.82305 23.0899 9.82305Z" fill="#FEF2F1"/>
</svg>
