<svg width="40" height="40" viewBox="0 0 40 40" fill="none" xmlns="http://www.w3.org/2000/svg">
<rect x="0.833333" y="0.833333" width="38.3333" height="38.3333" rx="14.1667" stroke="none" stroke-width="1.66667"/>
<g clip-path="url(#clip0_202_36)">
<path d="M23.4498 15.152C23.4498 12.833 21.6796 10.9537 19.4993 10.9537C17.3189 10.9537 15.5488 12.833 15.5488 15.152C15.5488 16.7267 16.3647 18.0966 17.5709 18.8155L17.6528 16.0296C17.6528 14.8899 18.5226 13.9652 19.5961 13.9652H19.7064C20.5518 13.9652 21.237 14.6936 21.237 15.5924V18.9195C22.545 18.2362 23.4493 16.8074 23.4493 15.1526L23.4498 15.152Z" fill="#B65C57"/>
<path d="M21.2374 15.5918C21.2374 14.6931 20.5522 13.9646 19.7068 13.9646H19.5966C18.5231 13.9646 17.6532 14.8894 17.6532 16.029L17.5714 18.815L17.3892 24.953C17.3478 25.1424 17.3244 29.4102 17.3244 29.4102C16.985 29.0425 16.6072 28.6218 16.2679 28.2191C15.4754 27.2795 14.0197 26.646 13.052 26.5293C12.542 26.4672 12.1532 26.5415 11.8937 26.7484C11.8108 26.8158 11.7295 26.8906 11.6536 26.9717C11.1541 27.4949 10.7773 28.3395 11.1261 28.9581C11.2769 29.2287 11.5359 29.4081 11.8113 29.5964C12.1762 29.8479 12.7905 30.1201 13.2521 30.7467C14.0256 31.7987 15.8162 34.1502 16.9166 35.4049C17.1457 35.5562 17.6303 36.0703 17.8589 36.2003C18.5535 36.6719 19.121 37.116 19.3176 37.3563C19.4713 37.5436 20.3806 38.0386 20.3806 38.0386C21.1157 38.5336 22.4536 38.9963 23.9992 38.9963C25.5448 38.9963 26.9431 39.0944 27.9786 38.1262H28.034L28.0615 38.053C29.115 37.0269 29.7702 35.6055 29.7702 34.0335V26.5186C29.7702 26.1504 29.6939 24.9158 28.7177 24.545C28.2486 24.3678 27.805 24.4346 27.4267 24.6081L27.3383 24.6124L27.3109 24.6145C27.1412 23.9364 26.717 23.4987 26.0897 23.3825C25.3322 23.243 24.8072 23.4839 24.4913 23.7274C24.1774 23.0101 23.548 22.636 22.6962 22.7124C22.0574 22.7697 21.5823 23.1034 21.2374 23.5428V15.5913V15.5918Z" fill="#FDEBEA"/>
<path d="M28.3141 22.1246L29.0981 23.052C29.2488 23.2324 29.5223 23.2212 29.655 23.026C31.1666 20.7961 31.9996 18.112 31.9996 15.2889C32.0001 7.96081 26.3922 2 19.4998 2C19.0267 2 18.5471 2.02812 18.073 2.08436C12.321 2.76559 7.69524 7.70137 7.07442 13.8213C6.73606 17.1517 7.56499 20.4003 9.34361 23.026C9.47536 23.2223 9.74884 23.2324 9.90155 23.053L10.6846 22.1262C10.7958 21.9951 10.8043 21.8004 10.71 21.655C9.4549 19.7052 8.79615 17.3771 8.86202 14.9562C9.02122 9.07976 13.4713 4.26177 18.9923 3.988C25.0967 3.6686 30.1421 8.87072 30.1421 15.2883C30.1421 17.5846 29.4833 19.7928 28.2876 21.6529C28.1943 21.7993 28.2028 21.9925 28.3146 22.124L28.3141 22.1246Z" fill="white"/>
<path d="M24.8002 17.9671L25.6301 18.9487C25.7998 19.1508 26.1082 19.1046 26.222 18.8638C26.746 17.7629 27.022 16.5516 27.022 15.2894C27.022 11.5246 24.5078 8.23352 21.0418 7.46209C20.0308 7.23448 18.9688 7.23448 17.9547 7.46209C14.4908 8.23352 11.9766 11.5246 11.9766 15.2894C11.9766 16.5527 12.2525 17.7629 12.7755 18.8638C12.8913 19.1052 13.1977 19.1513 13.3684 18.9487L14.1978 17.9671C14.2912 17.8568 14.3126 17.7008 14.2602 17.5644C13.9813 16.8439 13.8345 16.0714 13.8345 15.2889C13.8345 12.7714 15.3317 10.4974 17.559 9.63048C18.8031 9.14767 20.1959 9.14767 21.4391 9.63048C23.6669 10.4969 25.163 12.7714 25.163 15.2889C25.163 16.0714 25.0163 16.8439 24.7388 17.5644C24.6859 17.7013 24.7074 17.8578 24.8002 17.9671Z" fill="#FBD6D4"/>
</g>
<defs>
<clipPath id="clip0_202_36">
<rect width="25" height="37" fill="white" transform="translate(7 2)"/>
</clipPath>
</defs>
</svg>
