<svg width="40" height="40" viewBox="0 0 40 40" fill="none" xmlns="http://www.w3.org/2000/svg">
<g clip-path="url(#clip0_202_15)">
<path d="M21.0784 6.64832H18.052C17.6189 6.64832 17.2693 6.30034 17.2693 5.86927V4.28001C17.2693 3.02315 18.2973 2 19.5652 2C20.8332 2 21.8611 3.02315 21.8611 4.28001V5.86927C21.8611 6.30034 21.5115 6.64832 21.0784 6.64832ZM18.8347 5.09022H20.2957V4.28001C20.2957 3.8801 19.967 3.55809 19.5652 3.55809C19.1634 3.55809 18.8347 3.8801 18.8347 4.28001V5.09022Z" fill="#FEF2F1"/>
<path d="M19.5652 35.2394C19.1321 35.2394 18.7825 34.8914 18.7825 34.4603V28.15C18.7825 27.7189 19.1321 27.371 19.5652 27.371C19.9983 27.371 20.3479 27.7189 20.3479 28.15V34.4603C20.3479 34.8914 19.9983 35.2394 19.5652 35.2394Z" fill="#FEF2F1"/>
<path d="M11.3782 37C11.1121 37 10.8564 36.8701 10.7103 36.626C10.4859 36.2573 10.6007 35.7795 10.9712 35.5562L19.0956 30.617C19.3461 30.4664 19.6591 30.4664 19.9096 30.617L28.034 35.5562C28.4045 35.7795 28.5193 36.2625 28.2949 36.626C28.0705 36.9948 27.5905 37.1091 27.22 36.8857L19.5026 32.1959L11.7852 36.8857C11.66 36.9636 11.5191 37 11.3782 37Z" fill="#FEF2F1"/>
<path d="M29.8238 28.929H9.3119C8.28396 28.929 7.44386 28.0928 7.44386 27.0645V8.31542C7.44386 7.88435 7.79347 7.53638 8.22656 7.53638H30.9091C31.3422 7.53638 31.6918 7.88435 31.6918 8.31542V27.0645C31.6918 28.0928 30.8517 28.929 29.8238 28.929ZM9.00926 9.09447V27.0645C9.00926 27.2359 9.14492 27.3709 9.3119 27.3709H29.8238C29.9907 27.3709 30.1264 27.2359 30.1264 27.0645V9.09447H9.00926Z" fill="#FEF2F1"/>
<path d="M32.9911 9.09451H6.00892C4.90271 9.09451 4 8.19601 4 7.08976C4 6.54963 4.21394 6.04584 4.59485 5.6719C4.97054 5.29796 5.47147 5.09021 6.0037 5.09021H32.9859C34.0921 5.09021 34.9948 5.98871 34.9948 7.08976C34.9948 7.6299 34.7808 8.13888 34.3947 8.51282C34.0295 8.88157 33.5233 9.09451 32.9859 9.09451H32.9911ZM6.00892 6.6483C5.85238 6.6483 5.74802 6.7314 5.69584 6.77815C5.60714 6.86644 5.56539 6.97031 5.56539 7.08976C5.56539 7.33387 5.76889 7.53642 6.00892 7.53642H32.9911C33.1059 7.53642 33.2155 7.48968 33.2937 7.41177C33.3668 7.34425 33.4346 7.24557 33.4346 7.08976C33.4346 6.85086 33.2311 6.6483 32.9911 6.6483H6.00892Z" fill="#FEF2F1"/>
<path d="M11.7591 24.3119C11.5608 24.3119 11.3573 24.234 11.206 24.0834C10.8982 23.777 10.8982 23.2836 11.206 22.9823L16.6484 17.5654C16.7945 17.4199 16.9928 17.3368 17.2015 17.3368C17.4102 17.3368 17.6085 17.4199 17.7546 17.5654L19.3513 19.1546L23.4474 15.0776C23.7553 14.7712 24.251 14.7712 24.5536 15.0776C24.8563 15.384 24.8615 15.8774 24.5536 16.1787L19.9044 20.8062C19.7583 20.9516 19.56 21.0347 19.3513 21.0347C19.1426 21.0347 18.9443 20.9516 18.7982 20.8062L17.2015 19.2169L12.3122 24.0834C12.1609 24.234 11.9574 24.3119 11.7591 24.3119Z" fill="#FBD6D4"/>
<path d="M27.7157 11.9303L26.933 14.8387L26.1503 17.7472L24.0109 15.6178L21.8716 13.4884L24.7936 12.7093L27.7157 11.9303Z" fill="#FBD6D4"/>
<path d="M26.1503 18.5262C25.9468 18.5262 25.7433 18.4483 25.5972 18.2977L21.3185 14.0389C21.1202 13.8415 21.0419 13.5559 21.115 13.2858C21.188 13.0157 21.3967 12.808 21.6681 12.7353L27.5122 11.1772C27.7835 11.1045 28.0705 11.1772 28.2688 11.3797C28.4671 11.5771 28.5454 11.8627 28.4723 12.1328L26.9069 17.9497C26.8339 18.2198 26.6252 18.4275 26.3538 18.5002C26.286 18.5158 26.2181 18.5262 26.1503 18.5262ZM23.3848 13.8935L25.7433 16.241L26.6095 13.0313L23.3848 13.8935Z" fill="#FBD6D4"/>
</g>
<defs>
<clipPath id="clip0_202_15">
<rect width="31" height="35" fill="white" transform="translate(4 2)"/>
</clipPath>
</defs>
</svg>
