<svg width="30" height="29" viewBox="0 0 30 29" fill="none" xmlns="http://www.w3.org/2000/svg">
<g id="Password 5">
<g id="Vector" filter="url(#filter0_b_1252_137)">
<path fill-rule="evenodd" clip-rule="evenodd" d="M15.2198 27.9424C22.5836 27.9424 28.5531 21.9729 28.5531 14.6091C28.5531 7.24529 22.5836 1.27576 15.2198 1.27576C7.85601 1.27576 1.88647 7.24529 1.88647 14.6091C1.88647 21.9729 7.85601 27.9424 15.2198 27.9424Z" fill=""/>
<path d="M15.2198 28.4424C22.8597 28.4424 29.0531 22.249 29.0531 14.6091C29.0531 6.96915 22.8597 0.775757 15.2198 0.775757C7.57987 0.775757 1.38647 6.96915 1.38647 14.6091C1.38647 22.249 7.57987 28.4424 15.2198 28.4424Z" stroke="url(#paint0_linear_1252_137)" stroke-linecap="round"/>
</g>
<path id="Vector_2" fill-rule="evenodd" clip-rule="evenodd" d="M7.55322 14.609C7.55322 12.584 9.19485 10.9424 11.2199 10.9424C12.8983 10.9424 14.3132 12.07 14.7485 13.609H17.8649C17.8788 13.6088 17.8928 13.6088 17.9067 13.609L21.7292 13.6091C22.2044 13.6091 22.6388 13.8775 22.8514 14.3026C23.3675 15.3349 23.3675 16.5499 22.8514 17.5822L22.781 17.7229C22.534 18.2169 21.9333 18.4171 21.4393 18.1701C20.9454 17.9231 20.7451 17.3225 20.9921 16.8285L21.0625 16.6877C21.2311 16.3505 21.2786 15.9704 21.2048 15.6091H19.2233C19.2845 16.28 19.1605 16.9639 18.8514 17.5822L18.781 17.7229C18.534 18.2169 17.9333 18.4171 17.4393 18.1701C16.9454 17.9231 16.7451 17.3225 16.9921 16.8285L17.0625 16.6877C17.2311 16.3505 17.2785 15.9704 17.2048 15.609H14.7485C14.3132 17.1481 12.8983 18.2757 11.2199 18.2757C9.19485 18.2757 7.55322 16.6341 7.55322 14.609ZM9.55322 14.609C9.55322 13.6886 10.2994 12.9424 11.2199 12.9424C12.1404 12.9424 12.8866 13.6886 12.8866 14.609C12.8866 15.5295 12.1404 16.2757 11.2199 16.2757C10.2994 16.2757 9.55322 15.5295 9.55322 14.609Z" fill="url(#paint1_linear_1252_137)"/>
</g>
<defs>
<filter id="filter0_b_1252_137" x="-23.1135" y="-23.7242" width="76.6667" height="76.6666" filterUnits="userSpaceOnUse" color-interpolation-filters="sRGB">
<feFlood flood-opacity="0" result="BackgroundImageFix"/>
<feGaussianBlur in="BackgroundImageFix" stdDeviation="12"/>
<feComposite in2="SourceAlpha" operator="in" result="effect1_backgroundBlur_1252_137"/>
<feBlend mode="normal" in="SourceGraphic" in2="effect1_backgroundBlur_1252_137" result="shape"/>
</filter>
<linearGradient id="paint0_linear_1252_137" x1="1.88647" y1="1.27576" x2="28.5667" y2="27.9289" gradientUnits="userSpaceOnUse">
<stop stop-color="white" stop-opacity="0.25"/>
<stop offset="1" stop-color="white" stop-opacity="0"/>
</linearGradient>
<linearGradient id="paint1_linear_1252_137" x1="15.5279" y1="19.8383" x2="23.3953" y2="3.34378" gradientUnits="userSpaceOnUse">
<stop stop-color="white"/>
<stop offset="1" stop-color="white" stop-opacity="0.2"/>
</linearGradient>
</defs>
</svg>
