<svg width="151" height="23" viewBox="0 0 151 23" fill="none" xmlns="http://www.w3.org/2000/svg">
<g clip-path="url(#clip0_218_633)">
<path fill-rule="evenodd" clip-rule="evenodd" d="M7.4633 4.25831C8.20746 4.91764 9.33816 4.8885 10.0209 4.16725C10.6748 3.44599 10.6459 2.27669 9.9306 1.58822C8.83242 0.568261 7.4055 0 5.91718 0C2.67682 0 0 2.6701 0 5.96674V20.9309C0 21.9181 0.805574 22.7596 1.81344 22.7596C2.82132 22.7596 3.65579 21.9218 3.65579 20.9309V13.3141H6.48072C7.4633 13.3141 8.29416 12.4762 8.29416 11.4854C8.29416 10.4946 7.4633 9.68594 6.48072 9.68594H3.65579V5.96674C3.65579 4.67723 4.66727 3.62813 5.91718 3.62813C6.51323 3.62813 7.04787 3.86855 7.4633 4.25831ZM10.2629 15.3248C10.2629 19.4921 13.6225 22.8506 17.7262 22.8506C21.83 22.8506 25.1895 19.4921 25.2184 15.354C25.1895 11.1867 21.83 7.79901 17.7262 7.79901C13.6225 7.79901 10.2629 11.1576 10.2629 15.3248ZM13.9187 15.3248C13.9187 13.1938 15.6166 11.4854 17.7262 11.4854C19.8395 11.4854 21.5338 13.1938 21.5338 15.3248C21.5338 17.4558 19.8395 19.1642 17.7262 19.1642C15.613 19.1642 13.9187 17.4558 13.9187 15.3248ZM34.4663 22.8506C30.3626 22.8506 27.003 19.4921 27.003 15.3248C27.003 11.1576 30.3626 7.79901 34.4663 7.79901C38.57 7.79901 41.9296 11.1867 41.9585 15.354C41.9296 19.4921 38.57 22.8506 34.4663 22.8506ZM34.4663 11.4854C32.3566 11.4854 30.6588 13.1938 30.6588 15.3248C30.6588 17.4558 32.353 19.1642 34.4663 19.1642C36.5796 19.1642 38.2738 17.4558 38.2738 15.3248C38.2738 13.1938 36.5796 11.4854 34.4663 11.4854ZM58.4637 21.0512V1.97799H58.4673C58.4673 0.990816 57.6365 0.149353 56.6539 0.149353C55.6713 0.149353 54.8693 0.987174 54.8693 1.97799V8.99383C53.6483 8.21429 52.2214 7.73345 50.6753 7.73345C46.539 7.73345 43.1506 11.1212 43.1506 15.3212C43.1506 19.5212 46.5427 22.9089 50.6753 22.9089C52.2503 22.9089 53.7386 22.4281 54.9271 21.5903C55.1619 22.3407 55.8483 22.8507 56.6503 22.8507C57.6618 22.8507 58.4637 22.042 58.4637 21.0512ZM50.6717 11.3616C52.8428 11.3616 54.5984 13.1319 54.5984 15.3212C54.5984 17.5105 52.8428 19.2808 50.6717 19.2808C48.5006 19.2808 46.7449 17.5105 46.7449 15.3212C46.7449 13.1319 48.5006 11.3616 50.6717 11.3616ZM62.8637 5.30744C61.8233 5.30744 60.9888 4.46962 60.9888 3.47881V3.32946C60.9888 2.28036 61.8197 1.47168 62.8637 1.47168C63.8463 1.47168 64.6771 2.28036 64.6771 3.32946V3.47881C64.6771 4.46962 63.8427 5.30744 62.8637 5.30744ZM62.8637 22.909C61.8233 22.909 60.9888 22.0675 60.9888 21.0512V9.47469C60.9888 8.45473 61.8197 7.64605 62.8637 7.64605C63.8463 7.64605 64.6771 8.45473 64.6771 9.47469V21.0512C64.6771 22.0711 63.8427 22.909 62.8637 22.909ZM70.2692 16.403H79.4267H79.4303C80.142 16.403 80.6477 15.8931 80.8862 15.3248L80.8909 15.3129C81.0085 15.0146 81.1246 14.7202 81.1246 14.4542C81.186 13.4634 80.6514 12.356 80.1745 11.5145C79.1016 9.71505 77.3785 8.45468 75.3555 8.06491C74.9112 7.97384 74.4921 7.9447 74.0478 7.9447C69.9152 7.9447 66.6134 11.3033 66.6134 15.4705C66.6134 19.6378 69.9152 22.9963 74.0478 22.9963C75.742 22.9963 78.0323 22.4572 79.6688 20.869C80.3804 20.1769 80.4129 19.0076 79.6977 18.3191C79.0113 17.6015 77.8842 17.6015 77.169 18.29C76.3959 19.0404 74.9979 19.4301 74.0478 19.4301C72.2019 19.4301 70.6846 18.1115 70.2692 16.403ZM77.075 13.376H70.7713H70.7677C71.483 12.2649 72.7004 11.5765 74.0406 11.5765C75.3808 11.5765 76.479 12.2358 77.075 13.376ZM102.684 13.733V21.1094C102.684 22.1294 101.911 22.9089 100.928 22.9089C99.9454 22.9089 99.1145 22.1294 99.1145 21.1094V13.6419C99.1145 12.4726 98.0741 11.5728 96.8531 11.5728C95.5454 11.5728 94.505 12.4726 94.505 13.6419V21.1094C94.505 22.1294 93.7031 22.9089 92.7494 22.9089C91.7379 22.9089 90.9649 22.1294 90.9649 21.1094V13.6419C90.9649 12.4726 89.9245 11.5728 88.6457 11.5728C87.3669 11.5728 86.3265 12.4726 86.3265 13.6419V21.1968C86.3265 22.1549 85.5534 22.9672 84.5419 22.9672C83.5919 22.9672 82.7574 22.1585 82.7574 21.1968V9.74056C82.7574 8.74975 83.5882 7.91193 84.5419 7.91193C85.1055 7.91193 85.6437 8.21063 85.911 8.63318C86.7455 8.21427 87.6667 7.97385 88.6457 7.97385C90.2207 7.97385 91.6476 8.5749 92.7494 9.59485C93.7898 8.5749 95.2167 7.97385 96.8531 7.97385C100.036 7.97385 102.68 10.5237 102.68 13.6419V13.733H102.684ZM108.124 16.403H117.281H117.285C117.997 16.403 118.502 15.8931 118.741 15.3248L118.746 15.3129C118.863 15.0146 118.979 14.7202 118.979 14.4542C119.041 13.4634 118.506 12.356 118.029 11.5145C116.956 9.71505 115.233 8.45468 113.21 8.06491C112.766 7.97384 112.347 7.9447 111.903 7.9447C107.77 7.9447 104.468 11.3033 104.468 15.4705C104.468 19.6378 107.77 22.9963 111.903 22.9963C113.597 22.9963 115.887 22.4572 117.523 20.869C118.235 20.1769 118.268 19.0076 117.552 18.3191C116.866 17.6015 115.739 17.6015 115.024 18.29C114.251 19.0404 112.853 19.4301 111.903 19.4301C110.057 19.4301 108.539 18.1115 108.124 16.403ZM114.93 13.376H108.626H108.622C109.338 12.2649 110.555 11.5765 111.895 11.5765C113.236 11.5765 114.334 12.2358 114.93 13.376ZM134.646 15.3831V21.0512C134.646 22.042 133.873 22.8507 132.891 22.8507C131.908 22.8507 131.106 22.042 131.106 21.0512V15.3831C131.106 13.2558 129.56 11.5437 127.685 11.5437C125.366 11.5437 124.178 13.8823 124.178 15.9514V21.0475C124.178 22.0383 123.376 22.847 122.393 22.847C121.41 22.847 120.609 22.0383 120.609 21.0475V9.59124C120.609 8.60043 121.41 7.79175 122.393 7.79175C123.166 7.79175 123.82 8.30173 124.058 9.02298C125.128 8.33451 126.349 7.94474 127.685 7.94474C131.522 7.94474 134.643 11.2742 134.643 15.3831H134.646ZM136.875 15.4742C136.875 19.6123 140.058 23 143.923 23C147.817 23 151 19.6123 151 15.4742V9.98828C151 8.96832 150.227 8.18878 149.306 8.18878C148.504 8.18878 147.463 8.96832 147.463 9.98828V15.4742C147.463 17.6343 145.946 19.3719 143.923 19.3719C142.2 19.3719 140.416 17.6343 140.416 15.4742V9.74786C140.416 8.75704 139.462 7.94836 138.541 7.94836C137.62 7.94836 136.875 8.75704 136.875 9.74786V15.4742Z" fill="#6D6D6D"/>
</g>
<defs>
<clipPath id="clip0_218_633">
<rect width="151" height="23" fill="white"/>
</clipPath>
</defs>
</svg>
