<?xml version="1.0" standalone="no"?>
<svg xmlns:xlink="http://www.w3.org/1999/xlink" id="wave" style="transform:rotate(180deg); transition: 0.3s" viewBox="0 0 1440 490" version="1.1" xmlns="http://www.w3.org/2000/svg"><defs><linearGradient id="sw-gradient-0" x1="0" x2="0" y1="1" y2="0"><stop stop-color="rgba(76, 172, 255, 0)" offset="0%"/><stop stop-color="rgba(85, 205, 254, 1)" offset="100%"/></linearGradient></defs><path style="transform:translate(0, 0px); opacity:1" fill="url(#sw-gradient-0)" d="M0,392L48,326.7C96,261,192,131,288,130.7C384,131,480,261,576,326.7C672,392,768,392,864,343C960,294,1056,196,1152,163.3C1248,131,1344,163,1440,147C1536,131,1632,65,1728,57.2C1824,49,1920,98,2016,130.7C2112,163,2208,180,2304,171.5C2400,163,2496,131,2592,98C2688,65,2784,33,2880,24.5C2976,16,3072,33,3168,98C3264,163,3360,278,3456,318.5C3552,359,3648,327,3744,261.3C3840,196,3936,98,4032,49C4128,0,4224,0,4320,16.3C4416,33,4512,65,4608,73.5C4704,82,4800,65,4896,57.2C4992,49,5088,49,5184,98C5280,147,5376,245,5472,269.5C5568,294,5664,245,5760,261.3C5856,278,5952,359,6048,343C6144,327,6240,212,6336,155.2C6432,98,6528,98,6624,138.8C6720,180,6816,261,6864,302.2L6912,343L6912,490L6864,490C6816,490,6720,490,6624,490C6528,490,6432,490,6336,490C6240,490,6144,490,6048,490C5952,490,5856,490,5760,490C5664,490,5568,490,5472,490C5376,490,5280,490,5184,490C5088,490,4992,490,4896,490C4800,490,4704,490,4608,490C4512,490,4416,490,4320,490C4224,490,4128,490,4032,490C3936,490,3840,490,3744,490C3648,490,3552,490,3456,490C3360,490,3264,490,3168,490C3072,490,2976,490,2880,490C2784,490,2688,490,2592,490C2496,490,2400,490,2304,490C2208,490,2112,490,2016,490C1920,490,1824,490,1728,490C1632,490,1536,490,1440,490C1344,490,1248,490,1152,490C1056,490,960,490,864,490C768,490,672,490,576,490C480,490,384,490,288,490C192,490,96,490,48,490L0,490Z"/><defs><linearGradient id="sw-gradient-1" x1="0" x2="0" y1="1" y2="0"><stop stop-color="rgba(76, 172, 255, 0)" offset="0%"/><stop stop-color="rgba(85, 205, 254, 1)" offset="100%"/></linearGradient></defs><path style="transform:translate(0, 50px); opacity:0.9" fill="url(#sw-gradient-1)" d="M0,392L48,383.8C96,376,192,359,288,318.5C384,278,480,212,576,155.2C672,98,768,49,864,57.2C960,65,1056,131,1152,171.5C1248,212,1344,229,1440,196C1536,163,1632,82,1728,40.8C1824,0,1920,0,2016,57.2C2112,114,2208,229,2304,261.3C2400,294,2496,245,2592,196C2688,147,2784,98,2880,89.8C2976,82,3072,114,3168,179.7C3264,245,3360,343,3456,383.8C3552,425,3648,408,3744,408.3C3840,408,3936,425,4032,375.7C4128,327,4224,212,4320,163.3C4416,114,4512,131,4608,147C4704,163,4800,180,4896,171.5C4992,163,5088,131,5184,163.3C5280,196,5376,294,5472,285.8C5568,278,5664,163,5760,98C5856,33,5952,16,6048,40.8C6144,65,6240,131,6336,147C6432,163,6528,131,6624,163.3C6720,196,6816,294,6864,343L6912,392L6912,490L6864,490C6816,490,6720,490,6624,490C6528,490,6432,490,6336,490C6240,490,6144,490,6048,490C5952,490,5856,490,5760,490C5664,490,5568,490,5472,490C5376,490,5280,490,5184,490C5088,490,4992,490,4896,490C4800,490,4704,490,4608,490C4512,490,4416,490,4320,490C4224,490,4128,490,4032,490C3936,490,3840,490,3744,490C3648,490,3552,490,3456,490C3360,490,3264,490,3168,490C3072,490,2976,490,2880,490C2784,490,2688,490,2592,490C2496,490,2400,490,2304,490C2208,490,2112,490,2016,490C1920,490,1824,490,1728,490C1632,490,1536,490,1440,490C1344,490,1248,490,1152,490C1056,490,960,490,864,490C768,490,672,490,576,490C480,490,384,490,288,490C192,490,96,490,48,490L0,490Z"/></svg>