<?xml version="1.0" encoding="utf-8"?>
<!-- Generator: Adobe Illustrator 27.5.0, SVG Export Plug-In . SVG Version: 6.00 Build 0)  -->
<svg version="1.1" xmlns="http://www.w3.org/2000/svg" xmlns:xlink="http://www.w3.org/1999/xlink" x="0px" y="0px"
	 viewBox="0 0 750 500" style="enable-background:new 0 0 750 500;" xml:space="preserve">
<g id="BACKGROUND">
	<rect style="fill: transparent;" width="750" height="500"/>
	<g>
		<defs>
			<rect id="SVGID_1_" width="750" height="468.666"/>
		</defs>
		<clipPath id="SVGID_00000002373885848445289430000014214347827408226183_">
			<use xlink:href="#SVGID_1_"  style="overflow:visible;"/>
		</clipPath>
		<g style="clip-path:url(#SVGID_00000002373885848445289430000014214347827408226183_);">
			
				<ellipse transform="matrix(0.2216 -0.9751 0.9751 0.2216 -152.5791 209.2026)" style="fill:#F2F2F4;" cx="54.744" cy="200.169" rx="24.707" ry="24.707"/>
			<circle style="fill:#F2F2F4;" cx="679.544" cy="141.358" r="45.899"/>
			
				<ellipse transform="matrix(0.1443 -0.9895 0.9895 0.1443 136.7161 211.5017)" style="fill:#F2F2F4;" cx="190.648" cy="26.702" rx="41.853" ry="41.853"/>
			<path style="fill:#F2F2F4;" d="M81.791,453.464h588.567c35.676-28.626,58.523-72.582,58.523-121.882
				c0-76.699-55.286-140.483-128.179-153.683c0.281-3.541,0.43-7.119,0.43-10.732c0-73.776-59.807-133.583-133.583-133.583
				c-54.203,0-100.865,32.283-121.809,78.67c-8.014-1.838-16.357-2.81-24.928-2.81c-12.532,0-24.579,2.078-35.816,5.904
				c-20.782-19.986-49.018-32.277-80.128-32.277c-63.852,0-115.614,51.762-115.614,115.614c0,18.739,4.463,36.433,12.376,52.086
				C63.336,271.6,37.345,312.188,37.345,358.846C37.345,396.901,54.638,430.913,81.791,453.464z"/>
		</g>
	</g>
</g>
<g id="OBJECTS">
	<g>
		
			<path style="fill:#FFFFFF;stroke:#D8D7E2;stroke-width:0.75;stroke-linecap:round;stroke-linejoin:round;stroke-miterlimit:10;" d="
			M387.764,236.384H163.688c-6.068,0-10.987-4.919-10.987-10.987V72.237c0-6.068,4.919-10.987,10.987-10.987h224.076
			c6.068,0,10.987,4.919,10.987,10.987v153.159C398.751,231.465,393.832,236.384,387.764,236.384z"/>
		<path style="fill:#D8D7E2;stroke:#D8D7E2;stroke-width:0.75;stroke-miterlimit:10;" d="M390.152,61.25H161.3
			c-4.749,0-8.599,4.341-8.599,9.696v4.846h246.05v-4.846C398.751,65.592,394.901,61.25,390.152,61.25z"/>
		<g>
			<path style="fill:none;stroke:#C4C1D2;stroke-width:0.75;stroke-miterlimit:10;" d="M164.991,68.522
				c0,1.688-1.36,3.056-3.037,3.056c-1.677,0-3.037-1.368-3.037-3.056c0-1.688,1.36-3.056,3.037-3.056
				C163.631,65.466,164.991,66.834,164.991,68.522z"/>
			
				<ellipse style="fill:none;stroke:#C4C1D2;stroke-width:0.75;stroke-miterlimit:10;" cx="173.411" cy="68.522" rx="3.037" ry="3.056"/>
			<path style="fill:none;stroke:#C4C1D2;stroke-width:0.75;stroke-miterlimit:10;" d="M187.905,68.522
				c0,1.688-1.36,3.056-3.038,3.056c-1.677,0-3.037-1.368-3.037-3.056c0-1.688,1.36-3.056,3.037-3.056
				C186.545,65.466,187.905,66.834,187.905,68.522z"/>
		</g>
		<g>
			<path style="fill:#C4C1D2;" d="M172.553,90.823H289.5c1.229,0,2.225-0.996,2.225-2.225l0,0c0-1.229-0.996-2.225-2.225-2.225
				H172.553c-1.229,0-2.224,0.996-2.224,2.225l0,0C170.329,89.827,171.325,90.823,172.553,90.823z"/>
			<path style="fill:#D8D7E2;" d="M175.782,97.143h82.738c0.582,0,1.053-0.472,1.053-1.053l0,0c0-0.582-0.472-1.053-1.053-1.053
				h-82.738c-0.582,0-1.053,0.472-1.053,1.053l0,0C174.729,96.671,175.2,97.143,175.782,97.143z"/>
			<path style="fill:#D8D7E2;" d="M175.782,102.34h96.772c0.582,0,1.053-0.472,1.053-1.053l0,0c0-0.582-0.472-1.053-1.053-1.053
				h-96.772c-0.582,0-1.053,0.472-1.053,1.053l0,0C174.729,101.868,175.2,102.34,175.782,102.34z"/>
			<path style="fill:#D8D7E2;" d="M175.782,107.537h54.191c0.582,0,1.053-0.472,1.053-1.053l0,0c0-0.582-0.472-1.053-1.053-1.053
				h-54.191c-0.582,0-1.053,0.472-1.053,1.053l0,0C174.729,107.066,175.2,107.537,175.782,107.537z"/>
		</g>
		<g>
			<rect x="327.013" y="105.496" style="fill:#D8D7E2;" width="23.368" height="115.772"/>
			<rect x="263.33" y="162.044" style="fill:#D8D7E2;" width="23.368" height="59.223"/>
			<rect x="295.172" y="141.387" style="fill:#F2F2F4;" width="23.368" height="79.881"/>
			<rect x="199.646" y="126.321" style="fill:#D8D7E2;" width="23.368" height="94.947"/>
			<rect x="167.804" y="196.864" style="fill:#F2F2F4;" width="23.368" height="24.404"/>
			<rect x="231.488" y="176.525" style="fill:#F2F2F4;" width="23.368" height="44.743"/>
			
				<line style="fill:none;stroke:#C4C1D2;stroke-width:0.75;stroke-linecap:round;stroke-miterlimit:10;" x1="156.475" y1="221.268" x2="368.309" y2="221.268"/>
		</g>
	</g>
	<g>
		<g>
			<path style="fill:#C4C1D2;" d="M130.02,357.082c-13.051-6.248-33.318,33.213-33.318,33.213s23.112-47.91,10.501-53.029
				c-12.611-5.119-26.725,53.973-26.725,53.973s14.661-64.588,4.291-67.23c-10.37-2.642-14.661,67.23-14.661,67.23
				s-3.934-70.31-17.165-64.732c-13.231,5.578,5.927,64.732,5.927,64.732s-23.449-63.873-31.316-53.973
				c-4.895,6.16,9.633,34.353,17.825,50.662c-8.091-7.738-21.508-19.549-24.798-14.574c-5.224,7.9,23.838,26.688,23.838,26.688
				l12.26-0.161l0,0l48.115-0.243C104.795,399.638,143.071,363.33,130.02,357.082z"/>
			
				<line style="fill:none;stroke:#A3A1AF;stroke-width:0.75;stroke-linecap:round;stroke-linejoin:round;stroke-miterlimit:10;" x1="82.398" y1="342.138" x2="73.816" y2="399.342"/>
			
				<line style="fill:none;stroke:#A3A1AF;stroke-width:0.75;stroke-linecap:round;stroke-linejoin:round;stroke-miterlimit:10;" x1="83.828" y1="399.342" x2="98.609" y2="359.258"/>
			<path style="fill:none;stroke:#A3A1AF;stroke-width:0.75;stroke-linecap:round;stroke-linejoin:round;stroke-miterlimit:10;" d="
				M96.702,399.679c0.834-0.653,18.833-23.501,18.833-23.501"/>
			
				<line style="fill:none;stroke:#A3A1AF;stroke-width:0.75;stroke-linecap:round;stroke-linejoin:round;stroke-miterlimit:10;" x1="54.744" y1="338.354" x2="64.876" y2="399.914"/>
			
				<line style="fill:none;stroke:#A3A1AF;stroke-width:0.75;stroke-linecap:round;stroke-linejoin:round;stroke-miterlimit:10;" x1="40.917" y1="364.1" x2="56.68" y2="399.881"/>
			
				<line style="fill:none;stroke:#A3A1AF;stroke-width:0.75;stroke-linecap:round;stroke-linejoin:round;stroke-miterlimit:10;" x1="31.658" y1="382.965" x2="48.798" y2="400.042"/>
		</g>
		<g>
			<polygon style="fill:#D8D7E2;" points="48.365,406.397 55.41,452.499 69.989,452.499 80.096,452.499 94.675,452.499 
				101.72,406.397 			"/>
			<path style="fill:#D8D7E2;" d="M106.026,408.243H44.059c-2.248,0-4.07-1.822-4.07-4.07v-0.738c0-2.248,1.822-4.07,4.07-4.07
				h61.966c2.248,0,4.07,1.822,4.07,4.07v0.738C110.096,406.421,108.273,408.243,106.026,408.243z"/>
			
				<line style="fill:none;stroke:#A3A1AF;stroke-width:0.75;stroke-linecap:round;stroke-linejoin:round;stroke-miterlimit:10;" x1="45.38" y1="408.243" x2="103.802" y2="408.243"/>
		</g>
	</g>
	<g>
		<g>
			<path style="fill:#FFFFFF;stroke:#020046;stroke-width:0.75;stroke-miterlimit:10;" d="M315.73,169.046
				c0,0-23.711-26.992-26.801-32.106c-3.09-5.115,3.121-16.341,11.113-14.423c7.991,1.918,21.836,16.988,30.471,29.345
				L315.73,169.046z"/>
			
				<path style="fill:#FFFFFF;stroke:#020046;stroke-width:0.75;stroke-linecap:round;stroke-linejoin:round;stroke-miterlimit:10;" d="
				M284.926,133.316c0,0-3.09-1.492-3.889-4.102c-0.799-2.611,1.172-4.334,5.594-2.14
				C291.053,129.267,284.926,133.316,284.926,133.316z"/>
			
				<path style="fill:#FFFFFF;stroke:#020046;stroke-width:0.75;stroke-linecap:round;stroke-linejoin:round;stroke-miterlimit:10;" d="
				M282.607,127.074c0,0-1.971-1.524-1.744-3.714c0.227-2.19,2.305-3.682,6.567-0.219c4.262,3.463,0.32,7.42,0.32,7.42
				L282.607,127.074z"/>
			<g>
				<g>
					
						<polygon style="fill:#FFFFFF;stroke:#020046;stroke-width:0.75;stroke-linecap:round;stroke-linejoin:round;stroke-miterlimit:10;" points="
						296.247,112.802 294.289,112.802 282.102,112.802 285.41,144.402 294.289,144.402 296.247,144.402 305.125,144.402 
						308.434,112.802 					"/>
					
						<polygon style="fill:#5C64FE;stroke:#020046;stroke-width:0.75;stroke-linecap:round;stroke-linejoin:round;stroke-miterlimit:10;" points="
						284.483,135.55 306.052,135.55 307.75,119.337 282.786,119.337 					"/>
				</g>
				<g>
					<path style="fill:#020046;" d="M305.925,109.638h-21.073c-0.811,0-1.468-0.657-1.468-1.468v-2.771
						c0-0.811,0.657-1.468,1.468-1.468h21.073c0.811,0,1.468,0.657,1.468,1.468v2.771
						C307.393,108.981,306.736,109.638,305.925,109.638z"/>
					<path style="fill:#020046;" d="M309.631,113.293h-28.485c-1.06,0-1.919-0.859-1.919-1.919v-1.988
						c0-1.06,0.859-1.919,1.919-1.919h28.485c1.06,0,1.919,0.859,1.919,1.919v1.988C311.55,112.434,310.691,113.293,309.631,113.293
						z"/>
				</g>
			</g>
			<g>
				<path style="fill:#FFFFFF;" d="M310.668,145.414c-8.151-6.229-3.953-9.274-7.912-15.747c-2.467-4.034-0.4-7.033,1.838-6.154
					c2.238,0.879,11.136,10.463,11.136,10.463L310.668,145.414z"/>
				
					<path style="fill:none;stroke:#020046;stroke-width:0.75;stroke-linecap:round;stroke-linejoin:round;stroke-miterlimit:10;" d="
					M315.73,133.976c0,0-8.898-9.584-11.136-10.463c-2.238-0.879-4.305,2.12-1.838,6.154c3.959,6.473-0.24,9.518,7.912,15.747"/>
			</g>
		</g>
		<g>
			<path style="fill:#F089D5;" d="M392.69,133.635l-47.875,28.109l-15.674-17.803l-26.034,21.29c0,0,13.686,46.926,46.483,49.579
				c32.796,2.653,53.044-36.682,53.044-36.682L392.69,133.635z"/>
			
				<line style="fill:none;stroke:#020046;stroke-width:0.75;stroke-linecap:round;stroke-linejoin:round;stroke-miterlimit:10;" x1="334.446" y1="149.967" x2="306.262" y2="172.298"/>
			
				<line style="fill:none;stroke:#020046;stroke-width:0.75;stroke-linecap:round;stroke-linejoin:round;stroke-miterlimit:10;" x1="355.02" y1="155.346" x2="344.893" y2="161.183"/>
			<path style="fill:none;stroke:#020046;stroke-width:0.75;stroke-linecap:round;stroke-linejoin:round;stroke-miterlimit:10;" d="
				M349.59,167.167l-20.449-23.226l-26.034,21.29c0,0,13.686,46.926,46.483,49.579c32.796,2.653,53.044-36.682,53.044-36.682"/>
		</g>
		<g>
			<path style="fill:#FFFFFF;" d="M396.49,166.63c0,0-2.139-17.933-1.248-23.137c0.891-5.203,3.743-11.263,8.288-11.531
				c4.545-0.267,15.952,0.089,18.091,3.03c2.139,2.941,6.327,6.951,4.812,17.467c-1.515,10.516-8.021,48.987-8.021,48.987
				l-4.657,11.258h-8.259L396.49,166.63z"/>
			
				<line style="fill:none;stroke:#020046;stroke-width:0.75;stroke-linecap:round;stroke-linejoin:round;stroke-miterlimit:10;" x1="408.697" y1="129.623" x2="408.697" y2="197.662"/>
			
				<path style="fill:#FFFFFF;stroke:#020046;stroke-width:0.75;stroke-linecap:round;stroke-linejoin:round;stroke-miterlimit:10;" d="
				M408.697,134.814l-7.523,11.472l-6.148-13.366c0,0,5.904-6.109,8.184-6.516c2.28-0.407,12.097-0.521,12.097-0.521
				s5.268,4.118,7.378,6.343c2.109,2.225-6.751,14.865-6.751,14.865L408.697,134.814z"/>
		</g>
		<g>
			<g>
				
					<polygon style="fill:#FFFFFF;stroke:#020046;stroke-width:0.75;stroke-linecap:round;stroke-linejoin:round;stroke-miterlimit:10;" points="
					366.745,407.438 373.281,260.928 407.336,258.222 395.909,408.512 				"/>
				<g>
					<path style="fill:#020046;" d="M396.25,405.81l-0.824,47.191l-7.039,0.162l-0.215-14.054l-21.434,14.551l-21.11,0.193
						c-2.706,0.205-4.12-3.149-2.084-4.943l19.239-16.951l3.517-25.662L396.25,405.81z"/>
					
						<line style="fill:none;stroke:#FFFFFF;stroke-width:0.75;stroke-linecap:round;stroke-linejoin:round;stroke-miterlimit:10;" x1="365.781" y1="411.987" x2="396.15" y2="411.539"/>
					
						<line style="fill:none;stroke:#FFFFFF;stroke-width:0.75;stroke-linecap:round;stroke-linejoin:round;stroke-miterlimit:10;" x1="358.712" y1="435.588" x2="364.549" y2="437.376"/>
					
						<line style="fill:none;stroke:#FFFFFF;stroke-width:0.75;stroke-linecap:round;stroke-linejoin:round;stroke-miterlimit:10;" x1="354.933" y1="439.109" x2="361.108" y2="441.381"/>
					
						<line style="fill:none;stroke:#FFFFFF;stroke-width:0.75;stroke-linecap:round;stroke-linejoin:round;stroke-miterlimit:10;" x1="350.834" y1="442.487" x2="356.23" y2="444.763"/>
				</g>
			</g>
			<g>
				
					<polygon style="fill:#FFFFFF;stroke:#020046;stroke-width:0.75;stroke-linecap:round;stroke-linejoin:round;stroke-miterlimit:10;" points="
					407.31,406.995 413.846,260.486 447.901,257.78 436.474,408.069 				"/>
				<g>
					<path style="fill:#020046;" d="M436.815,405.368l-1.27,48.096l-6.579,0.194l-0.222-14.504l-21.986,14.077l-20.565,0.181
						c-2.706,0.205-4.12-3.149-2.084-4.943l19.239-16.951l3.517-25.662L436.815,405.368z"/>
					
						<line style="fill:none;stroke:#FFFFFF;stroke-width:0.75;stroke-linecap:round;stroke-linejoin:round;stroke-miterlimit:10;" x1="406.346" y1="411.545" x2="436.715" y2="411.096"/>
					
						<line style="fill:none;stroke:#FFFFFF;stroke-width:0.75;stroke-linecap:round;stroke-linejoin:round;stroke-miterlimit:10;" x1="399.277" y1="435.145" x2="405.113" y2="436.934"/>
					
						<line style="fill:none;stroke:#FFFFFF;stroke-width:0.75;stroke-linecap:round;stroke-linejoin:round;stroke-miterlimit:10;" x1="395.498" y1="438.667" x2="401.673" y2="440.939"/>
					
						<line style="fill:none;stroke:#FFFFFF;stroke-width:0.75;stroke-linecap:round;stroke-linejoin:round;stroke-miterlimit:10;" x1="391.399" y1="442.045" x2="396.795" y2="444.32"/>
				</g>
			</g>
			<polygon style="fill:#5C64FE;" points="369.384,239.859 367.978,323.039 446.74,325.202 455.512,239.889 			"/>
		</g>
		<g>
			<path style="fill:#F089D5;" d="M421.049,130.616l33.739,20.161l0.934,48.543l6.215,79.744c0,0-7.325,4.483-20.601,2.873
				c-4.28-0.519-8.786-0.969-14.376-3.323c-22.932-9.659-19.014-22.458-19.014-22.458l0.056-72.426
				C408.003,183.73,425.231,144.541,421.049,130.616z"/>
			<g>
				
					<path style="fill:none;stroke:#020046;stroke-width:0.75;stroke-linecap:round;stroke-linejoin:round;stroke-miterlimit:10;" d="
					M407.375,206.668l0.627,54.344c0,0,2.197,13.984,24.898,19.35c22.701,5.366,29.037-1.298,29.037-1.298
					s-7.815-92.68-6.966-97.463"/>
			</g>
			<path style="fill:none;stroke:#020046;stroke-width:0.75;stroke-linecap:round;stroke-linejoin:round;stroke-miterlimit:10;" d="
				M453.431,246.68c-6.134-2.891-12.148-5.981-18.026-9.264"/>
			<g>
				
					<path style="fill:none;stroke:#020046;stroke-width:0.75;stroke-linecap:round;stroke-linejoin:round;stroke-miterlimit:10;" d="
					M431.043,142.319c6.435,12.088,7.533,17.42,7.533,17.42h-11.509l5.651,14.043l-24.715,32.886"/>
			</g>
			<path style="fill:#F089D5;" d="M397.32,130.616l-30.923,20.161v47.756l-6.552,80.531c0,0,6.005,4.569,18.151,2.973
				c3.93-0.516,8.768-1.062,13.906-3.423c21.017-9.659,17.426-22.458,17.426-22.458l-0.051-72.426
				C409.278,183.73,393.488,144.541,397.32,130.616z"/>
			<path style="fill:none;stroke:#020046;stroke-width:0.75;stroke-linecap:round;stroke-linejoin:round;stroke-miterlimit:10;" d="
				M405.616,208.335c0,1.127-0.851,2.04-1.902,2.04c-1.05,0-1.902-0.913-1.902-2.04s0.851-2.04,1.902-2.04
				C404.765,206.296,405.616,207.209,405.616,208.335z"/>
			<path style="fill:none;stroke:#020046;stroke-width:0.75;stroke-linecap:round;stroke-linejoin:round;stroke-miterlimit:10;" d="
				M405.616,223.35c0,1.127-0.851,2.04-1.902,2.04c-1.05,0-1.902-0.913-1.902-2.04c0-1.127,0.851-2.04,1.902-2.04
				C404.765,221.31,405.616,222.223,405.616,223.35z"/>
			<path style="fill:none;stroke:#020046;stroke-width:0.75;stroke-linecap:round;stroke-linejoin:round;stroke-miterlimit:10;" d="
				M405.616,238.364c0,1.127-0.851,2.04-1.902,2.04c-1.05,0-1.902-0.913-1.902-2.04c0-1.127,0.851-2.04,1.902-2.04
				C404.765,236.324,405.616,237.237,405.616,238.364z"/>
			<g>
				
					<path style="fill:none;stroke:#020046;stroke-width:0.75;stroke-linecap:round;stroke-linejoin:round;stroke-miterlimit:10;" d="
					M366.176,195.705c0.778,4.784-6.33,83.359-6.33,83.359s5.807,6.664,26.613,1.298c20.806-5.366,22.819-19.35,22.819-19.35
					l-0.586-78.891"/>
			</g>
			<path style="fill:none;stroke:#020046;stroke-width:0.75;stroke-linecap:round;stroke-linejoin:round;stroke-miterlimit:10;" d="
				M367.237,246.68c5.622-2.891,11.134-5.981,16.521-9.264"/>
			<g>
				
					<path style="fill:none;stroke:#020046;stroke-width:0.75;stroke-linecap:round;stroke-linejoin:round;stroke-miterlimit:10;" d="
					M388.161,142.319c-5.897,12.088-6.904,17.42-6.904,17.42h11.203l-5.833,14.043l22.237,31.359"/>
			</g>
			<path style="fill:none;stroke:#020046;stroke-width:0.75;stroke-linecap:round;stroke-linejoin:round;stroke-miterlimit:10;" d="
				M421.049,130.616c3.686,12.273-9.258,44.165-12.381,51.561c-2.863-7.396-14.726-39.288-11.348-51.561"/>
		</g>
		<g>
			
				<path style="fill:#FFFFFF;stroke:#020046;stroke-width:0.75;stroke-linecap:round;stroke-linejoin:round;stroke-miterlimit:10;" d="
				M424.265,88.78c-2.9-3.457-5.135-4.801-8.912-6.827l0.322,5.803c-7.773-0.531-19.067-0.505-23.39,3.511
				c-6.867,6.378-8.541,26.899-3.434,30.67c3.574,2.639,35.799,5.947,41.93-2.895C437.922,108.742,427.145,91.768,424.265,88.78z"/>
			
				<path style="fill:#FFFFFF;stroke:#020046;stroke-width:0.75;stroke-linecap:round;stroke-linejoin:round;stroke-miterlimit:10;" d="
				M418.533,102.556c-1.272-0.005-2.446,0.398-3.408,1.078c0.649-12.768-5.42-14.28-16.169-13.672
				c-10.721,0.287-8.898,13.905-8.955,21.456c0.182,8.179,6.28,10.939,13.084,10.154c0.041,3.733-1.135,10.695,4.532,10.72
				c3.328,0.374,7.474-0.398,7.501-4.544c-0.011-3.851,0.087-10.808,0.029-14.656C423.856,118.36,428.755,103.304,418.533,102.556z"
				/>
			<path style="fill:#FFFFFF;" d="M418.723,83.772c-2.679-2.129-6.102-3.289-10.014-2.941c-27.103-8.622-28.779,28.246-3.54,14.352
				c0.779,3.551,4.225,7.405,7.395,8.732l2.095,4.024l0.392-3.807c1.493-1.678,5.041-2.191,7.17-0.259
				C426.7,95.468,418.723,83.772,418.723,83.772z"/>
			<path style="fill:none;stroke:#020046;stroke-width:0.75;stroke-linecap:round;stroke-linejoin:round;stroke-miterlimit:10;" d="
				M415.73,109.126c0,0-0.243-3.94,3.8-3.487"/>
			<path style="fill:none;stroke:#020046;stroke-width:0.75;stroke-linecap:round;stroke-linejoin:round;stroke-miterlimit:10;" d="
				M419.415,84.304c-2.679-2.129-6.795-3.822-10.706-3.474c-27.103-8.622-28.779,28.246-3.54,14.352
				c0.779,3.551,4.225,7.405,7.395,8.732l2.095,4.024l0.392-3.807c1.493-1.678,5.041-2.191,7.17-0.259"/>
			
				<ellipse style="fill:none;stroke:#020046;stroke-width:0.75;stroke-linecap:round;stroke-linejoin:round;stroke-miterlimit:10;" cx="424.941" cy="72.169" rx="10.245" ry="9.783"/>
		</g>
		<g>
			
				<polyline style="fill:none;stroke:#020046;stroke-width:0.75;stroke-linecap:round;stroke-linejoin:round;stroke-miterlimit:10;" points="
				397.392,108.711 394.346,106.839 397.032,102.315 			"/>
			
				<line style="fill:none;stroke:#020046;stroke-linecap:round;stroke-linejoin:round;stroke-miterlimit:10;" x1="405.584" y1="101.684" x2="402.634" y2="100.492"/>
			
				<line style="fill:none;stroke:#020046;stroke-linecap:round;stroke-linejoin:round;stroke-miterlimit:10;" x1="392.976" y1="100.63" x2="390.145" y2="101.036"/>
			<path style="fill:#020046;" d="M404.219,104.261c0,0.752-0.609,1.361-1.361,1.361c-0.752,0-1.361-0.609-1.361-1.361
				c0-0.752,0.609-1.361,1.361-1.361C403.609,102.9,404.219,103.509,404.219,104.261z"/>
			<path style="fill:#020046;" d="M392.812,103.852c0,0.644-0.522,1.166-1.166,1.166c-0.644,0-1.166-0.522-1.166-1.166
				c0-0.644,0.522-1.166,1.166-1.166C392.29,102.686,392.812,103.208,392.812,103.852z"/>
			<path style="fill:none;stroke:#020046;stroke-width:0.75;stroke-linecap:round;stroke-linejoin:round;stroke-miterlimit:10;" d="
				M394.108,112.964c-0.005,1.463,1.176,2.653,2.639,2.659c1.463,0.005,2.653-1.176,2.659-2.639L394.108,112.964z"/>
		</g>
		<g>
			<path style="fill:#F089D5;" d="M425.913,133.522l22.148,46.634l0.118,0.13l-14.345,1.774c0,0-1.833,19.08,1.33,39.25
				c1.704,10.862,24.76,27.897,40.181,4.206S475.304,146.232,425.913,133.522z"/>
			
				<line style="fill:none;stroke:#020046;stroke-width:0.75;stroke-linecap:round;stroke-linejoin:round;stroke-miterlimit:10;" x1="433.359" y1="191.284" x2="464.592" y2="186.733"/>
			<path style="fill:none;stroke:#020046;stroke-width:0.75;stroke-linecap:round;stroke-linejoin:round;stroke-miterlimit:10;" d="
				M470.469,204.766l-8.531-26.181l-28.103,3.475c0,0-1.833,19.08,1.33,39.25c1.704,10.862,24.76,27.897,40.181,4.206
				c5.559-8.54,7.105-21.225,4.495-34.553"/>
		</g>
		<g>
			
				<path style="fill:#FFFFFF;stroke:#020046;stroke-width:0.75;stroke-linecap:round;stroke-linejoin:round;stroke-miterlimit:10;" d="
				M430.594,146.238c0,0-2.983-3.491-5.093-2.783c-2.111,0.708-2.012,4.381,1.654,8.147
				C430.82,155.368,430.594,146.238,430.594,146.238z"/>
			<g>
				<g>
					
						<polygon style="fill:#FFFFFF;stroke:#020046;stroke-width:0.75;stroke-linecap:round;stroke-linejoin:round;stroke-miterlimit:10;" points="
						439.389,139.479 437.498,139.403 425.73,138.929 427.698,169.569 436.271,169.914 438.161,169.99 446.734,170.335 
						451.157,139.952 					"/>
					
						<polygon style="fill:#5C64FE;stroke:#020046;stroke-width:0.75;stroke-linecap:round;stroke-linejoin:round;stroke-miterlimit:10;" points="
						427.146,160.987 447.973,161.825 450.242,146.236 426.137,145.266 					"/>
				</g>
				<g>
					<path style="fill:#020046;" d="M448.857,136.8l-20.348-0.819c-0.783-0.031-1.392-0.692-1.361-1.475l0.108-2.676
						c0.031-0.783,0.692-1.392,1.475-1.361l20.348,0.819c0.783,0.031,1.392,0.692,1.361,1.475l-0.108,2.676
						C450.3,136.222,449.64,136.831,448.857,136.8z"/>
					<path style="fill:#020046;" d="M452.293,140.473l-27.504-1.107c-1.023-0.041-1.82-0.904-1.779-1.928l0.077-1.92
						c0.041-1.023,0.904-1.82,1.928-1.779l27.504,1.107c1.023,0.041,1.82,0.904,1.779,1.928l-0.077,1.92
						C454.179,139.718,453.316,140.514,452.293,140.473z"/>
				</g>
			</g>
			<g>
				
					<path style="fill:#FFFFFF;stroke:#020046;stroke-width:0.75;stroke-linecap:round;stroke-linejoin:round;stroke-miterlimit:10;" d="
					M452.315,157.324c0,0,0.485-9.598-1.365-11.655c-1.85-2.057-9.85-4.065-11.599-2.499c-1.748,1.566-0.579,4.537,2.474,5.057
					c3.053,0.519,3.26,0.904,3.26,0.904l0.809,5.766L452.315,157.324z"/>
				<path style="fill:#FFFFFF;" d="M429.328,156.337c0.326-1.037,0.878-2.083,4.203-1.934l-0.032-0.091
					c-2.91-1.604-2.326-3.833-1.142-4.879c1.85-1.636,8.846,0.059,12.309,0.867c3.462,0.809,8.022,5.751,8.022,5.751
					s2.572,1.987,3.056,17.077l-0.18,6.247l-13.975,1.622c0,0-0.487-3.736-1.504-5.561c-1.017-1.826-1.389-4.902-1.432-6.291
					l-0.046-0.133c-5.223-1.84-9.045-4.65-8.51-6.842c0.313-1.28,0.865-1.972,2.709-1.859l-0.031-0.013
					C429.708,158.909,428.901,157.695,429.328,156.337z"/>
				<g>
					
						<path style="fill:none;stroke:#020046;stroke-width:0.75;stroke-linecap:round;stroke-linejoin:round;stroke-miterlimit:10;" d="
						M433.499,154.311c-2.91-1.604-2.326-3.833-1.142-4.879c1.85-1.636,8.846,0.059,12.309,0.867
						c3.462,0.809,8.022,5.751,8.022,5.751s2.572,1.987,3.056,17.077l-0.18,6.247l-13.975,1.622c0,0-0.487-3.736-1.504-5.561
						c-1.017-1.826-1.389-4.902-1.432-6.291"/>
					
						<path style="fill:none;stroke:#020046;stroke-width:0.75;stroke-linecap:round;stroke-linejoin:round;stroke-miterlimit:10;" d="
						M447.446,158.813c0,0-3.019-2.575-9.956-3.896c-6.937-1.32-7.736,0.061-8.162,1.419c-0.426,1.358,0.38,2.572,3.447,3.959"/>
					
						<path style="fill:none;stroke:#020046;stroke-width:0.75;stroke-linecap:round;stroke-linejoin:round;stroke-miterlimit:10;" d="
						M445.146,164.223c0,0-5.936-2.434-9.162-3.306c-4.524-1.223-5.44-0.582-5.888,1.251c-0.668,2.733,5.43,6.428,12.579,8.004"/>
				</g>
			</g>
		</g>
	</g>
	<g>
		
			<rect x="569.941" y="352.163" transform="matrix(-1 -1.224647e-16 1.224647e-16 -1 1149.1467 764.4752)" style="fill:#FFFFFF;stroke:#A3A1AF;stroke-width:0.75;stroke-miterlimit:10;" width="9.265" height="60.15"/>
		<path style="fill:#A3A1AF;" d="M571.727,431.517h5.693c2.37,0,4.29-1.921,4.29-4.29v-42.793c0-2.369-1.921-4.29-4.29-4.29h-5.693
			c-2.369,0-4.29,1.921-4.29,4.29v42.793C567.437,429.596,569.358,431.517,571.727,431.517z"/>
		<polygon style="fill:#A3A1AF;" points="538.014,427.215 540.288,427.215 608.859,427.215 614.25,427.215 614.25,433.398 
			614.25,440.355 608.859,440.355 608.859,433.398 540.288,433.398 540.288,440.355 534.896,440.355 534.896,433.398 
			534.896,427.215 		"/>
		<g>
			<path style="fill:#FFFFFF;stroke:#A3A1AF;stroke-width:0.75;stroke-miterlimit:10;" d="M529.272,444.907
				c0,4.567,3.702,8.27,8.269,8.27c4.567,0,8.269-3.702,8.269-8.27c0-4.567-3.702-8.269-8.269-8.269
				C532.974,436.638,529.272,440.34,529.272,444.907z"/>
			<path style="fill:#A3A1AF;" d="M534.373,444.907c0,1.75,1.419,3.169,3.169,3.169s3.169-1.419,3.169-3.169
				c0-1.75-1.419-3.169-3.169-3.169S534.373,443.158,534.373,444.907z"/>
		</g>
		<g>
			<path style="fill:#FFFFFF;stroke:#A3A1AF;stroke-width:0.75;stroke-miterlimit:10;" d="M603.571,444.907
				c0,4.567,3.702,8.27,8.269,8.27c4.567,0,8.269-3.702,8.269-8.27c0-4.567-3.702-8.269-8.269-8.269
				C607.273,436.638,603.571,440.34,603.571,444.907z"/>
			<path style="fill:#A3A1AF;" d="M608.671,444.907c0,1.75,1.419,3.169,3.169,3.169c1.75,0,3.169-1.419,3.169-3.169
				c0-1.75-1.419-3.169-3.169-3.169C610.09,441.739,608.671,443.158,608.671,444.907z"/>
		</g>
		<g>
			<path style="fill:#FFFFFF;stroke:#C4C1D2;stroke-width:0.75;stroke-linecap:round;stroke-miterlimit:10;" d="M574.224,245.885
				l50.028,0.262c5.473,0.029,9.775,4.689,9.367,10.146l-7.49,100.229c-0.374,5.005-4.599,8.844-9.617,8.737l-114.177-2.429
				c-5.472-0.116-9.699-4.845-9.203-10.296l0,0c0.442-4.864,4.52-8.588,9.404-8.588l46.703-1.128c5.359,0,14.339-3.22,14.13-8.575
				l1.37-78.549C564.529,250.32,568.845,245.857,574.224,245.885z"/>
			
				<line style="fill:none;stroke:#C4C1D2;stroke-width:0.75;stroke-linecap:round;stroke-miterlimit:10;" x1="619.387" y1="256.853" x2="607.903" y2="341.564"/>
			<path style="fill:none;stroke:#C4C1D2;stroke-width:0.75;stroke-linecap:round;stroke-miterlimit:10;" d="M559.983,340.925
				c0.134-0.157,32.971,0,32.971,0"/>
		</g>
	</g>
	<g>
		<g>
			<g>
				
					<polygon style="fill:#FFFFFF;stroke:#020046;stroke-width:0.75;stroke-linecap:round;stroke-linejoin:round;stroke-miterlimit:10;" points="
					447.017,391.046 443.549,426.079 467.936,428.494 471.562,393.476 				"/>
				
					<line style="fill:#FFFFFF;stroke:#020046;stroke-width:0.75;stroke-linecap:round;stroke-linejoin:round;stroke-miterlimit:10;" x1="450.393" y1="391.38" x2="446.925" y2="426.416"/>
				
					<line style="fill:#FFFFFF;stroke:#020046;stroke-width:0.75;stroke-linecap:round;stroke-linejoin:round;stroke-miterlimit:10;" x1="454.554" y1="391.791" x2="452.058" y2="426.923"/>
				
					<line style="fill:#FFFFFF;stroke:#020046;stroke-width:0.75;stroke-linecap:round;stroke-linejoin:round;stroke-miterlimit:10;" x1="458.767" y1="392.209" x2="456.377" y2="427.017"/>
				
					<line style="fill:#FFFFFF;stroke:#020046;stroke-width:0.75;stroke-linecap:round;stroke-linejoin:round;stroke-miterlimit:10;" x1="463.091" y1="392.637" x2="460.25" y2="427.4"/>
				
					<line style="fill:#FFFFFF;stroke:#020046;stroke-width:0.75;stroke-linecap:round;stroke-linejoin:round;stroke-miterlimit:10;" x1="467.576" y1="393.081" x2="464.697" y2="428.778"/>
			</g>
			<g>
				<g>
					
						<polygon style="fill:#FFFFFF;stroke:#020046;stroke-width:0.75;stroke-linecap:round;stroke-linejoin:round;stroke-miterlimit:10;" points="
						401.563,453.153 474.689,453.464 472.87,420.038 438.316,421.439 434.288,434.207 					"/>
				</g>
				<g>
					
						<line style="fill:none;stroke:#020046;stroke-width:0.75;stroke-linecap:round;stroke-linejoin:round;stroke-miterlimit:10;" x1="421.632" y1="438.568" x2="425.556" y2="446.008"/>
					
						<line style="fill:none;stroke:#020046;stroke-width:0.75;stroke-linecap:round;stroke-linejoin:round;stroke-miterlimit:10;" x1="427.431" y1="435.814" x2="431.354" y2="443.254"/>
				</g>
				
					<line style="fill:none;stroke:#020046;stroke-width:0.75;stroke-linecap:round;stroke-linejoin:round;stroke-miterlimit:10;" x1="412.597" y1="450.295" x2="465.919" y2="450.295"/>
			</g>
			<g>
				
					<polygon style="fill:#FFFFFF;stroke:#020046;stroke-width:0.75;stroke-linecap:round;stroke-linejoin:round;stroke-miterlimit:10;" points="
					488.826,392.009 488.826,427.213 513.332,427.213 513.491,392.009 				"/>
				
					<line style="fill:#FFFFFF;stroke:#020046;stroke-width:0.75;stroke-linecap:round;stroke-linejoin:round;stroke-miterlimit:10;" x1="492.219" y1="392.009" x2="492.219" y2="427.215"/>
				
					<line style="fill:#FFFFFF;stroke:#020046;stroke-width:0.75;stroke-linecap:round;stroke-linejoin:round;stroke-miterlimit:10;" x1="496.399" y1="392.008" x2="497.377" y2="427.214"/>
				
					<line style="fill:#FFFFFF;stroke:#020046;stroke-width:0.75;stroke-linecap:round;stroke-linejoin:round;stroke-miterlimit:10;" x1="500.633" y1="392.009" x2="501.684" y2="426.882"/>
				
					<line style="fill:#FFFFFF;stroke:#020046;stroke-width:0.75;stroke-linecap:round;stroke-linejoin:round;stroke-miterlimit:10;" x1="504.979" y1="392.009" x2="505.576" y2="426.882"/>
				
					<line style="fill:#FFFFFF;stroke:#020046;stroke-width:0.75;stroke-linecap:round;stroke-linejoin:round;stroke-miterlimit:10;" x1="509.485" y1="392.009" x2="510.137" y2="427.816"/>
			</g>
			<g>
				<g>
					
						<polygon style="fill:#FFFFFF;stroke:#020046;stroke-width:0.75;stroke-linecap:round;stroke-linejoin:round;stroke-miterlimit:10;" points="
						449.8,453.153 522.926,453.464 519.381,420.108 486.552,421.439 482.524,434.207 					"/>
				</g>
				<g>
					
						<line style="fill:none;stroke:#020046;stroke-width:0.75;stroke-linecap:round;stroke-linejoin:round;stroke-miterlimit:10;" x1="469.869" y1="438.568" x2="473.792" y2="446.008"/>
					
						<line style="fill:none;stroke:#020046;stroke-width:0.75;stroke-linecap:round;stroke-linejoin:round;stroke-miterlimit:10;" x1="475.667" y1="435.814" x2="479.591" y2="443.254"/>
				</g>
				
					<line style="fill:none;stroke:#020046;stroke-width:0.75;stroke-linecap:round;stroke-linejoin:round;stroke-miterlimit:10;" x1="460.834" y1="450.295" x2="514.155" y2="450.295"/>
			</g>
			<g>
				<path style="fill:#020046;" d="M495.092,401.198h-59.941c0,0,5.701-97.075,29.546-98.276c28.768-1.45,42.58,0,42.58,0
					L495.092,401.198z"/>
				
					<line style="fill:none;stroke:#FFFFFF;stroke-width:0.75;stroke-linecap:round;stroke-linejoin:round;stroke-miterlimit:10;" x1="436.479" y1="389.698" x2="496.68" y2="388.391"/>
			</g>
			<g>
				<path style="fill:#16004D;" d="M588.202,299.354H547.26c-50.305-3.584-70.264,8.543-70.264,27.371
					c0,12.731,2.579,79.965,2.579,79.965l44.686-1.317l-2.89-61.039c0,0,32.221,4.351,52.271-1.388
					C593.694,337.208,588.202,299.354,588.202,299.354z"/>
				<g>
					<path style="fill:none;stroke:#6FBBEF;stroke-linecap:round;stroke-miterlimit:10;" d="M583.046,335.935
						c-2.233,3.29-5.277,5.83-9.403,7.011c-20.051,5.738-52.271,1.388-52.271,1.388"/>
					<path style="fill:none;stroke:#6FBBEF;stroke-linecap:round;stroke-miterlimit:10;" d="M524.261,405.373l-44.686,1.317
						c0,0-2.579-67.235-2.579-79.965c0-18.828,19.959-30.954,70.264-27.371"/>
					
						<line style="fill:none;stroke:#6FBBEF;stroke-linecap:round;stroke-miterlimit:10;" x1="520.974" y1="335.934" x2="522.008" y2="357.778"/>
				</g>
			</g>
			<g>
				<path style="fill:#020046;" d="M549.453,297.31l39.895,0.235c0,0,4.845,38.792-10.142,45.273
					c-14.987,6.481-57.834,1.515-57.834,1.515"/>
				<path style="fill:#020046;" d="M521.372,344.334l5.272,61.496l-51.909,0.86c0,0-6.299-74.114-1.086-88.014
					c5.213-13.9,11.699-23.899,75.805-21.366"/>
				
					<line style="fill:none;stroke:#FFFFFF;stroke-width:0.75;stroke-linecap:round;stroke-linejoin:round;stroke-miterlimit:10;" x1="473.819" y1="394.71" x2="525.774" y2="393.738"/>
				
					<polyline style="fill:none;stroke:#FFFFFF;stroke-width:0.75;stroke-linecap:round;stroke-linejoin:round;stroke-miterlimit:10;" points="
					526.644,405.83 521.372,344.334 520.974,335.934 				"/>
				
					<path style="fill:none;stroke:#FFFFFF;stroke-width:0.75;stroke-linecap:round;stroke-linejoin:round;stroke-miterlimit:10;" d="
					M549.453,297.31c-64.106-2.534-70.592,7.465-75.805,21.366c-5.213,13.9,1.086,88.014,1.086,88.014"/>
			</g>
		</g>
		<g>
			<g>
				<path style="fill:#FFFFFF;" d="M473.095,216.38c6.97,6.327,25.372,26.168,25.372,26.168l15.309-14.77
					c0,0-20.575-25.471-23.992-28.462c-3.053-2.671-5.009-0.748-4.469,2.566c-0.925-0.758-6.95-5.703-10.185-6.556
					c-3.406-0.899-4.344,1.553-3.734,2.295l0.585,0.198l-0.088,0.02c-0.349-0.162-0.674-0.295-0.96-0.389
					c-3.288-1.075-4.5,1.439-2.891,2.733l0.154,0.051c-0.452-0.033-0.838,0.034-1.126,0.239c-1.47,1.046-1.09,2.777,0.146,3.576
					c-1.389-0.456-2.154-0.135-2.617,0.526C463.541,206.088,464.175,208.284,473.095,216.38z M467.703,204.201l-0.016,0.025
					c-0.157-0.064-0.309-0.123-0.453-0.171L467.703,204.201z"/>
				<g>
					
						<path style="fill:none;stroke:#020046;stroke-width:0.75;stroke-linecap:round;stroke-linejoin:round;stroke-miterlimit:10;" d="
						M476.373,210.598c-8.075-7.265-10.585-7.438-11.773-6.023c-1.703,2.028,1.822,5.165,8.495,11.805
						c6.673,6.64,25.372,26.168,25.372,26.168l15.309-14.77c0,0-20.575-25.471-23.992-28.462c-3.417-2.99-5.395,0.29-4.117,4.199
						c1.278,3.908,2.04,5.674,2.04,5.674s-1.242,4.813,2.415,9.299"/>
					
						<path style="fill:none;stroke:#020046;stroke-width:0.75;stroke-linecap:round;stroke-linejoin:round;stroke-miterlimit:10;" d="
						M480.808,208.284c0,0-11.026-9.739-13.737-7.81c-1.47,1.046-1.089,2.778,0.148,3.576"/>
					
						<path style="fill:none;stroke:#020046;stroke-width:0.75;stroke-linecap:round;stroke-linejoin:round;stroke-miterlimit:10;" d="
						M482.925,205.09c0,0-8.556-6.517-11.99-7.639c-3.288-1.075-4.5,1.439-2.891,2.733"/>
					
						<path style="fill:none;stroke:#020046;stroke-width:0.75;stroke-linecap:round;stroke-linejoin:round;stroke-miterlimit:10;" d="
						M485.159,201.755c0,0-6.535-5.728-10.028-6.65c-3.406-0.899-4.344,1.774-3.734,2.516"/>
				</g>
			</g>
			<g>
				<polygon style="fill:#5C64FE;" points="557.235,251.32 511.637,216.645 487.549,239.183 521.251,289.715 				"/>
				
					<polygon style="fill:none;stroke:#020046;stroke-width:0.75;stroke-linecap:round;stroke-linejoin:round;stroke-miterlimit:10;" points="
					557.235,251.32 511.637,216.645 487.549,239.183 521.251,289.715 				"/>
				<g>
					<defs>
						<polygon id="SVGID_00000171702186950777312490000016945418627646255520_" points="491.516,245.13 521.251,289.715 
							557.235,251.32 517.717,221.268 						"/>
					</defs>
					<clipPath id="SVGID_00000135689734024453273950000004391324729474526357_">
						<use xlink:href="#SVGID_00000171702186950777312490000016945418627646255520_"  style="overflow:visible;"/>
					</clipPath>
					<g style="clip-path:url(#SVGID_00000135689734024453273950000004391324729474526357_);">
						
							<path style="fill:none;stroke:#FFFFFF;stroke-width:0.75;stroke-linecap:round;stroke-linejoin:round;stroke-miterlimit:10;" d="
							M533.033,230.61c-1.095-1.481-2.723-2.418-4.526-2.591c-3.509-0.336-6.604,2.328-6.9,5.938
							c-0.296,3.61,2.319,6.821,5.827,7.157c1.989,0.19,3.925-0.583,5.259-2.08c1.095,1.481,2.722,2.418,4.526,2.591
							c3.509,0.336,6.604-2.328,6.899-5.938c0.296-3.61-2.318-6.821-5.827-7.158C536.303,228.339,534.367,229.112,533.033,230.61z"
							/>
						
							<path style="fill:none;stroke:#FFFFFF;stroke-width:0.75;stroke-linecap:round;stroke-linejoin:round;stroke-miterlimit:10;" d="
							M507.447,244.078c-1.095-1.481-2.723-2.418-4.526-2.591c-3.509-0.336-6.604,2.327-6.9,5.938
							c-0.296,3.61,2.319,6.821,5.827,7.157c1.989,0.191,3.925-0.583,5.259-2.08c1.095,1.481,2.723,2.418,4.526,2.591
							c3.509,0.336,6.604-2.328,6.899-5.938c0.296-3.61-2.318-6.821-5.827-7.158C510.717,241.807,508.781,242.58,507.447,244.078z"
							/>
						
							<path style="fill:none;stroke:#FFFFFF;stroke-width:0.75;stroke-linecap:round;stroke-linejoin:round;stroke-miterlimit:10;" d="
							M500.856,225.101c-1.095-1.481-2.723-2.418-4.526-2.591c-3.509-0.336-6.604,2.328-6.9,5.938
							c-0.296,3.61,2.319,6.821,5.827,7.157c1.989,0.19,3.925-0.583,5.259-2.08c1.095,1.481,2.722,2.418,4.526,2.591
							c3.509,0.336,6.604-2.328,6.899-5.938c0.296-3.61-2.318-6.821-5.827-7.157C504.126,222.83,502.19,223.603,500.856,225.101z"/>
					</g>
				</g>
				
					<line style="fill:none;stroke:#020046;stroke-width:0.75;stroke-linecap:round;stroke-linejoin:round;stroke-miterlimit:10;" x1="513.395" y1="225.259" x2="494.328" y2="242.658"/>
			</g>
		</g>
		<g>
			<path style="fill:#5C64FE;" d="M525.267,301.083c0,0,3.759-54.483,21.881-77.271c11.424-14.365,20.709-17.803,28.531-17.203
				c0,0,20.738,26.834,24.648,62.093c3.909,35.259,2.606,45.13-32.09,44.023C533.54,311.617,525.267,301.083,525.267,301.083z"/>
			<g>
				<defs>
					<path id="SVGID_00000062908680718537738100000010028320915575185539_" d="M601.77,285.528
						c-0.196-4.827-0.731-10.4-1.443-16.826c-2.16-19.482-9.456-36.381-15.555-47.613l-28.654-6.804
						c-2.837,2.443-5.822,5.568-8.97,9.527c-9.073,11.41-14.546,30.764-17.749,47.248L601.77,285.528z"/>
				</defs>
				<clipPath id="SVGID_00000080191771861899286940000017440452761178993057_">
					<use xlink:href="#SVGID_00000062908680718537738100000010028320915575185539_"  style="overflow:visible;"/>
				</clipPath>
				<g style="clip-path:url(#SVGID_00000080191771861899286940000017440452761178993057_);">
					
						<path style="fill:none;stroke:#FFFFFF;stroke-width:0.75;stroke-linecap:round;stroke-linejoin:round;stroke-miterlimit:10;" d="
						M550.605,222.176c-1.095-1.481-2.722-2.418-4.526-2.591c-3.509-0.336-6.604,2.327-6.899,5.938
						c-0.296,3.61,2.318,6.821,5.827,7.157c1.989,0.191,3.925-0.582,5.259-2.08c1.095,1.481,2.722,2.418,4.526,2.591
						c3.509,0.336,6.604-2.328,6.899-5.938c0.296-3.61-2.318-6.821-5.827-7.157C553.875,219.905,551.939,220.678,550.605,222.176z"
						/>
					
						<path style="fill:none;stroke:#FFFFFF;stroke-width:0.75;stroke-linecap:round;stroke-linejoin:round;stroke-miterlimit:10;" d="
						M576.723,242.577c-1.095-1.481-2.722-2.418-4.526-2.591c-3.509-0.336-6.604,2.327-6.899,5.938
						c-0.296,3.61,2.318,6.821,5.827,7.157c1.989,0.191,3.925-0.582,5.259-2.08c1.095,1.481,2.723,2.418,4.526,2.591
						c3.509,0.336,6.604-2.328,6.899-5.938c0.296-3.61-2.318-6.821-5.827-7.157C579.993,240.307,578.057,241.079,576.723,242.577z"
						/>
					
						<path style="fill:none;stroke:#FFFFFF;stroke-width:0.75;stroke-linecap:round;stroke-linejoin:round;stroke-miterlimit:10;" d="
						M538.021,252.641c-1.095-1.481-2.722-2.418-4.526-2.591c-3.509-0.336-6.604,2.328-6.899,5.938
						c-0.296,3.61,2.318,6.821,5.827,7.157c1.989,0.19,3.925-0.583,5.259-2.08c1.095,1.481,2.723,2.418,4.526,2.591
						c3.509,0.336,6.604-2.328,6.899-5.938c0.296-3.61-2.318-6.821-5.827-7.158C541.291,250.37,539.355,251.143,538.021,252.641z"/>
					
						<path style="fill:none;stroke:#FFFFFF;stroke-width:0.75;stroke-linecap:round;stroke-linejoin:round;stroke-miterlimit:10;" d="
						M566.828,262.85c-1.095-1.481-2.722-2.418-4.526-2.591c-3.509-0.336-6.604,2.327-6.899,5.938
						c-0.296,3.61,2.318,6.821,5.827,7.157c1.989,0.191,3.925-0.582,5.259-2.08c1.095,1.481,2.722,2.418,4.526,2.591
						c3.509,0.336,6.604-2.328,6.899-5.938c0.296-3.61-2.318-6.821-5.827-7.157C570.098,260.579,568.163,261.352,566.828,262.85z"/>
				</g>
			</g>
			<path style="fill:none;stroke:#020046;stroke-width:0.75;stroke-linecap:round;stroke-linejoin:round;stroke-miterlimit:10;" d="
				M525.267,301.083c0,0,3.759-54.483,21.881-77.271c11.424-14.365,20.709-17.803,28.531-17.203c0,0,20.738,26.834,24.648,62.093
				c3.909,35.259,2.606,45.13-32.09,44.023C533.54,311.617,525.267,301.083,525.267,301.083z"/>
		</g>
		<g>
			
				<path style="fill:#FFFFFF;stroke:#020046;stroke-width:0.75;stroke-linecap:round;stroke-linejoin:round;stroke-miterlimit:10;" d="
				M522.677,290.999c0,0,12.546-15.001,13.741-16.305c1.194-1.303,24.543-5.992,24.543-5.992l-1.503,24.698L522.677,290.999z"/>
			<path style="fill:#5C64FE;" d="M573.101,206.564c5.653-0.243,10.566,1.817,14.965,3.875
				c10.015,4.684,37.329,21.493,47.283,44.165s0.977,38.364-30.081,42.313c-31.059,3.949-48.875-3.218-48.875-3.218l1.772-28.352
				l37.335-2.117l-8.959-26.219L573.101,206.564z"/>
			<g>
				<defs>
					<path id="SVGID_00000105415545922659314100000013297741271853459331_" d="M635.349,254.603
						c-8.989-20.475-32.133-36.164-43.912-42.464c-4.187,2.279-15.489,6.804-18.828,8.581l12.857,15.084L595.5,263.23l-37.335,2.117
						l-1.772,28.352c0,0,17.816,7.167,48.875,3.218C636.327,292.967,645.303,277.276,635.349,254.603z"/>
				</defs>
				<clipPath id="SVGID_00000163756717762252600570000017837670929243862206_">
					<use xlink:href="#SVGID_00000105415545922659314100000013297741271853459331_"  style="overflow:visible;"/>
				</clipPath>
				<g style="clip-path:url(#SVGID_00000163756717762252600570000017837670929243862206_);">
					
						<path style="fill:none;stroke:#FFFFFF;stroke-width:0.75;stroke-linecap:round;stroke-linejoin:round;stroke-miterlimit:10;" d="
						M591.988,221.64c-1.095-1.481-2.722-2.418-4.526-2.591c-3.509-0.336-6.604,2.328-6.9,5.938
						c-0.296,3.61,2.318,6.821,5.827,7.157c1.989,0.191,3.925-0.582,5.259-2.08c1.095,1.481,2.723,2.418,4.526,2.591
						c3.509,0.336,6.604-2.328,6.899-5.938c0.296-3.61-2.318-6.821-5.827-7.157C595.258,219.369,593.322,220.142,591.988,221.64z"/>
					
						<path style="fill:none;stroke:#FFFFFF;stroke-width:0.75;stroke-linecap:round;stroke-linejoin:round;stroke-miterlimit:10;" d="
						M622.537,234.841c-1.095-1.481-2.723-2.418-4.526-2.591c-3.509-0.336-6.604,2.328-6.9,5.938
						c-0.296,3.61,2.319,6.821,5.827,7.157c1.989,0.191,3.925-0.583,5.259-2.08c1.095,1.481,2.722,2.418,4.526,2.591
						c3.509,0.336,6.604-2.328,6.899-5.938c0.296-3.61-2.318-6.821-5.827-7.158C625.807,232.57,623.871,233.343,622.537,234.841z"/>
					
						<path style="fill:none;stroke:#FFFFFF;stroke-width:0.75;stroke-linecap:round;stroke-linejoin:round;stroke-miterlimit:10;" d="
						M603.266,256.178c-1.095-1.481-2.723-2.418-4.526-2.591c-3.509-0.336-6.604,2.328-6.9,5.938
						c-0.296,3.61,2.319,6.821,5.827,7.157c1.989,0.19,3.925-0.582,5.259-2.08c1.095,1.481,2.722,2.418,4.526,2.591
						c3.509,0.336,6.604-2.328,6.899-5.938c0.296-3.61-2.318-6.821-5.827-7.157C606.536,253.907,604.6,254.68,603.266,256.178z"/>
					
						<path style="fill:none;stroke:#FFFFFF;stroke-width:0.75;stroke-linecap:round;stroke-linejoin:round;stroke-miterlimit:10;" d="
						M640.822,271.322c-1.095-1.481-2.723-2.418-4.526-2.591c-3.509-0.336-6.604,2.328-6.9,5.938
						c-0.296,3.61,2.319,6.821,5.827,7.157c1.989,0.19,3.925-0.582,5.259-2.08c1.095,1.481,2.723,2.418,4.526,2.591
						c3.509,0.336,6.604-2.328,6.899-5.938c0.296-3.61-2.318-6.821-5.827-7.157C644.092,269.051,642.156,269.823,640.822,271.322z"
						/>
					
						<path style="fill:none;stroke:#FFFFFF;stroke-width:0.75;stroke-linecap:round;stroke-linejoin:round;stroke-miterlimit:10;" d="
						M581.339,273.993c-1.095-1.481-2.722-2.418-4.526-2.591c-3.509-0.336-6.604,2.328-6.899,5.938
						c-0.296,3.61,2.318,6.821,5.827,7.157c1.989,0.191,3.925-0.582,5.259-2.08c1.095,1.481,2.723,2.418,4.526,2.591
						c3.509,0.336,6.604-2.328,6.899-5.938c0.296-3.61-2.318-6.821-5.827-7.157C584.609,271.722,582.673,272.495,581.339,273.993z"
						/>
					
						<path style="fill:none;stroke:#FFFFFF;stroke-width:0.75;stroke-linecap:round;stroke-linejoin:round;stroke-miterlimit:10;" d="
						M606.507,296.019c-1.095-1.481-2.722-2.418-4.526-2.591c-3.509-0.336-6.604,2.327-6.899,5.938
						c-0.296,3.61,2.318,6.821,5.827,7.157c1.989,0.191,3.925-0.583,5.259-2.08c1.095,1.481,2.722,2.418,4.526,2.591
						c3.509,0.336,6.604-2.328,6.899-5.938c0.296-3.61-2.318-6.821-5.827-7.158C609.777,293.748,607.841,294.521,606.507,296.019z"
						/>
				</g>
			</g>
			<path style="fill:none;stroke:#020046;stroke-width:0.75;stroke-linecap:round;stroke-linejoin:round;stroke-miterlimit:10;" d="
				M573.101,206.564c5.653-0.243,10.566,1.817,14.965,3.875c10.015,4.684,37.731,22.438,47.685,45.111
				c9.954,22.672,0.576,37.418-30.483,41.367c-31.059,3.949-48.875-3.218-48.875-3.218l1.772-28.352l37.335-2.117l-4.838-14.11"/>
			
				<line style="fill:none;stroke:#020046;stroke-width:0.75;stroke-linecap:round;stroke-linejoin:round;stroke-miterlimit:10;" x1="565.5" y1="267.062" x2="563.893" y2="294.024"/>
			
				<line style="fill:none;stroke:#020046;stroke-width:0.75;stroke-linecap:round;stroke-linejoin:round;stroke-miterlimit:10;" x1="593.092" y1="263.366" x2="603.096" y2="263.303"/>
		</g>
		<g>
			<path style="fill:#020046;" d="M579.676,157.986c6.352,3.158,10.094,10.679,9.301,18.672
				c-1.094,11.027-10.697,19.222-10.697,19.222l-0.672-18.348l-1.056-0.562L579.676,157.986z"/>
			
				<path style="fill:#FFFFFF;stroke:#020046;stroke-width:0.75;stroke-linecap:round;stroke-linejoin:round;stroke-miterlimit:10;" d="
				M582.158,180.236c-1.39-0.005-2.674,0.435-3.725,1.178l0.014-3.833c0.023-6.076-4.326-11.064-9.662-11.083l-8.027-0.03
				c-5.337-0.02-9.722,4.935-9.744,11.012l-0.046,12.443c-0.023,6.076,4.326,11.064,9.662,11.083l4.642,0.017l-0.025,6.703
				c-0.01,2.749,2.23,5.006,4.979,5.016l3.185,0.012c2.749,0.01,5.006-2.23,5.016-4.979l0.028-7.575l0.001-0.422l0.028-7.575
				c0-0.152-0.013-0.301-0.026-0.45c1.034,0.724,2.292,1.154,3.654,1.16c3.529,0.013,6.401-2.814,6.414-6.315
				C588.538,183.097,585.687,180.249,582.158,180.236z"/>
			<path style="fill:none;stroke:#020046;stroke-width:0.75;stroke-linecap:round;stroke-linejoin:round;stroke-miterlimit:10;" d="
				M579.094,187.418c0,0-0.265-4.307,4.154-3.812"/>
			<path style="fill:#020046;" d="M582.365,159.701c-2.929-2.327-6.671-3.596-10.947-3.215
				c-20.452-7.187-28.067,12.249-20.805,17.506c2.139,1.548,12.773,2.332,16.935-1.817c0.277,0.845,0.693,1.912,1.327,3.272
				c1.371,2.944,4.384,5.024,6.757,6.273l-1.718,8.096c0,0-9.915-2.406-16.008-2.36c-6.093,0.046-6.94,2.466-6.94,2.466
				s0.052,8.34,6.345,10.4c5.338,1.747,7.959,0.701,7.959,0.701s6.739-1.74,9.976-5.28c1.421-1.554,2.06-2.509,2.821-4.025
				l0.284-9.76c0.237-0.183,0.409-0.309,0.627-0.46c0,0,1.483-1.264,3.114-1.262c1.514,0.001,2.986,0.581,4.097,1.439
				C587.979,178.229,582.365,159.701,582.365,159.701z"/>
			<g>
				
					<path style="fill:#FFFFFF;stroke:#020046;stroke-width:0.75;stroke-linecap:round;stroke-linejoin:round;stroke-miterlimit:10;" d="
					M564.87,211.653c0,0,1.52,2.636,7.276,1.861c5.756-0.775-0.358-5.931-3.165-6.72
					C566.173,206.006,562.644,209.047,564.87,211.653z"/>
				
					<path style="fill:none;stroke:#020046;stroke-width:0.75;stroke-linecap:round;stroke-linejoin:round;stroke-miterlimit:10;" d="
					M559.118,215.068c0,0,4.133,3.34,10.158,3.7c3.662,0.219,8.121-0.414,12.492-4.283"/>
				
					<path style="fill:#FFFFFF;stroke:#020046;stroke-width:0.75;stroke-linecap:round;stroke-linejoin:round;stroke-miterlimit:10;" d="
					M578.449,201.334c0,0,4.213,3.239,7.018,7.933c0,0-4.223,5.427-14.107,8.359l-2.38-10.831l-3.056,9.85
					c0,0-3.824-1.047-6.173-5.205c0,0,1.563-3.813,5.355-7.741c0,0,1.398,2.394,3.787,3.044
					C571.284,207.391,577.34,203.856,578.449,201.334z"/>
			</g>
		</g>
		<g>
			
				<polyline style="fill:none;stroke:#020046;stroke-width:0.75;stroke-linecap:round;stroke-linejoin:round;stroke-miterlimit:10;" points="
				559.596,186.491 556.393,184.523 559.217,179.766 			"/>
			
				<line style="fill:none;stroke:#020046;stroke-linecap:round;stroke-linejoin:round;stroke-miterlimit:10;" x1="568.209" y1="179.103" x2="565.108" y2="177.849"/>
			
				<line style="fill:none;stroke:#020046;stroke-linecap:round;stroke-linejoin:round;stroke-miterlimit:10;" x1="554.952" y1="177.994" x2="551.977" y2="178.422"/>
			<path style="fill:#020046;" d="M566.774,181.812c0,0.791-0.641,1.432-1.431,1.432c-0.791,0-1.431-0.641-1.431-1.432
				c0-0.79,0.641-1.431,1.431-1.431C566.133,180.381,566.774,181.022,566.774,181.812z"/>
			<path style="fill:#020046;" d="M554.78,181.383c0,0.677-0.549,1.226-1.226,1.226s-1.226-0.549-1.226-1.226
				c0-0.677,0.549-1.226,1.226-1.226S554.78,180.706,554.78,181.383z"/>
			<path style="fill:#FFFFFF;" d="M556.143,190.963c-0.006,1.538,1.237,2.789,2.775,2.795c1.538,0.006,2.79-1.237,2.795-2.775
				L556.143,190.963z"/>
		</g>
	</g>
	<g>
		<path style="fill:#020046;" d="M273.212,244.976h44.389c3.459,0,6.003,3.242,5.18,6.601l-10.091,41.211
			c-0.584,2.386-2.723,4.065-5.18,4.065h-52.1c-3.835,0-6.416-3.927-4.896-7.448l17.802-41.211
			C269.16,246.241,271.085,244.976,273.212,244.976z"/>
		<path style="fill:#5C64FE;" d="M274.061,248.158h41.006c2.342,0,4.064,2.195,3.507,4.469l-9.376,38.291
			c-0.396,1.616-1.844,2.752-3.507,2.752h-48.171c-2.596,0-4.344-2.659-3.314-5.042l16.54-38.291
			C271.317,249.015,272.62,248.158,274.061,248.158z"/>
		<path style="fill:#FFFFFF;" d="M259.292,293.67h39.305c2.158,0,4.047-1.447,4.61-3.53l9.227-34.152
			c0.82-3.035-1.466-6.02-4.61-6.02h-33.78c-1.905,0-3.628,1.132-4.384,2.882l-14.752,34.152
			C253.547,290.154,255.858,293.67,259.292,293.67z"/>
		<g>
			<polygon style="fill:#020046;" points="259.882,253.511 309.196,253.511 309.394,252.778 260.274,252.778 			"/>
			<polygon style="fill:#020046;" points="308.26,256.976 258.47,256.976 258.47,257.709 308.062,257.709 			"/>
			<polygon style="fill:#020046;" points="307.125,261.174 258.47,261.174 258.47,261.907 306.927,261.907 			"/>
			<polygon style="fill:#020046;" points="305.991,265.372 256.992,265.372 256.992,266.105 305.793,266.105 			"/>
			<polygon style="fill:#020046;" points="304.857,269.571 255.295,269.571 255.295,270.303 304.659,270.303 			"/>
			<polygon style="fill:#020046;" points="244.161,282.897 278.122,282.897 278.122,282.164 244.553,282.164 			"/>
			<polygon style="fill:#020046;" points="286.139,273.768 249.045,273.768 248.653,274.501 285.941,274.501 			"/>
			<polygon style="fill:#020046;" points="285.004,277.967 246.799,277.967 246.407,278.699 284.806,278.699 			"/>
		</g>
	</g>
	<g>
		
			<path style="fill:#FFFFFF;stroke:#C4C1D2;stroke-width:0.75;stroke-linecap:round;stroke-linejoin:round;stroke-miterlimit:10;" d="
			M65.665,94.069h47.207c6.031,0,10.921,4.889,10.921,10.921v19.272v6.74v21.115l-11.103-10.194H65.665
			c-6.031,0-10.921-4.889-10.921-10.921V104.99C54.744,98.958,59.633,94.069,65.665,94.069z"/>
		<rect x="74.377" y="111.687" style="fill:#D8D7E2;" width="33.885" height="20.275"/>
		<g>
			
				<rect x="63.289" y="103.708" style="fill:#FFFFFF;stroke:#C4C1D2;stroke-width:0.75;stroke-linecap:round;stroke-linejoin:round;stroke-miterlimit:10;" width="41.469" height="24.814"/>
			
				<polyline style="fill:none;stroke:#C4C1D2;stroke-width:0.75;stroke-linecap:round;stroke-linejoin:round;stroke-miterlimit:10;" points="
				63.289,103.708 83.834,121.488 104.758,103.708 			"/>
			
				<line style="fill:none;stroke:#C4C1D2;stroke-width:0.75;stroke-linecap:round;stroke-linejoin:round;stroke-miterlimit:10;" x1="63.289" y1="128.521" x2="76.484" y2="115.127"/>
			
				<line style="fill:none;stroke:#C4C1D2;stroke-width:0.75;stroke-linecap:round;stroke-linejoin:round;stroke-miterlimit:10;" x1="91.319" y1="115.127" x2="104.758" y2="128.521"/>
		</g>
	</g>
	<g>
		<g>
			
				<rect x="123.951" y="305.864" style="fill:#FFFFFF;stroke:#020046;stroke-width:0.75;stroke-linecap:round;stroke-linejoin:round;stroke-miterlimit:10;" width="10.503" height="147.6"/>
			
				<rect x="624.122" y="305.864" style="fill:#FFFFFF;stroke:#020046;stroke-width:0.75;stroke-linecap:round;stroke-linejoin:round;stroke-miterlimit:10;" width="10.503" height="147.6"/>
		</g>
		
			<path style="fill:#FFFFFF;stroke:#020046;stroke-width:0.75;stroke-linecap:round;stroke-linejoin:round;stroke-miterlimit:10;" d="
			M660.223,308.534H102.738c-3.099,0-5.612-2.513-5.612-5.612l0,0c0-3.099,2.512-5.612,5.612-5.612h557.485
			c3.099,0,5.612,2.513,5.612,5.612l0,0C665.835,306.021,663.322,308.534,660.223,308.534z"/>
	</g>
	<g>
		<g>
			<path style="fill:#FFFFFF;" d="M307.889,217.05l-0.001,0.001c0.459-2.918-0.346-3.388-0.346-3.388l-0.545,0.715
				c0.326-1.117,0.347-1.982-0.141-2.344c-1.825-1.353-4.732,0.299-9.212,5.105c-4.845,5.198-14.932,8.796-14.932,8.796
				c1.28-3.475,2.953-13.197,0.086-13.358c-4.353-0.244-5.846,9.557-8.669,12.94c-2.823,3.383-15.658,17.594-15.658,17.594
				l19.595,6.89c0,0,8.905-11.578,18.027-15.667c9.122-4.089,12.244-11.046,12.489-13.576
				C308.825,218.226,307.889,217.05,307.889,217.05z"/>
			<g>
				
					<path style="fill:none;stroke:#020046;stroke-width:0.75;stroke-linecap:round;stroke-linejoin:round;stroke-miterlimit:10;" d="
					M307.542,213.662c0,0,0.93,0.539,0.224,4.072c-0.706,3.533-5.783,10.116-5.783,10.116"/>
				
					<path style="fill:none;stroke:#020046;stroke-width:0.75;stroke-linecap:round;stroke-linejoin:round;stroke-miterlimit:10;" d="
					M307.889,217.05c0,0,0.936,1.177,0.692,3.707c-0.244,2.53-3.366,9.487-12.489,13.576C286.97,238.422,278.065,250,278.065,250
					l-19.595-6.89c0,0,12.835-14.211,15.658-17.594c2.824-3.383,4.317-13.184,8.669-12.94c2.867,0.161,1.194,9.882-0.086,13.358
					c0,0,8.178-2.742,13.326-7.33c5.305-4.728,8.633-8.959,10.818-6.57c1.723,1.884-4.688,11.762-6.748,13.483"/>
			</g>
		</g>
		<g>
			
				<polygon style="fill:#FFFFFF;stroke:#020046;stroke-width:0.75;stroke-linecap:round;stroke-linejoin:round;stroke-miterlimit:10;" points="
				195.683,188.401 201.781,194.219 198.312,197.575 			"/>
			<path style="fill:#FFFFFF;" d="M172.373,204.245c0.077,0.346,0.17,0.683,0.273,1.015c-0.005,0.381,0.028,0.767,0.114,1.154
				L172.373,204.245l15.336,8.105l-0.015-0.069l4.577-1.014c5.263-1.165,8.483-7.021,7.156-13.014l-2.718-12.271
				c-1.327-5.992-6.718-9.941-11.981-8.776l-7.916,1.753c-5.263,1.165-8.483,7.021-7.157,13.013L172.373,204.245z"/>
			
				<path style="fill:#FFFFFF;stroke:#020046;stroke-width:0.75;stroke-linecap:round;stroke-linejoin:round;stroke-miterlimit:10;" d="
				M199.427,198.254l-2.717-12.271c-1.327-5.992-6.719-9.941-11.982-8.776l-7.916,1.753c-5.263,1.165-8.483,7.021-7.157,13.014
				l2.718,12.271c0.077,0.346,0.17,0.683,0.273,1.015c-0.005,0.381,0.028,0.767,0.114,1.154l0.798,0.372l0.498,16.549h16.203
				l-0.758-11.453l2.772-0.614C197.533,210.102,200.754,204.246,199.427,198.254z"/>
			<g>
				<path style="fill:#020046;" d="M173.078,199.463l1.316-4.261c0,0,15.476-2.448,22.347-18.863c2.553-6.1-1.77-11.92-8.803-11.973
					c-8.896-0.067-16.832,4.947-16.832,4.947s-20.606,9.456-13.952,30.307c0,0,3.534,12.2,16.981,12.73"/>
			</g>
			<path style="fill:#FFFFFF;" d="M164.776,202.762c0.418,3.263,3.424,5.566,6.714,5.145c3.29-0.421,5.618-3.408,5.2-6.671
				c-0.418-3.263-3.424-5.566-6.714-5.145C166.686,196.512,164.358,199.499,164.776,202.762z"/>
			<path style="fill:none;stroke:#020046;stroke-width:0.75;stroke-linecap:round;stroke-linejoin:round;stroke-miterlimit:10;" d="
				M174.054,202.366c0,0-0.252-4.046-4.316-3.073"/>
			<path style="fill:none;stroke:#020046;stroke-width:0.75;stroke-linecap:round;stroke-linejoin:round;stroke-miterlimit:10;" d="
				M140.266,175.734c8.509-7.641,4.595-26.427-7.111-29.21c-14.107-3.354-24.103,14.397-34.744-1.698
				c-10.642-16.096-24.89-12.451-29.703,2.062s10.676,29.517,26.259,28.495c15.582-1.023,19.921-11.309,25.6-3.481
				C126.227,179.705,134.982,180.479,140.266,175.734z"/>
			<g>
				
					<path style="fill:none;stroke:#020046;stroke-width:0.75;stroke-linecap:round;stroke-linejoin:round;stroke-miterlimit:10;" d="
					M156.749,179.18c0,2.236-1.813,4.048-4.048,4.048c-2.236,0-4.048-1.813-4.048-4.048c0-2.236,1.813-4.048,4.048-4.048
					C154.937,175.131,156.749,176.944,156.749,179.18z"/>
			</g>
		</g>
		<g>
			<path style="fill:#020046;" d="M165.96,227.252l7.839-9.301l19.899,0.67l7.228,8.093
				C200.926,226.714,187.431,227.252,165.96,227.252z"/>
			<g>
				<path style="fill:#020046;" d="M209.829,283.347c18.65,10.63,35.981,16.316,42.47,12.176
					c12.949-8.262,33.435-51.215,33.435-51.215l-20.969-12.852l-23.868,23.482c0,0-24.545-22.998-36.913-28.023
					c-5.366-2.18-35.043-1.16-35.043-1.16s-2.919,0.894-4.294,1.498c-16.444,7.222-20.332,31.71-25.691,65.854l-0.123,3.775
					l71.312,0.635L209.829,283.347z"/>
			</g>
			<g>
				
					<line style="fill:none;stroke:#FFFFFF;stroke-width:0.75;stroke-linecap:round;stroke-miterlimit:10;" x1="240.322" y1="254.404" x2="245.801" y2="259.938"/>
				
					<line style="fill:none;stroke:#FFFFFF;stroke-width:0.75;stroke-linecap:round;stroke-miterlimit:10;" x1="260.329" y1="235.82" x2="282.712" y2="250.4"/>
			</g>
			<path style="fill:none;stroke:#FFFFFF;stroke-width:0.75;stroke-linecap:round;stroke-miterlimit:10;" d="M167.804,226.325
				c0,0,12.42-0.44,16.561-0.391c4.145,0.049,16.561,0.78,16.561,0.78"/>
		</g>
		<g>
			<path style="fill:#020046;" d="M188.846,193.938c0.055,0.996,0.907,1.758,1.903,1.703c0.996-0.055,1.758-0.907,1.703-1.903
				c-0.055-0.996-0.907-1.758-1.903-1.703C189.552,192.09,188.79,192.942,188.846,193.938z"/>
			<path style="fill:none;stroke:#020046;stroke-width:0.75;stroke-miterlimit:10;" d="M199.296,204.375
				c0,0-2.364,1.564-5.107-1.022"/>
			<path style="fill:none;stroke:#020046;stroke-width:0.75;stroke-miterlimit:10;" d="M186.663,191.697
				c0.769-0.904,1.625-1.733,2.552-2.473"/>
		</g>
		<path style="fill:#5C64FE;stroke:#020046;stroke-miterlimit:10;" d="M225.458,411.189l7.027,42.192l15.825,0.083l0.321-9.608
			l17.589,9.289c0,0,4.457,0.084,8.264-0.013c2.923-0.074,5.68,0.327,5.661-0.529c-0.147-6.442-6.224-12.168-24.26-27.484
			l-2.116-15.407L225.458,411.189z"/>
		<g>
			<polygon style="fill:#FFFFFF;" points="193.63,344.286 219.269,426.416 290.573,426.416 246.653,315.201 177.488,305.864 			"/>
			<g>
				<polygon style="fill:#F089D5;" points="181.728,315.957 181.728,310.662 180.728,310.662 180.728,313.577 				"/>
				<path style="fill:#F089D5;" d="M279.155,417.55v-1h-31.892v-14.986h31.892v-1h-31.892v-14.986h27.182l-0.395-1h-26.787v-14.986
					h20.869l-0.395-1h-20.474v-14.986h14.556l-0.395-1h-14.161v-14.986h8.243l-0.395-1h-7.848v-19.872l-0.61-1.545l-0.39-0.053
					v21.47h-15.384v-23.547l-1-0.135v23.682h-15.384v-25.759l-1-0.135v25.894h-15.383v-25.956h-1v25.956h-6.704l0.42,1h6.284v14.986
					h-0.886l0.312,1h0.574v1.837l1,3.203v-5.04h15.383v14.986h-12.278l0.312,1h11.966v14.986h-7.288l0.312,1h6.976v14.986h-2.297
					l0.312,1h1.985v6.359l1,3.203v-9.562h15.384v14.986h-13.69l0.312,1h13.378v8.866h1v-8.866h15.384v8.866h1v-8.866H279.155z
					 M213.496,352.604h-15.383v-14.986h15.383V352.604z M229.879,400.564h-15.384v-14.986h15.384V400.564z M229.879,384.577h-15.384
					v-14.986h15.384V384.577z M229.879,368.591h-15.384v-14.986h15.384V368.591z M229.879,352.604h-15.384v-14.986h15.384V352.604z
					 M246.263,416.55h-15.384v-14.986h15.384V416.55z M246.263,400.564h-15.384v-14.986h15.384V400.564z M246.263,384.577h-15.384
					v-14.986h15.384V384.577z M246.263,368.591h-15.384v-14.986h15.384V368.591z M246.263,352.604h-15.384v-14.986h15.384V352.604z"
					/>
			</g>
			<polyline style="fill:none;stroke:#020046;stroke-miterlimit:10;" points="193.63,344.286 219.269,426.416 290.573,426.416 
				246.653,315.201 177.488,305.864 			"/>
		</g>
		<path style="fill:#5C64FE;stroke:#020046;stroke-miterlimit:10;" d="M260.69,412l8.634,41.386l14.835,0.078l0.321-9.608
			l13.785,9.608c-3.044,0.082,8.261-0.235,12.068-0.331c2.923-0.074,5.68,0.327,5.661-0.529c-0.147-6.442-6.224-12.168-24.26-27.484
			l-2.117-15.407L260.69,412z"/>
		<g>
			<path style="fill:#FFFFFF;" d="M233.743,345.914l21.113,80.502h51.135c0,0-26.677-98.183-38.595-111.215
				c-11.919-13.032-50.563-12.279-50.563-12.279L233.743,345.914z"/>
			<path style="fill:#F089D5;" d="M302.297,413.188h-10.074v-14.986h5.743c-0.098-0.332-0.195-0.664-0.294-1h-5.449v-14.986h0.952
				c-0.102-0.333-0.204-0.666-0.306-1h-0.646v-2.099c-0.331-1.072-0.664-2.147-1-3.227v5.326H275.84v-14.986h12.326
				c-0.107-0.334-0.215-0.667-0.322-1H275.84v-14.986h7.002c-0.116-0.333-0.231-0.669-0.346-1h-6.656v-14.986h1.14
				c-0.133-0.338-0.265-0.668-0.398-1h-0.742v-1.839c-0.336-0.823-0.67-1.626-1-2.405v4.243h-15.384V318.27h10.136
				c-0.214-0.353-0.425-0.686-0.632-1h-9.504v-7.517c-0.331-0.153-0.66-0.309-1-0.455v7.972h-15.383v-12.267
				c-0.333-0.059-0.667-0.119-1-0.175v12.441h-15.384v-14.094c-0.34-0.019-0.673-0.037-1-0.054v14.147h-3.213l0.393,1h2.819v7.168
				l1,2.542v-9.71h15.384v14.986h-13.308l0.393,1h12.915v14.986h-7.456l0.262,1h7.194v14.986h-3.264l0.262,1h3.002v11.445
				l1.191,4.542h15.192v14.986h-11.262l0.262,1h10.999v14.986h-7.069l0.262,1h6.807v12.228h1v-12.228h15.384v12.228h1v-12.228
				h15.383v12.228h1v-12.228h10.358C302.488,413.862,302.392,413.523,302.297,413.188z M258.456,381.215h-15.383v-14.986h15.383
				V381.215z M258.456,365.228h-15.383v-14.986h15.383V365.228z M258.456,349.242h-15.383v-14.986h15.383V349.242z M258.456,333.256
				h-15.383V318.27h15.383V333.256z M274.84,413.188h-15.384v-14.986h15.384V413.188z M274.84,397.201h-15.384v-14.986h15.384
				V397.201z M274.84,381.215h-15.384v-14.986h15.384V381.215z M274.84,365.228h-15.384v-14.986h15.384V365.228z M274.84,349.242
				h-15.384v-14.986h15.384V349.242z M291.223,413.188H275.84v-14.986h15.383V413.188z M291.223,397.201H275.84v-14.986h15.383
				V397.201z"/>
			<path style="fill:none;stroke:#020046;stroke-miterlimit:10;" d="M233.743,345.914l21.113,80.502h51.135
				c0,0-26.677-98.183-38.595-111.215c-11.919-13.032-50.563-12.279-50.563-12.279"/>
		</g>
	</g>
	
		<line style="fill:none;stroke:#020046;stroke-width:0.75;stroke-linecap:round;stroke-linejoin:round;stroke-miterlimit:10;" x1="38.817" y1="453.464" x2="700.471" y2="453.464"/>
	<g>
		<path style="fill:#020046;" d="M491.274,296.996l48.678,0.089c5.053,0.009,7.666-3.912,5.835-8.758l-12.76-33.785
			c-1.83-4.846-7.41-8.782-12.464-8.792l-48.678-0.089c-5.053-0.009-7.666,3.912-5.835,8.758l12.76,33.785
			C480.641,293.051,486.221,296.987,491.274,296.996z"/>
		<path style="fill:#FFFFFF;" d="M498.622,268.695c0.571,2.145,2.772,3.888,4.916,3.892c2.144,0.004,3.42-1.732,2.849-3.877
			c-0.571-2.146-2.772-3.888-4.916-3.892C499.327,264.813,498.051,266.549,498.622,268.695z"/>
		<path style="fill:#020046;" d="M584.235,295.922l0.009-4.951c0.001-0.644-0.519-1.166-1.163-1.167l-49.043-0.089
			c-0.643-0.001-1.166,0.52-1.167,1.163l-0.009,4.951c-0.001,0.643,0.52,1.166,1.163,1.167l49.042,0.09
			C583.711,297.086,584.234,296.565,584.235,295.922"/>
	</g>
	<g>
		<g>
			
				<polygon style="fill:#FFFFFF;stroke:#020046;stroke-width:0.75;stroke-linecap:round;stroke-linejoin:round;stroke-miterlimit:10;" points="
				614.503,265.725 612.545,265.725 600.358,265.725 603.667,297.324 612.545,297.324 614.503,297.324 623.382,297.324 
				626.691,265.725 			"/>
			
				<polygon style="fill:#F089D5;stroke:#020046;stroke-width:0.75;stroke-linecap:round;stroke-linejoin:round;stroke-miterlimit:10;" points="
				602.74,288.473 624.309,288.473 626.006,272.26 601.042,272.26 			"/>
		</g>
		<g>
			<path style="fill:#020046;" d="M624.181,262.561h-21.073c-0.811,0-1.468-0.657-1.468-1.468v-2.771
				c0-0.811,0.657-1.468,1.468-1.468h21.073c0.811,0,1.468,0.657,1.468,1.468v2.771C625.65,261.904,624.992,262.561,624.181,262.561
				z"/>
			<path style="fill:#020046;" d="M627.887,266.216h-28.485c-1.06,0-1.919-0.859-1.919-1.919v-1.988c0-1.06,0.859-1.919,1.919-1.919
				h28.485c1.06,0,1.919,0.859,1.919,1.919v1.988C629.806,265.357,628.947,266.216,627.887,266.216z"/>
		</g>
	</g>
	<g>
		<path style="fill:#FFFFFF;stroke:#C4C1D2;stroke-linecap:round;stroke-linejoin:round;stroke-miterlimit:10;" d="M366.313,39.121
			h-19.192h-13.392h-9c-4.163,0-7.538,3.375-7.538,7.538v17.955c0,0.348,0.032,0.687,0.077,1.023
			c-0.046,0.335-0.077,0.675-0.077,1.023v17.955c0,4.163,3.375,7.538,7.538,7.538h9h13.392h19.066l7.664,7.036V84.613v-4.652v-0.773
			V66.659v-2.045v-4.652V46.659C373.85,42.496,370.476,39.121,366.313,39.121z"/>
		<g>
			<g>
				
					<polygon style="fill:#FFFFFF;stroke:#C4C1D2;stroke-width:0.75;stroke-linecap:round;stroke-linejoin:round;stroke-miterlimit:10;" points="
					346.229,55.88 344.614,55.88 334.556,55.88 337.286,81.957 344.614,81.957 346.229,81.957 353.556,81.957 356.287,55.88 				"/>
				<polygon style="fill:#C4C1D2;" points="336.522,74.653 354.321,74.653 355.722,61.273 335.121,61.273 				"/>
			</g>
			<g>
				<path style="fill:#C4C1D2;" d="M354.216,53.269h-17.391c-0.669,0-1.212-0.543-1.212-1.212V49.77
					c0-0.669,0.542-1.211,1.212-1.211h17.391c0.669,0,1.212,0.542,1.212,1.211v2.287C355.428,52.726,354.885,53.269,354.216,53.269z
					"/>
				<path style="fill:#C4C1D2;" d="M357.274,56.285h-23.507c-0.875,0-1.584-0.709-1.584-1.584v-1.641
					c0-0.875,0.709-1.584,1.584-1.584h23.507c0.875,0,1.584,0.709,1.584,1.584v1.641C358.858,55.576,358.149,56.285,357.274,56.285z
					"/>
			</g>
		</g>
	</g>
	<g>
		<g>
			
				<path style="fill:#FFFFFF;stroke:#C4C1D2;stroke-width:0.75;stroke-linecap:round;stroke-linejoin:round;stroke-miterlimit:10;" d="
				M491.85,127.161h35.223c4.5,0,8.148,3.648,8.148,8.148v14.38v5.029v15.755l-8.284-7.606H491.85c-4.5,0-8.148-3.648-8.148-8.148
				v-19.409C483.702,130.809,487.35,127.161,491.85,127.161z"/>
		</g>
		<g>
			
				<path style="fill:#FFFFFF;stroke:#C4C1D2;stroke-width:0.75;stroke-linecap:round;stroke-linejoin:round;stroke-miterlimit:10;" d="
				M476.716,113.158h35.223c4.5,0,8.148,3.648,8.148,8.148v14.38v5.029v15.755l-8.284-7.606h-35.087c-4.5,0-8.148-3.648-8.148-8.148
				v-19.409C468.568,116.806,472.216,113.158,476.716,113.158z"/>
			<g>
				<path style="fill:#C4C1D2;" d="M502.388,131.658c0,1.957,1.586,3.543,3.543,3.543c1.957,0,3.543-1.586,3.543-3.543
					c0-1.956-1.586-3.543-3.543-3.543C503.974,128.115,502.388,129.702,502.388,131.658z"/>
				<path style="fill:#C4C1D2;" d="M490.064,131.658c0,1.957,1.586,3.543,3.543,3.543c1.957,0,3.543-1.586,3.543-3.543
					c0-1.956-1.586-3.543-3.543-3.543C491.65,128.115,490.064,129.702,490.064,131.658z"/>
				<path style="fill:#C4C1D2;" d="M477.739,131.658c0,1.957,1.586,3.543,3.543,3.543s3.543-1.586,3.543-3.543
					c0-1.956-1.586-3.543-3.543-3.543S477.739,129.702,477.739,131.658z"/>
			</g>
		</g>
	</g>
	<g>
		<g>
			<g>
				<path style="fill:#D8D7E2;" d="M679.331,405.313c8.911-10.519,43.992-81.911,35.968-92.598
					c-10.059-13.397-32.982,22.674-46.734,66.949c0,0,13.995-61.134,2.219-68.477c-11.698-7.293-18.485,50.265-17.322,92.385
					L679.331,405.313z"/>
				<path style="fill:#D8D7E2;" d="M662.066,401.198c-1.076-6.291-12.707-88.474-30.927-81.737
					c-13.33,4.929,13.361,71.164,19.197,83.047L662.066,401.198z"/>
			</g>
			<g>
				
					<line style="fill:none;stroke:#C4C1D2;stroke-width:0.75;stroke-linecap:round;stroke-linejoin:round;stroke-miterlimit:10;" x1="662.066" y1="390.195" x2="667.135" y2="326.286"/>
				
					<line style="fill:none;stroke:#C4C1D2;stroke-width:0.75;stroke-linecap:round;stroke-linejoin:round;stroke-miterlimit:10;" x1="707.395" y1="318.68" x2="671.186" y2="396.85"/>
				
					<line style="fill:none;stroke:#C4C1D2;stroke-width:0.75;stroke-linecap:round;stroke-linejoin:round;stroke-miterlimit:10;" x1="653.594" y1="396.85" x2="633.985" y2="327.764"/>
			</g>
		</g>
		<path style="fill:#D8D7E2;" d="M688.478,453.464h-47.795c-2.352,0-4.259-1.907-4.259-4.259v-43.747
			c0-2.352,1.907-4.259,4.259-4.259h47.795c2.352,0,4.259,1.907,4.259,4.259v43.747C692.736,451.557,690.83,453.464,688.478,453.464
			z"/>
	</g>
	<g>
		<g>
			
				<ellipse transform="matrix(0.7722 -0.6353 0.6353 0.7722 86.2144 428.6283)" style="fill:none;stroke:#C4C1D2;stroke-width:0.75;stroke-miterlimit:10;" cx="640.926" cy="94.069" rx="30.185" ry="30.185"/>
			
				<ellipse transform="matrix(0.2413 -0.9704 0.9704 0.2413 394.968 693.3516)" style="fill:#FFFFFF;stroke:#C4C1D2;stroke-width:0.75;stroke-miterlimit:10;" cx="640.926" cy="94.069" rx="25.23" ry="25.23"/>
		</g>
		<g>
			
				<line style="fill:none;stroke:#C4C1D2;stroke-width:0.75;stroke-linecap:round;stroke-linejoin:round;stroke-miterlimit:10;" x1="648.428" y1="72.699" x2="647.43" y2="75.495"/>
			
				<line style="fill:none;stroke:#C4C1D2;stroke-width:0.75;stroke-linecap:round;stroke-linejoin:round;stroke-miterlimit:10;" x1="634.206" y1="112.565" x2="633.209" y2="115.361"/>
			
				<line style="fill:none;stroke:#C4C1D2;stroke-width:0.75;stroke-linecap:round;stroke-linejoin:round;stroke-miterlimit:10;" x1="619.393" y1="86.598" x2="622.46" y2="87.692"/>
			
				<line style="fill:none;stroke:#C4C1D2;stroke-width:0.75;stroke-linecap:round;stroke-linejoin:round;stroke-miterlimit:10;" x1="659.259" y1="100.819" x2="662.326" y2="101.913"/>
			
				<line style="fill:none;stroke:#C4C1D2;stroke-width:0.75;stroke-linecap:round;stroke-linejoin:round;stroke-miterlimit:10;" x1="636.534" y1="71.608" x2="637.186" y2="75.196"/>
			
				<line style="fill:none;stroke:#C4C1D2;stroke-width:0.75;stroke-linecap:round;stroke-linejoin:round;stroke-miterlimit:10;" x1="626.275" y1="76.997" x2="628.343" y2="79.464"/>
			
				<line style="fill:none;stroke:#C4C1D2;stroke-width:0.75;stroke-linecap:round;stroke-linejoin:round;stroke-miterlimit:10;" x1="618.681" y1="98.283" x2="621.908" y2="97.503"/>
			
				<line style="fill:none;stroke:#C4C1D2;stroke-width:0.75;stroke-linecap:round;stroke-linejoin:round;stroke-miterlimit:10;" x1="623.31" y1="108.678" x2="625.989" y2="106.584"/>
			
				<line style="fill:none;stroke:#C4C1D2;stroke-width:0.75;stroke-linecap:round;stroke-linejoin:round;stroke-miterlimit:10;" x1="644.957" y1="116.4" x2="644.209" y2="113.083"/>
			
				<line style="fill:none;stroke:#C4C1D2;stroke-width:0.75;stroke-linecap:round;stroke-linejoin:round;stroke-miterlimit:10;" x1="655.481" y1="111.411" x2="653.296" y2="108.7"/>
			
				<line style="fill:none;stroke:#C4C1D2;stroke-width:0.75;stroke-linecap:round;stroke-linejoin:round;stroke-miterlimit:10;" x1="663.074" y1="90.125" x2="659.37" y2="90.532"/>
			
				<line style="fill:none;stroke:#C4C1D2;stroke-width:0.75;stroke-linecap:round;stroke-linejoin:round;stroke-miterlimit:10;" x1="657.957" y1="79.959" x2="655.405" y2="81.696"/>
		</g>
		<g>
			<path style="fill:#C4C1D2;" d="M644.308,95.275c-0.666,1.868-2.721,2.842-4.589,2.176c-1.868-0.666-2.842-2.721-2.176-4.589
				c0.666-1.868,2.721-2.842,4.589-2.176C644.001,91.353,644.975,93.407,644.308,95.275z"/>
		</g>
		<polyline style="fill:none;stroke:#C4C1D2;stroke-linecap:round;stroke-linejoin:round;stroke-miterlimit:10;" points="
			646.772,78.783 641.174,94.477 626.847,98.212 		"/>
	</g>
	<g>
		<g>
			<g>
				
					<rect x="207.568" y="351.85" transform="matrix(-1 -1.224647e-16 1.224647e-16 -1 424.4011 763.8508)" style="fill:#FFFFFF;stroke:#A3A1AF;stroke-width:0.75;stroke-miterlimit:10;" width="9.265" height="60.15"/>
				<path style="fill:#A3A1AF;" d="M209.354,431.205h5.693c2.369,0,4.29-1.921,4.29-4.29v-42.793c0-2.37-1.921-4.29-4.29-4.29
					h-5.693c-2.369,0-4.29,1.921-4.29,4.29v42.793C205.064,429.284,206.985,431.205,209.354,431.205z"/>
			</g>
			<polygon style="fill:#A3A1AF;" points="175.641,426.903 177.915,426.903 246.486,426.903 251.878,426.903 251.878,433.086 
				251.878,440.042 246.486,440.042 246.486,433.086 177.915,433.086 177.915,440.042 172.524,440.042 172.524,433.086 
				172.524,426.903 			"/>
			<g>
				<g>
					<path style="fill:#FFFFFF;stroke:#A3A1AF;stroke-width:0.75;stroke-miterlimit:10;" d="M166.899,444.595
						c0,4.567,3.702,8.269,8.27,8.269c4.567,0,8.269-3.702,8.269-8.269c0-4.567-3.702-8.269-8.269-8.269
						C170.601,436.326,166.899,440.028,166.899,444.595z"/>
					<path style="fill:#A3A1AF;" d="M172,444.595c0,1.75,1.419,3.169,3.169,3.169c1.75,0,3.168-1.419,3.168-3.169
						c0-1.75-1.419-3.169-3.168-3.169C173.419,441.427,172,442.845,172,444.595z"/>
				</g>
				<g>
					<path style="fill:#FFFFFF;stroke:#A3A1AF;stroke-width:0.75;stroke-miterlimit:10;" d="M241.198,444.595
						c0,4.567,3.702,8.269,8.269,8.269c4.567,0,8.269-3.702,8.269-8.269c0-4.567-3.702-8.269-8.269-8.269
						C244.9,436.326,241.198,440.028,241.198,444.595z"/>
					<path style="fill:#A3A1AF;" d="M246.299,444.595c0,1.75,1.419,3.169,3.169,3.169s3.169-1.419,3.169-3.169
						c0-1.75-1.419-3.169-3.169-3.169S246.299,442.845,246.299,444.595z"/>
				</g>
			</g>
		</g>
		<g>
			<path style="fill:#FFFFFF;stroke:#A3A1AF;stroke-width:0.75;stroke-linecap:round;stroke-miterlimit:10;" d="M297.858,359.15
				H138.563c-3.283,0-6.006-2.541-6.232-5.816l-6.979-100.89c-0.25-3.611,2.612-6.678,6.232-6.678h83.952
				c3.064,0,5.675,2.221,6.166,5.245l14.683,90.399c0.491,3.024,3.103,5.245,6.166,5.245h55.307c2.696,0,5.088,1.729,5.932,4.29l0,0
				C305.124,354.987,302.114,359.15,297.858,359.15z"/>
			
				<line style="fill:none;stroke:#A3A1AF;stroke-width:0.75;stroke-linecap:round;stroke-miterlimit:10;" x1="132.733" y1="269.158" x2="204.965" y2="269.158"/>
			
				<line style="fill:none;stroke:#A3A1AF;stroke-width:0.75;stroke-linecap:round;stroke-miterlimit:10;" x1="132.733" y1="292.18" x2="209.078" y2="292.18"/>
			
				<line style="fill:none;stroke:#A3A1AF;stroke-width:0.75;stroke-linecap:round;stroke-miterlimit:10;" x1="137.394" y1="315.201" x2="213.739" y2="315.201"/>
			
				<line style="fill:none;stroke:#A3A1AF;stroke-width:0.75;stroke-linecap:round;stroke-miterlimit:10;" x1="137.394" y1="338.222" x2="213.739" y2="338.222"/>
			
				<line style="fill:none;stroke:#A3A1AF;stroke-width:0.75;stroke-linecap:round;stroke-miterlimit:10;" x1="210.45" y1="250.593" x2="225.143" y2="348.035"/>
		</g>
	</g>
	<g>
		
			<path style="fill:#5C64FE;stroke:#020046;stroke-width:0.75;stroke-linecap:round;stroke-linejoin:round;stroke-miterlimit:10;" d="
			M677.71,453.464h-79.288c-2.768,0-5.011-2.243-5.011-5.011V396.61c0-2.767,2.243-5.011,5.011-5.011h79.288
			c2.768,0,5.011,2.243,5.011,5.011v51.843C682.721,451.22,680.477,453.464,677.71,453.464z"/>
		<g>
			
				<line style="fill:none;stroke:#020046;stroke-width:0.75;stroke-linecap:round;stroke-linejoin:round;stroke-miterlimit:10;" x1="607.566" y1="411.635" x2="607.566" y2="453.464"/>
			
				<line style="fill:none;stroke:#020046;stroke-width:0.75;stroke-linecap:round;stroke-linejoin:round;stroke-miterlimit:10;" x1="668.566" y1="411.635" x2="668.566" y2="453.464"/>
		</g>
		<g>
			<path style="fill:#5C64FE;" d="M680.3,420.431h-84.468c-3.098,0-5.609-2.511-5.609-5.609v-24.627
				c0-3.098,2.511-5.609,5.609-5.609H680.3c3.098,0,5.609,2.511,5.609,5.609v24.627C685.909,417.92,683.398,420.431,680.3,420.431z"
				/>
			<path style="fill:none;stroke:#020046;stroke-width:0.75;stroke-linecap:round;stroke-linejoin:round;stroke-miterlimit:10;" d="
				M685.909,390.195v24.627c0,3.098-2.511,5.609-5.609,5.609h-84.468c-3.098,0-5.609-2.511-5.609-5.609v-24.627"/>
		</g>
		<g>
			<path style="fill:#020046;" d="M618.525,385.979h-8.919c-0.843,0-1.527-0.684-1.527-1.527v0c0-0.843,0.684-1.527,1.527-1.527
				h8.919c0.843,0,1.527,0.684,1.527,1.527v0C620.052,385.295,619.368,385.979,618.525,385.979z"/>
			<path style="fill:#020046;" d="M666.525,385.979h-8.919c-0.843,0-1.527-0.684-1.527-1.527v0c0-0.843,0.684-1.527,1.527-1.527
				h8.919c0.843,0,1.527,0.684,1.527,1.527v0C668.052,385.295,667.368,385.979,666.525,385.979z"/>
		</g>
		<g>
			<path style="fill:#A3A1AF;" d="M618.566,384.811L618.566,384.811c-0.622,0-1.126-0.504-1.126-1.126v-4.567
				c0-0.622,0.504-1.126,1.126-1.126l0,0c0.622,0,1.126,0.504,1.126,1.126v4.567C619.692,384.307,619.188,384.811,618.566,384.811z"
				/>
			<path style="fill:#A3A1AF;" d="M657.566,384.811L657.566,384.811c-0.622,0-1.126-0.504-1.126-1.126v-4.567
				c0-0.622,0.504-1.126,1.126-1.126l0,0c0.622,0,1.126,0.504,1.126,1.126v4.567C658.692,384.307,658.188,384.811,657.566,384.811z"
				/>
		</g>
		<path style="fill:none;stroke:#020046;stroke-width:4;stroke-linecap:round;stroke-linejoin:round;stroke-miterlimit:10;" d="
			M618.416,379.391c5.073-2.368,12.005-3.826,19.65-3.826c7.648,0,14.584,1.46,19.657,3.829"/>
		<g>
			<path style="fill:none;stroke:#020046;stroke-width:0.75;stroke-linecap:round;stroke-linejoin:round;stroke-miterlimit:10;" d="
				M643.269,410.634c0.197-1-0.568-1.931-1.588-1.931h-2.032h-3.168h-2.032c-1.019,0-1.785,0.931-1.588,1.931l1.086,5.508h8.235
				L643.269,410.634z"/>
			<path style="fill:#020046;" d="M641.269,421.463h-6.406c-1.053,0-1.907-0.854-1.907-1.907v-2.451
				c0-1.053,0.854-1.907,1.907-1.907h6.406c1.053,0,1.907,0.854,1.907,1.907v2.451C643.176,420.609,642.322,421.463,641.269,421.463
				z"/>
			<path style="fill:#020046;" d="M638.76,428.63h-1.389c-2.885,0-5.224-2.339-5.224-5.224v-3.942c0-0.486,0.394-0.88,0.88-0.88
				h10.077c0.486,0,0.88,0.394,0.88,0.88v3.942C643.984,426.291,641.646,428.63,638.76,428.63z"/>
			
				<rect x="636.423" y="422.712" style="fill:none;stroke:#C4C1D2;stroke-width:0.75;stroke-linecap:round;stroke-linejoin:round;stroke-miterlimit:10;" width="3.285" height="3.285"/>
			
				<line style="fill:none;stroke:#C4C1D2;stroke-width:0.75;stroke-linecap:round;stroke-linejoin:round;stroke-miterlimit:10;" x1="632.673" y1="418.66" x2="643.3" y2="418.66"/>
		</g>
	</g>
</g>
</svg>
